<svg xmlns="http://www.w3.org/2000/svg">
<defs>
<font id="Nabla-Regular" horiz-adv-x="520" >
  <font-face 
    font-family="Nabla"
    font-weight="400"
    font-stretch="normal"
    units-per-em="1000"
    panose-1="2 11 1 4 2 2 2 6 2 3"
    ascent="800"
    descent="-200"
    x-height="645"
    cap-height="880"
    bbox="-43 -380 1039 1263"
    underline-thickness="50"
    underline-position="-125"
    unicode-range="U+0020-2265"
  />
<missing-glyph horiz-adv-x="606" 
d="M390 100l-87 -50v100l87 50v100l-87 -50v100l87 50v100l86 50v-100l87 50v-100l-87 -50v-100l87 50v-100l-87 -50v100l-86 -50v-100zM217 0l-87 -50v100l87 50v-100zM217 200l86 50v-100l-86 -50v100zM217 300v-100l-87 -50v100zM217 400l86 50v-100l-86 -50v100z
M217 500v-100l-87 -50v100zM217 600l86 50v-100l-86 -50v100zM390 700l-87 -50v100l87 50v-100zM303 550l87 50v-100l-87 -50v100zM390 700l86 50v-100l-86 -50v100zM563 800l-87 -50v100l87 50v-100zM563 600l-87 -50v100l87 50v-100zM476 450l-86 -50v-100l86 50v100z
M217 600l-87 -50v100l87 50v-100zM476 250v-100l-86 50v100zM563 300l-87 -50l-86 50l86 50zM563 500l-87 -50l-86 50l86 50zM390 200l-87 -50l-86 50l86 50zM303 150v-100l-86 50v100zM130 50v-100l-87 50v100zM563 900l-87 -50l-86 50l86 50zM476 850v-100l-86 50v100z
M563 700l-87 -50l-86 50l86 50zM476 650v-100l-86 50v100zM476 450v-100l-86 50v100zM476 550l-86 -50l-87 50l87 50zM390 500v-100l-87 50v100zM390 300v-100l-87 50v100zM217 100l-87 -50l-87 50l87 50zM303 250l-86 -50l-87 50l87 50zM217 200v-100l-87 50v100zM476 750
l-86 -50l-87 50l87 50zM476 350l-86 -50l-87 50l87 50zM390 400l-87 -50l-86 50l86 50zM303 350v-100l-86 50v100zM130 250v-100l-87 50v100zM390 800l-87 -50l-86 50l86 50zM390 600l-87 -50l-86 50l86 50zM303 550v-100l-86 50v100zM390 700v-100l-87 50v100zM217 300
l-87 -50l-87 50l87 50zM303 450l-86 -50l-87 50l87 50zM217 400v-100l-87 50v100zM303 650l-86 -50l-87 50l87 50zM217 600v-100l-87 50v100zM303 750v-100l-86 50v100zM217 500l-87 -50l-87 50l87 50zM130 450v-100l-87 50v100zM217 700l-87 -50l-87 50l87 50zM130 650
v-100l-87 50v100z" />
    <glyph glyph-name=".notdef" horiz-adv-x="606" 
d="M390 100l-87 -50v100l87 50v100l-87 -50v100l87 50v100l86 50v-100l87 50v-100l-87 -50v-100l87 50v-100l-87 -50v100l-86 -50v-100zM217 0l-87 -50v100l87 50v-100zM217 200l86 50v-100l-86 -50v100zM217 300v-100l-87 -50v100zM217 400l86 50v-100l-86 -50v100z
M217 500v-100l-87 -50v100zM217 600l86 50v-100l-86 -50v100zM390 700l-87 -50v100l87 50v-100zM303 550l87 50v-100l-87 -50v100zM390 700l86 50v-100l-86 -50v100zM563 800l-87 -50v100l87 50v-100zM563 600l-87 -50v100l87 50v-100zM476 450l-86 -50v-100l86 50v100z
M217 600l-87 -50v100l87 50v-100zM476 250v-100l-86 50v100zM563 300l-87 -50l-86 50l86 50zM563 500l-87 -50l-86 50l86 50zM390 200l-87 -50l-86 50l86 50zM303 150v-100l-86 50v100zM130 50v-100l-87 50v100zM563 900l-87 -50l-86 50l86 50zM476 850v-100l-86 50v100z
M563 700l-87 -50l-86 50l86 50zM476 650v-100l-86 50v100zM476 450v-100l-86 50v100zM476 550l-86 -50l-87 50l87 50zM390 500v-100l-87 50v100zM390 300v-100l-87 50v100zM217 100l-87 -50l-87 50l87 50zM303 250l-86 -50l-87 50l87 50zM217 200v-100l-87 50v100zM476 750
l-86 -50l-87 50l87 50zM476 350l-86 -50l-87 50l87 50zM390 400l-87 -50l-86 50l86 50zM303 350v-100l-86 50v100zM130 250v-100l-87 50v100zM390 800l-87 -50l-86 50l86 50zM390 600l-87 -50l-86 50l86 50zM303 550v-100l-86 50v100zM390 700v-100l-87 50v100zM217 300
l-87 -50l-87 50l87 50zM303 450l-86 -50l-87 50l87 50zM217 400v-100l-87 50v100zM303 650l-86 -50l-87 50l87 50zM217 600v-100l-87 50v100zM303 750v-100l-86 50v100zM217 500l-87 -50l-87 50l87 50zM130 450v-100l-87 50v100zM217 700l-87 -50l-87 50l87 50zM130 650
v-100l-87 50v100z" />
    <glyph glyph-name="uni00A0" unicode="&#xa0;" horiz-adv-x="260" 
 />
    <glyph glyph-name="A" unicode="A" horiz-adv-x="563" 
d="M217 740l216 125q34 20 60.5 5t26.5 -55v-640l-87 -50v200l-216 -125v-200l-87 -50v640q0 27 12 56.5t32 55t43 38.5zM433 425v340l-216 -125v-340zM433 325v-200l-87 50v200zM433 765v-340l-87 50v340zM433 425l-216 -125l-87 50l216 125zM494 870q-27 15 -61 -5
l-216 -125q-23 -13 -43 -38.5t-32 -55t-12 -56.5v-640l-87 50v640q0 27 12 56.5t32 55t43 38.5l216 125q35 20 61 5z" />
    <glyph glyph-name="AE" unicode="&#xc6;" horiz-adv-x="719" 
d="M217 700l458 265v-100l-190 -110v-200l190 110v-100l-190 -110v-200l190 110v-100l-190 -110q-34 -20 -60.5 -5t-26.5 55v100l-181 -105v-200l-87 -50v600q0 27 12 56.5t32 55t43 38.5zM398 405v300l-181 -105v-300zM398 305v-100q0 -40 26 -55l-86 50q-26 15 -26 55v100
zM675 365l-190 -110l-87 50l191 110zM675 665l-190 -110l-87 50l191 110zM398 705v-300l-86 50v300zM398 405l-181 -105l-87 50l182 105zM675 965l-458 -265q-23 -13 -43 -38.5t-32 -55t-12 -56.5v-600l-87 50v600q0 27 12 56.5t32 55t43 38.5l459 265z" />
    <glyph glyph-name="Aacute" unicode="&#xc1;" horiz-adv-x="563" 
d="M217 740l216 125q34 20 60.5 5t26.5 -55v-640l-87 -50v200l-216 -125v-200l-87 -50v640q0 27 12 56.5t32 55t43 38.5zM433 425v340l-216 -125v-340zM190 921l207 252l46 -61l-207 -252zM433 325v-200l-87 50v200zM433 765v-340l-87 50v340zM433 425l-216 -125l-87 50
l216 125zM494 870q-27 15 -61 -5l-216 -125q-23 -13 -43 -38.5t-32 -55t-12 -56.5v-640l-87 50v640q0 27 12 56.5t32 55t43 38.5l216 125q35 20 61 5zM397 1173l-207 -252l-87 50l207 252zM190 921l46 -61l-87 50l-46 61z" />
    <glyph glyph-name="Abreve" unicode="&#x102;" horiz-adv-x="563" 
d="M217 740l216 125q34 20 60.5 5t26.5 -55v-640l-87 -50v200l-216 -125v-200l-87 -50v640q0 27 12 56.5t32 55t43 38.5zM433 425v340l-216 -125v-340zM325 913q-46 -27 -85.5 -22t-63.5 37t-24 85l86 50q0 -40 26 -55t61 5q23 13 42.5 38t31.5 55t12 57l87 50
q0 -40 -14 -84t-38 -86t-55.5 -76.5t-65.5 -53.5zM433 325v-200l-87 50v200zM433 765v-340l-87 50v340zM498 1213l-87 -50l-86 50l86 50zM411 1163q0 -27 -12 -57t-31.5 -55t-42.5 -38q-35 -20 -61 -5l-86 50q26 -15 60 5q23 13 43 38t32 55t12 57zM433 425l-216 -125
l-87 50l216 125zM494 870q-27 15 -61 -5l-216 -125q-23 -13 -43 -38.5t-32 -55t-12 -56.5v-640l-87 50v640q0 27 12 56.5t32 55t43 38.5l216 125q35 20 61 5zM238 1063l-86 -50l-87 50l87 50zM152 1013q0 -40 14 -68t38 -42l-87 50q-24 14 -38 42t-14 68z" />
    <glyph glyph-name="Acircumflex" unicode="&#xc2;" horiz-adv-x="563" 
d="M217 740l216 125q34 20 60.5 5t26.5 -55v-640l-87 -50v200l-216 -125v-200l-87 -50v640q0 27 12 56.5t32 55t43 38.5zM433 425v340l-216 -125v-340zM337 1033l-131 -180l-48 52l167 228l166 -36l-41 -90zM433 325v-200l-87 50v200zM433 765v-340l-87 50v340zM491 1097
l-166 36l-87 50l166 -36zM433 425l-216 -125l-87 50l216 125zM494 870q-27 15 -61 -5l-216 -125q-23 -13 -43 -38.5t-32 -55t-12 -56.5v-640l-87 50v640q0 27 12 56.5t32 55t43 38.5l216 125q35 20 61 5zM325 1133l-167 -228l-86 50l166 228zM158 905l48 -52l-86 50l-48 52z
" />
    <glyph glyph-name="Adieresis" unicode="&#xc4;" horiz-adv-x="563" 
d="M217 740l216 125q34 20 60.5 5t26.5 -55v-640l-87 -50v200l-216 -125v-200l-87 -50v640q0 27 12 56.5t32 55t43 38.5zM433 425v340l-216 -125v-340zM217 850q-27 -15 -44 -5t-17 40t17 60t44 45q26 15 43 5t17 -40t-17 -60t-43 -45zM433 975q-26 -15 -43.5 -5t-17.5 40
t17.5 60t43.5 45t43.5 5t17.5 -40t-17.5 -60t-43.5 -45zM433 325v-200l-87 50v200zM433 765v-340l-87 50v340zM477 1120q-18 10 -44 -5t-43.5 -45t-17.5 -60t18 -40l-87 50q-17 10 -17 40t17 60t43 45q27 15 44 5zM433 425l-216 -125l-87 50l216 125zM494 870q-27 15 -61 -5
l-216 -125q-23 -13 -43 -38.5t-32 -55t-12 -56.5v-640l-87 50v640q0 27 12 56.5t32 55t43 38.5l216 125q35 20 61 5zM260 995q-17 10 -43 -5q-27 -15 -44 -45t-17 -60t17 -40l-87 50q-17 10 -17 40t17.5 60t43.5 45t43 5z" />
    <glyph glyph-name="Agrave" unicode="&#xc0;" horiz-adv-x="563" 
d="M217 740l216 125q34 20 60.5 5t26.5 -55v-640l-87 -50v200l-216 -125v-200l-87 -50v640q0 27 12 56.5t32 55t43 38.5zM433 425v340l-216 -125v-340zM211 1114l241 -57l-49 -103l-241 56zM433 325v-200l-87 50v200zM433 765v-340l-87 50v340zM452 1057l-241 57l-86 50
l240 -57zM433 425l-216 -125l-87 50l216 125zM494 870q-27 15 -61 -5l-216 -125q-23 -13 -43 -38.5t-32 -55t-12 -56.5v-640l-87 50v640q0 27 12 56.5t32 55t43 38.5l216 125q35 20 61 5zM211 1114l-49 -104l-87 50l50 104z" />
    <glyph glyph-name="Amacron" unicode="&#x100;" horiz-adv-x="563" 
d="M217 740l216 125q34 20 60.5 5t26.5 -55v-640l-87 -50v200l-216 -125v-200l-87 -50v640q0 27 12 56.5t32 55t43 38.5zM433 425v340l-216 -125v-340zM156 935l303 175v-100l-303 -175v100zM433 325v-200l-87 50v200zM433 765v-340l-87 50v340zM433 425l-216 -125l-87 50
l216 125zM494 870q-27 15 -61 -5l-216 -125q-23 -13 -43 -38.5t-32 -55t-12 -56.5v-640l-87 50v640q0 27 12 56.5t32 55t43 38.5l216 125q35 20 61 5zM459 1110l-303 -175l-87 50l303 175zM156 935v-100l-87 50v100z" />
    <glyph glyph-name="Aogonek" unicode="&#x104;" horiz-adv-x="563" 
d="M433 125v-100l87 50v-100l-87 -50q-34 -20 -60.5 -5t-26.5 55q0 27 12.5 56.5t32 55t42.5 38.5v200l-216 -125v-200l-87 -50v640q0 27 12 56.5t32 55t43 38.5l216 125q34 20 60.5 5t26.5 -55v-640zM433 425v340l-216 -125v-340zM520 75l-87 -50l-87 50l87 50zM433 765
v-340l-87 50v340zM433 325v-200l-87 50v200zM433 125q-23 -13 -42.5 -38.5t-32 -55t-12.5 -56.5q0 -40 26 -55l-86 50q-26 15 -26 55q0 27 12 56.5t31.5 55t42.5 38.5zM433 425l-216 -125l-87 50l216 125zM494 870q-27 15 -61 -5l-216 -125q-23 -13 -43 -38.5t-32 -55
t-12 -56.5v-640l-87 50v640q0 27 12 56.5t32 55t43 38.5l216 125q35 20 61 5z" />
    <glyph glyph-name="Aring" unicode="&#xc5;" horiz-adv-x="563" 
d="M217 740l216 125q34 20 60.5 5t26.5 -55v-640l-87 -50v200l-216 -125v-200l-87 -50v640q0 27 12 56.5t32 55t43 38.5zM433 425v340l-216 -125v-340zM325 1077q37 21 61.5 6.5t24.5 -56.5q0 -43 -24.5 -86t-61.5 -64q-37 -22 -62 -7.5t-25 57.5q0 42 25 85t62 65z
M325 1009q-11 -6 -19.5 -21t-8.5 -28t8.5 -17.5t19.5 1.5t19.5 21t8.5 28t-8.5 17.5t-19.5 -1.5zM433 325v-200l-87 50v200zM433 765v-340l-87 50v340zM433 425l-216 -125l-87 50l216 125zM494 870q-27 15 -61 -5l-216 -125q-23 -13 -43 -38.5t-32 -55t-12 -56.5v-640
l-87 50v640q0 27 12 56.5t32 55t43 38.5l216 125q35 20 61 5zM344 1011q9 -5 9 -18t-8.5 -28t-19.5 -21t-20 -2l-87 50q9 -4 20 2t19.5 21t8.5 28t-8 18zM387 1084q-25 14 -62 -7q-37 -22 -62 -65t-25 -85q0 -43 25 -58l-87 50q-24 15 -24 58q0 42 24.5 85t61.5 65
q37 21 62 7z" />
    <glyph glyph-name="Atilde" unicode="&#xc3;" horiz-adv-x="563" 
d="M217 740l216 125q34 20 60.5 5t26.5 -55v-640l-87 -50v200l-216 -125v-200l-87 -50v640q0 27 12 56.5t32 55t43 38.5zM433 425v340l-216 -125v-340zM187 834l-68 25l79 159q21 44 50.5 61t63.5 5l68 -23l64 130l69 -25l-79 -159q-21 -43 -50.5 -60t-63.5 -6l-68 24z
M433 325v-200l-87 50v200zM433 765v-340l-87 50v340zM513 1166l-69 25l-86 50l68 -25zM444 1191l-64 -130l-87 50l65 130zM433 425l-216 -125l-87 50l216 125zM494 870q-27 15 -61 -5l-216 -125q-23 -13 -43 -38.5t-32 -55t-12 -56.5v-640l-87 50v640q0 27 12 56.5t32 55
t43 38.5l216 125q35 20 61 5zM380 1061l-68 23q-34 12 -63.5 -5t-50.5 -61l-79 -159l-87 50l79 159q21 44 51 61t63 5l68 -23z" />
    <glyph glyph-name="B" unicode="B" horiz-adv-x="572" 
d="M442 870q34 20 60 5t26 -55v-140q0 -26 -12 -56t-31.5 -55.5t-42.5 -38.5q34 20 60 5t26 -55v-200q0 -27 -12 -56.5t-31.5 -55t-42.5 -38.5l-139 -80q-34 -20 -60 -5t-26 55v-100l-87 -50v740zM442 530v240l-225 -130v-240zM442 430l-225 -130v-200l225 130v200zM217 100
q0 -40 26 -55l-87 50q-26 15 -26 55zM502 535q-26 15 -60 -5l-87 50q34 20 61 5zM442 430v-200l-87 50v200zM442 230l-225 -130l-87 50l225 130zM442 770v-240l-87 50v240zM442 530l-225 -130l-87 50l225 130zM502 875q-26 15 -60 -5l-312 -180l-87 50l312 180q34 20 61 5z
M130 690v-740l-87 50v740z" />
    <glyph glyph-name="C" unicode="C" horiz-adv-x="563" 
d="M217 740l216 125q34 20 60.5 5t26.5 -55v-100l-87 -50v100l-216 -125v-580l216 125v100l87 50v-100q0 -26 -12.5 -56t-32 -55.5t-42.5 -38.5l-216 -125q-35 -20 -61 -5t-26 55v580q0 27 12 56.5t32 55t43 38.5zM520 335l-87 -50l-87 50l87 50zM433 285v-100l-87 50v100z
M433 185l-216 -125l-87 50l216 125zM433 765v-100l-87 50v100zM494 870q-27 15 -61 -5l-216 -125q-23 -13 -43 -38.5t-32 -55t-12 -56.5v-580q0 -40 26 -55l-87 50q-26 15 -26 55v580q0 27 12 56.5t32 55t43 38.5l216 125q35 20 61 5z" />
    <glyph glyph-name="Cacute" unicode="&#x106;" horiz-adv-x="563" 
d="M217 740l216 125q34 20 60.5 5t26.5 -55v-100l-87 -50v100l-216 -125v-580l216 125v100l87 50v-100q0 -26 -12.5 -56t-32 -55.5t-42.5 -38.5l-216 -125q-35 -20 -61 -5t-26 55v580q0 27 12 56.5t32 55t43 38.5zM190 921l207 252l46 -61l-207 -252zM520 335l-87 -50
l-87 50l87 50zM433 285v-100l-87 50v100zM433 185l-216 -125l-87 50l216 125zM433 765v-100l-87 50v100zM494 870q-27 15 -61 -5l-216 -125q-23 -13 -43 -38.5t-32 -55t-12 -56.5v-580q0 -40 26 -55l-87 50q-26 15 -26 55v580q0 27 12 56.5t32 55t43 38.5l216 125
q35 20 61 5zM397 1173l-207 -252l-87 50l207 252zM190 921l46 -61l-87 50l-46 61z" />
    <glyph glyph-name="Ccaron" unicode="&#x10c;" horiz-adv-x="563" 
d="M217 740l216 125q34 20 60.5 5t26.5 -55v-100l-87 -50v100l-216 -125v-580l216 125v100l87 50v-100q0 -26 -12.5 -56t-32 -55.5t-42.5 -38.5l-216 -125q-35 -20 -61 -5t-26 55v580q0 27 12 56.5t32 55t43 38.5zM349 941l-184 27l45 96l118 -26l119 163l51 -58zM520 335
l-87 -50l-87 50l87 50zM433 285v-100l-87 50v100zM433 185l-216 -125l-87 50l216 125zM433 765v-100l-87 50v100zM447 1201l-119 -163l-86 50l118 163zM328 1038l-118 26l-87 50l119 -26zM494 870q-27 15 -61 -5l-216 -125q-23 -13 -43 -38.5t-32 -55t-12 -56.5v-580
q0 -40 26 -55l-87 50q-26 15 -26 55v580q0 27 12 56.5t32 55t43 38.5l216 125q35 20 61 5zM210 1064l-45 -96l-87 50l45 96z" />
    <glyph glyph-name="Ccedilla" unicode="&#xc7;" horiz-adv-x="563" 
d="M217 740l216 125q34 20 60.5 5t26.5 -55v-100l-87 -50v100l-216 -125v-580l216 125v100l87 50v-100q0 -26 -12.5 -56t-32 -55.5t-42.5 -38.5l-216 -125q-35 -20 -61 -5t-26 55v580q0 27 12 56.5t32 55t43 38.5zM329 25q35 20 61 5t26 -55q0 -26 -12 -56t-32 -55.5
t-43 -38.5l-87 -50v100l87 50v100zM520 335l-87 -50l-87 50l87 50zM433 285v-100l-87 50v100zM433 765v-100l-87 50v100zM390 30q-26 15 -61 -5l-87 50q35 20 61 5zM329 25v-100l-87 50v100zM329 -75l-87 -50l-86 50l86 50zM242 -125v-100l-86 50v100zM433 185l-216 -125
l-87 50l216 125zM494 870q-27 15 -61 -5l-216 -125q-23 -13 -43 -38.5t-32 -55t-12 -56.5v-580q0 -40 26 -55l-87 50q-26 15 -26 55v580q0 27 12 56.5t32 55t43 38.5l216 125q35 20 61 5z" />
    <glyph glyph-name="Ccircumflex" unicode="&#x108;" horiz-adv-x="563" 
d="M217 740l216 125q34 20 60.5 5t26.5 -55v-100l-87 -50v100l-216 -125v-580l216 125v100l87 50v-100q0 -26 -12.5 -56t-32 -55.5t-42.5 -38.5l-216 -125q-35 -20 -61 -5t-26 55v580q0 27 12 56.5t32 55t43 38.5zM337 1033l-131 -180l-48 52l167 228l166 -36l-41 -90z
M520 335l-87 -50l-87 50l87 50zM433 285v-100l-87 50v100zM433 185l-216 -125l-87 50l216 125zM433 765v-100l-87 50v100zM491 1097l-166 36l-87 50l166 -36zM494 870q-27 15 -61 -5l-216 -125q-23 -13 -43 -38.5t-32 -55t-12 -56.5v-580q0 -40 26 -55l-87 50q-26 15 -26 55
v580q0 27 12 56.5t32 55t43 38.5l216 125q35 20 61 5zM325 1133l-167 -228l-86 50l166 228zM158 905l48 -52l-86 50l-48 52z" />
    <glyph glyph-name="Cdotaccent" unicode="&#x10a;" horiz-adv-x="563" 
d="M217 740l216 125q34 20 60.5 5t26.5 -55v-100l-87 -50v100l-216 -125v-580l216 125v100l87 50v-100q0 -26 -12.5 -56t-32 -55.5t-42.5 -38.5l-216 -125q-35 -20 -61 -5t-26 55v580q0 27 12 56.5t32 55t43 38.5zM333 918q-26 -16 -43 -6t-17 41q0 30 17 59.5t43 45.5
q27 15 44 5t17 -40q0 -31 -17 -60.5t-44 -44.5zM520 335l-87 -50l-87 50l87 50zM433 285v-100l-87 50v100zM433 185l-216 -125l-87 50l216 125zM433 765v-100l-87 50v100zM494 870q-27 15 -61 -5l-216 -125q-23 -13 -43 -38.5t-32 -55t-12 -56.5v-580q0 -40 26 -55l-87 50
q-26 15 -26 55v580q0 27 12 56.5t32 55t43 38.5l216 125q35 20 61 5zM377 1063q-17 10 -44 -5q-26 -16 -43 -45.5t-17 -59.5q0 -31 17 -41l-87 50q-17 10 -17 41q0 30 17 59.5t44 45.5q26 15 43 5z" />
    <glyph glyph-name="D" unicode="D" horiz-adv-x="572" 
d="M442 870q34 20 60 5t26 -55v-540q0 -27 -12 -56.5t-31.5 -55t-42.5 -38.5l-139 -80q-34 -20 -60 -5t-26 55l225 130v540l-225 -130v-640l-87 -50v740zM442 770v-540l-87 50v540zM442 230l-225 -130l-87 50l225 130zM217 100q0 -40 26 -55l-87 50q-26 15 -26 55zM502 875
q-26 15 -60 -5l-312 -180l-87 50l312 180q34 20 61 5zM130 690v-740l-87 50v740z" />
    <glyph glyph-name="Dcaron" unicode="&#x10e;" horiz-adv-x="572" 
d="M442 870q34 20 60 5t26 -55v-540q0 -27 -12 -56.5t-31.5 -55t-42.5 -38.5l-139 -80q-34 -20 -60 -5t-26 55v-100l-87 -50v740zM217 640v-540l225 130v540zM340 926l-184 27l45 96l119 -26l118 163l51 -58zM217 100q0 -40 26 -55l-87 50q-26 15 -26 55zM442 770v-540
l-87 50v540zM442 230l-225 -130l-87 50l225 130zM438 1186l-118 -163l-87 50l119 163zM320 1023l-119 26l-87 50l119 -26zM502 875q-26 15 -60 -5l-312 -180l-87 50l312 180q34 20 61 5zM130 690v-740l-87 50v740zM201 1049l-45 -96l-87 50l45 96z" />
    <glyph glyph-name="Dcroat" unicode="&#x110;" horiz-adv-x="615" 
d="M87 325l86 50v340l312 180q34 20 60.5 5t26.5 -55v-540q0 -26 -12.5 -56t-32 -55.5t-42.5 -38.5l-139 -80q-34 -20 -60 -5t-26 55v-100l-87 -50v300l-86 -50v100zM260 425l86 50v-100l-86 -50v-200l225 130v540l-225 -130v-240zM260 125q0 -40 26 -55l-87 50
q-26 15 -26 55zM485 795v-540l-87 50v540zM485 255l-225 -130l-87 50l225 130zM545 900q-26 15 -60 -5l-312 -180l-86 50l311 180q35 20 61 5zM173 375l-86 -50l-87 50l87 50zM173 275v-300l-86 50v300zM346 475l-86 -50l-87 50l87 50zM173 715v-340l-86 50v340zM87 325
v-100l-87 50v100z" />
    <glyph glyph-name="E" unicode="E" horiz-adv-x="563" 
d="M130 550q0 27 12 56.5t32 55t43 38.5l303 175v-100l-303 -175v-220l303 175v-100l-303 -175v-220l303 175v-100l-303 -175q-35 -20 -61 -5t-26 55v540zM520 235l-303 -175l-87 50l303 175zM520 555l-303 -175l-87 50l303 175zM520 875l-303 -175q-23 -13 -43 -38.5
t-32 -55t-12 -56.5v-540q0 -40 26 -55l-87 50q-26 15 -26 55v540q0 27 12 56.5t32 55t43 38.5l303 175z" />
    <glyph glyph-name="Eacute" unicode="&#xc9;" horiz-adv-x="563" 
d="M130 550q0 27 12 56.5t32 55t43 38.5l303 175v-100l-303 -175v-220l303 175v-100l-303 -175v-220l303 175v-100l-303 -175q-35 -20 -61 -5t-26 55v540zM190 881l207 252l46 -61l-207 -252zM520 235l-303 -175l-87 50l303 175zM520 555l-303 -175l-87 50l303 175zM520 875
l-303 -175q-23 -13 -43 -38.5t-32 -55t-12 -56.5v-540q0 -40 26 -55l-87 50q-26 15 -26 55v540q0 27 12 56.5t32 55t43 38.5l303 175zM397 1133l-207 -252l-87 50l207 252zM190 881l46 -61l-87 50l-46 61z" />
    <glyph glyph-name="Ecaron" unicode="&#x11a;" horiz-adv-x="563" 
d="M130 550q0 27 12 56.5t32 55t43 38.5l303 175v-100l-303 -175v-220l303 175v-100l-303 -175v-220l303 175v-100l-303 -175q-35 -20 -61 -5t-26 55v540zM345 888l-185 27l45 97l119 -26l118 163l51 -59zM520 235l-303 -175l-87 50l303 175zM520 555l-303 -175l-87 50
l303 175zM520 875l-303 -175q-23 -13 -43 -38.5t-32 -55t-12 -56.5v-540q0 -40 26 -55l-87 50q-26 15 -26 55v540q0 27 12 56.5t32 55t43 38.5l303 175zM442 1149l-118 -163l-87 50l119 163zM324 986l-119 26l-86 50l118 -26zM205 1012l-45 -97l-86 50l45 97z" />
    <glyph glyph-name="Ecircumflex" unicode="&#xca;" horiz-adv-x="563" 
d="M130 550q0 27 12 56.5t32 55t43 38.5l303 175v-100l-303 -175v-220l303 175v-100l-303 -175v-220l303 175v-100l-303 -175q-35 -20 -61 -5t-26 55v540zM346 998l-131 -180l-48 52l166 228l167 -36l-42 -90zM520 235l-303 -175l-87 50l303 175zM500 1062l-167 36l-86 50
l166 -36zM520 555l-303 -175l-87 50l303 175zM520 875l-303 -175q-23 -13 -43 -38.5t-32 -55t-12 -56.5v-540q0 -40 26 -55l-87 50q-26 15 -26 55v540q0 27 12 56.5t32 55t43 38.5l303 175zM333 1098l-166 -228l-86 50l166 228zM167 870l48 -52l-87 50l-47 52z" />
    <glyph glyph-name="Edieresis" unicode="&#xcb;" horiz-adv-x="563" 
d="M130 550q0 27 12 56.5t32 55t43 38.5l303 175v-100l-303 -175v-220l303 175v-100l-303 -175v-220l303 175v-100l-303 -175q-35 -20 -61 -5t-26 55v540zM217 810q-27 -15 -44 -5t-17 40t17 60t44 45q26 15 43 5t17 -40t-17 -60t-43 -45zM433 935q-26 -15 -43.5 -5
t-17.5 40t17.5 60t43.5 45t43.5 5t17.5 -40t-17.5 -60t-43.5 -45zM520 235l-303 -175l-87 50l303 175zM520 555l-303 -175l-87 50l303 175zM520 875l-303 -175q-23 -13 -43 -38.5t-32 -55t-12 -56.5v-540q0 -40 26 -55l-87 50q-26 15 -26 55v540q0 27 12 56.5t32 55t43 38.5
l303 175zM260 955q-17 10 -43 -5q-27 -15 -44 -45t-17 -60t17 -40l-87 50q-17 10 -17 40t17.5 60t43.5 45t43 5zM477 1080q-18 10 -44 -5t-43.5 -45t-17.5 -60t18 -40l-87 50q-17 10 -17 40t17 60t43 45q27 15 44 5z" />
    <glyph glyph-name="Edotaccent" unicode="&#x116;" horiz-adv-x="563" 
d="M130 550q0 27 12 56.5t32 55t43 38.5l303 175v-100l-303 -175v-220l303 175v-100l-303 -175v-220l303 175v-100l-303 -175q-35 -20 -61 -5t-26 55v540zM333 878q-26 -16 -43 -6t-17 41q0 30 17 59.5t43 45.5q27 15 44 5t17 -40q0 -31 -17 -60.5t-44 -44.5zM520 235
l-303 -175l-87 50l303 175zM520 555l-303 -175l-87 50l303 175zM520 875l-303 -175q-23 -13 -43 -38.5t-32 -55t-12 -56.5v-540q0 -40 26 -55l-87 50q-26 15 -26 55v540q0 27 12 56.5t32 55t43 38.5l303 175zM377 1023q-17 10 -44 -5q-26 -16 -43 -45.5t-17 -59.5
q0 -31 17 -41l-87 50q-17 10 -17 41q0 30 17 59.5t44 45.5q26 15 43 5z" />
    <glyph glyph-name="Egrave" unicode="&#xc8;" horiz-adv-x="563" 
d="M130 550q0 27 12 56.5t32 55t43 38.5l303 175v-100l-303 -175v-220l303 175v-100l-303 -175v-220l303 175v-100l-303 -175q-35 -20 -61 -5t-26 55v540zM211 1074l241 -57l-49 -103l-241 56zM520 235l-303 -175l-87 50l303 175zM452 1017l-241 57l-86 50l240 -57zM520 555
l-303 -175l-87 50l303 175zM520 875l-303 -175q-23 -13 -43 -38.5t-32 -55t-12 -56.5v-540q0 -40 26 -55l-87 50q-26 15 -26 55v540q0 27 12 56.5t32 55t43 38.5l303 175zM211 1074l-49 -104l-87 50l50 104z" />
    <glyph glyph-name="Emacron" unicode="&#x112;" horiz-adv-x="563" 
d="M130 550q0 27 12 56.5t32 55t43 38.5l303 175v-100l-303 -175v-220l303 175v-100l-303 -175v-220l303 175v-100l-303 -175q-35 -20 -61 -5t-26 55v540zM156 895l303 175v-100l-303 -175v100zM520 235l-303 -175l-87 50l303 175zM520 555l-303 -175l-87 50l303 175z
M520 875l-303 -175q-23 -13 -43 -38.5t-32 -55t-12 -56.5v-540q0 -40 26 -55l-87 50q-26 15 -26 55v540q0 27 12 56.5t32 55t43 38.5l303 175zM459 1070l-303 -175l-87 50l303 175zM156 895v-100l-87 50v100z" />
    <glyph glyph-name="Eng" unicode="&#x14a;" horiz-adv-x="693" 
d="M563 200l-130 -75q-34 -20 -60.5 -5t-26.5 55v500l-129 -75v-600l-87 -50v700l216 125q35 20 61 5t26 -55v-500l130 75v600l87 50v-800q0 -26 -12.5 -56t-32 -55.5t-42.5 -38.5l-87 -50v100l87 50v100zM563 200v-100l-87 50v100zM563 100l-87 -50l-86 50l86 50zM476 50
v-100l-86 50v100zM650 950l-87 -50l-87 50l87 50zM563 900v-600l-87 50v600zM563 300l-130 -75l-87 50l130 75zM346 675v-500q0 -40 26 -55l-86 50q-26 15 -26 55v500zM407 780q-26 15 -61 -5l-216 -125l-87 50l217 125q34 20 60 5zM130 650v-700l-87 50v700z" />
    <glyph glyph-name="Eogonek" unicode="&#x118;" horiz-adv-x="563" 
d="M433 85v-100l87 50v-100l-87 -50q-34 -20 -60.5 -5t-26.5 55q0 27 12.5 56.5t32 55t42.5 38.5l-216 -125q-35 -20 -61 -5t-26 55v540q0 27 12 56.5t32 55t43 38.5l303 175v-100l-303 -175v-220l303 175v-100l-303 -175v-220l303 175v-100zM520 35l-87 -50l-87 50l87 50z
M433 85q-23 -13 -42.5 -38.5t-32 -55t-12.5 -56.5q0 -40 26 -55l-86 50q-26 15 -26 55q0 26 12 56t31.5 55.5t42.5 38.5zM520 235l-303 -175l-87 50l303 175zM520 555l-303 -175l-87 50l303 175zM520 875l-303 -175q-23 -13 -43 -38.5t-32 -55t-12 -56.5v-540q0 -40 26 -55
l-87 50q-26 15 -26 55v540q0 27 12 56.5t32 55t43 38.5l303 175z" />
    <glyph glyph-name="Eth" unicode="&#xd0;" horiz-adv-x="615" 
d="M87 325l86 50v340l312 180q34 20 60.5 5t26.5 -55v-540q0 -26 -12.5 -56t-32 -55.5t-42.5 -38.5l-139 -80q-34 -20 -60 -5t-26 55v-100l-87 -50v300l-86 -50v100zM260 425l86 50v-100l-86 -50v-200l225 130v540l-225 -130v-240zM260 125q0 -40 26 -55l-87 50
q-26 15 -26 55zM485 795v-540l-87 50v540zM485 255l-225 -130l-87 50l225 130zM545 900q-26 15 -60 -5l-312 -180l-86 50l311 180q35 20 61 5zM173 375l-86 -50l-87 50l87 50zM173 275v-300l-86 50v300zM346 475l-86 -50l-87 50l87 50zM173 715v-340l-86 50v340zM87 325
v-100l-87 50v100z" />
    <glyph glyph-name="Euro" unicode="&#x20ac;" horiz-adv-x="675" 
d="M260 625l286 165q34 20 60 5t26 -55v-100l-86 -50v100l-286 -165v-120l182 105v-100l-182 -105v-40l182 105v-100l-182 -105v-120l286 165v100l86 50v-100q0 -26 -12 -56t-31.5 -55.5t-42.5 -38.5l-286 -165q-35 -20 -61 -5t-26 55v120l-86 -50v100l86 50v40l-86 -50v100
l86 50v120q0 27 12 56.5t32 55t43 38.5zM632 360l-86 -50l-87 50l87 50zM546 310v-100l-87 50v100zM546 210l-286 -165l-87 50l286 165zM546 690v-100l-87 50v100zM173 255v-40l-86 50v40zM173 215l-86 -50l-87 50l87 50zM173 115v-120q0 -40 26 -55l-86 50q-26 15 -26 55
v120zM442 370l-182 -105l-87 50l182 105zM173 355l-86 -50l-87 50l87 50zM87 305v-100l-87 50v100zM87 165v-100l-87 50v100zM442 510l-182 -105l-87 50l182 105zM606 795q-26 15 -60 -5l-286 -165q-23 -13 -43 -38.5t-32 -55t-12 -56.5v-120l-86 50v120q0 27 12 56.5
t31.5 55t42.5 38.5l286 165q34 20 61 5z" />
    <glyph glyph-name="G" unicode="G" horiz-adv-x="563" 
d="M217 740l216 125q34 20 60.5 5t26.5 -55v-100l-87 -50v100l-216 -125v-580l216 125v240l-130 -75v100l217 125v-440l-87 -50v100q0 -26 -12 -56t-32 -55.5t-43 -38.5l-129 -75q-35 -20 -61 -5t-26 55v580q0 27 12 56.5t32 55t43 38.5zM433 185v-100l-87 50v100zM433 425
v-240l-87 50v240zM433 765v-100l-87 50v100zM520 575l-217 -125l-86 50l216 125zM303 450v-100l-86 50v100zM433 185l-216 -125l-87 50l216 125zM494 870q-27 15 -61 -5l-216 -125q-23 -13 -43 -38.5t-32 -55t-12 -56.5v-580q0 -40 26 -55l-87 50q-26 15 -26 55v580
q0 27 12 56.5t32 55t43 38.5l216 125q35 20 61 5z" />
    <glyph glyph-name="Gbreve" unicode="&#x11e;" horiz-adv-x="563" 
d="M217 740l216 125q34 20 60.5 5t26.5 -55v-100l-87 -50v100l-216 -125v-580l216 125v240l-130 -75v100l217 125v-440l-87 -50v100q0 -26 -12 -56t-32 -55.5t-43 -38.5l-129 -75q-35 -20 -61 -5t-26 55v580q0 27 12 56.5t32 55t43 38.5zM325 913q-46 -27 -85.5 -22
t-63.5 37t-24 85l86 50q0 -40 26 -55t61 5q23 13 42.5 38t31.5 55t12 57l87 50q0 -40 -14 -84t-38 -86t-55.5 -76.5t-65.5 -53.5zM433 185v-100l-87 50v100zM433 425v-240l-87 50v240zM433 765v-100l-87 50v100zM498 1213l-87 -50l-86 50l86 50zM411 1163q0 -27 -12 -57
t-31.5 -55t-42.5 -38q-35 -20 -61 -5l-86 50q26 -15 60 5q23 13 43 38t32 55t12 57zM520 575l-217 -125l-86 50l216 125zM303 450v-100l-86 50v100zM433 185l-216 -125l-87 50l216 125zM494 870q-27 15 -61 -5l-216 -125q-23 -13 -43 -38.5t-32 -55t-12 -56.5v-580
q0 -40 26 -55l-87 50q-26 15 -26 55v580q0 27 12 56.5t32 55t43 38.5l216 125q35 20 61 5zM238 1063l-86 -50l-87 50l87 50zM152 1013q0 -40 14 -68t38 -42l-87 50q-24 14 -38 42t-14 68z" />
    <glyph glyph-name="Gcaron" unicode="&#x1e6;" horiz-adv-x="563" 
d="M217 740l216 125q34 20 60.5 5t26.5 -55v-100l-87 -50v100l-216 -125v-580l216 125v240l-130 -75v100l217 125v-440l-87 -50v100q0 -26 -12 -56t-32 -55.5t-43 -38.5l-129 -75q-35 -20 -61 -5t-26 55v580q0 27 12 56.5t32 55t43 38.5zM349 931l-184 27l45 96l118 -26
l119 163l51 -58zM433 185v-100l-87 50v100zM433 425v-240l-87 50v240zM433 765v-100l-87 50v100zM447 1191l-119 -163l-86 50l118 163zM328 1028l-118 26l-87 50l119 -26zM520 575l-217 -125l-86 50l216 125zM303 450v-100l-86 50v100zM433 185l-216 -125l-87 50l216 125z
M494 870q-27 15 -61 -5l-216 -125q-23 -13 -43 -38.5t-32 -55t-12 -56.5v-580q0 -40 26 -55l-87 50q-26 15 -26 55v580q0 27 12 56.5t32 55t43 38.5l216 125q35 20 61 5zM210 1054l-45 -96l-87 50l45 96z" />
    <glyph glyph-name="Gcircumflex" unicode="&#x11c;" horiz-adv-x="563" 
d="M217 740l216 125q34 20 60.5 5t26.5 -55v-100l-87 -50v100l-216 -125v-580l216 125v240l-130 -75v100l217 125v-440l-87 -50v100q0 -26 -12 -56t-32 -55.5t-43 -38.5l-129 -75q-35 -20 -61 -5t-26 55v580q0 27 12 56.5t32 55t43 38.5zM337 1033l-131 -180l-48 52l167 228
l166 -36l-41 -90zM433 185v-100l-87 50v100zM433 425v-240l-87 50v240zM433 765v-100l-87 50v100zM491 1097l-166 36l-87 50l166 -36zM520 575l-217 -125l-86 50l216 125zM303 450v-100l-86 50v100zM433 185l-216 -125l-87 50l216 125zM494 870q-27 15 -61 -5l-216 -125
q-23 -13 -43 -38.5t-32 -55t-12 -56.5v-580q0 -40 26 -55l-87 50q-26 15 -26 55v580q0 27 12 56.5t32 55t43 38.5l216 125q35 20 61 5zM325 1133l-167 -228l-86 50l166 228zM158 905l48 -52l-86 50l-48 52z" />
    <glyph glyph-name="Gdotaccent" unicode="&#x120;" horiz-adv-x="563" 
d="M217 740l216 125q34 20 60.5 5t26.5 -55v-100l-87 -50v100l-216 -125v-580l216 125v240l-130 -75v100l217 125v-440l-87 -50v100q0 -26 -12 -56t-32 -55.5t-43 -38.5l-129 -75q-35 -20 -61 -5t-26 55v580q0 27 12 56.5t32 55t43 38.5zM333 918q-26 -16 -43 -6t-17 41
q0 30 17 59.5t43 45.5q27 15 44 5t17 -40q0 -31 -17 -60.5t-44 -44.5zM433 185v-100l-87 50v100zM433 425v-240l-87 50v240zM433 765v-100l-87 50v100zM520 575l-217 -125l-86 50l216 125zM303 450v-100l-86 50v100zM433 185l-216 -125l-87 50l216 125zM494 870
q-27 15 -61 -5l-216 -125q-23 -13 -43 -38.5t-32 -55t-12 -56.5v-580q0 -40 26 -55l-87 50q-26 15 -26 55v580q0 27 12 56.5t32 55t43 38.5l216 125q35 20 61 5zM377 1063q-17 10 -44 -5q-26 -16 -43 -45.5t-17 -59.5q0 -31 17 -41l-87 50q-17 10 -17 41q0 30 17 59.5
t44 45.5q26 15 43 5z" />
    <glyph glyph-name="H" unicode="H" horiz-adv-x="563" 
d="M217 700v-300l216 125v300l87 50v-700l-87 -50v300l-216 -125v-300l-87 -50v700zM433 425v-300l-87 50v300zM520 875l-87 -50l-87 50l87 50zM433 825v-300l-87 50v300zM433 525l-216 -125l-87 50l216 125zM217 700l-87 -50l-87 50l87 50zM130 650v-700l-87 50v700z" />
    <glyph glyph-name="Hbar" unicode="&#x126;" horiz-adv-x="650" 
d="M87 555l86 50v70l87 50v-70l216 125v70l87 50v-70l87 50v-100l-87 -50v-530l-87 -50v300l-216 -125v-300l-87 -50v530l-86 -50v100zM476 550v130l-216 -125v-130zM476 450v-300l-86 50v300zM650 880l-87 -50l-87 50l87 50zM476 850v-70l-86 50v70zM476 680v-130l-86 50
v130zM563 900l-87 -50l-86 50l86 50zM476 550l-216 -125l-87 50l217 125zM173 675v-70l-86 50v70zM173 605l-86 -50l-87 50l87 50zM173 505v-530l-86 50v530zM476 780l-216 -125l-87 50l217 125zM260 725l-87 -50l-86 50l86 50zM87 555v-100l-87 50v100z" />
    <glyph glyph-name="Hcircumflex" unicode="&#x124;" horiz-adv-x="563" 
d="M217 700v-300l216 125v300l87 50v-700l-87 -50v300l-216 -125v-300l-87 -50v700zM337 993l-131 -180l-48 52l167 228l166 -36l-41 -90zM433 425v-300l-87 50v300zM520 875l-87 -50l-87 50l87 50zM433 825v-300l-87 50v300zM491 1057l-166 36l-87 50l166 -36zM433 525
l-216 -125l-87 50l216 125zM325 1093l-167 -228l-86 50l166 228zM158 865l48 -52l-86 50l-48 52zM217 700l-87 -50l-87 50l87 50zM130 650v-700l-87 50v700z" />
    <glyph glyph-name="I" unicode="I" horiz-adv-x="572" 
d="M286 140v500l-156 -90v100l398 230v-100l-156 -90v-500l156 90v-100l-398 -230v100zM286 140l-156 -90l-87 50l156 90zM130 50v-100l-87 50v100zM528 280l-156 -90l-86 50l156 90zM286 640v-500l-87 50v500zM528 880l-398 -230l-87 50l399 230zM130 650v-100l-87 50v100z
" />
    <glyph glyph-name="IJ" unicode="&#x132;" horiz-adv-x="563" 
d="M303 750l217 125v-640q0 -26 -12.5 -56t-32 -55.5t-42.5 -38.5l-216 -125q-35 -20 -61 -5t-26 55v140l87 50v-140l216 125v640q0 -26 -12 -56t-32 -55.5t-43 -38.5l-43 -25v100zM130 650l87 50v-400l-87 -50v400zM433 825v-640l-87 50v640zM433 185l-216 -125l-87 50
l216 125zM520 875l-217 -125l-86 50l216 125zM303 750v-100l-86 50v100zM217 200l-87 -50l-87 50l87 50zM130 150v-140q0 -40 26 -55l-87 50q-26 15 -26 55v140zM217 700l-87 -50l-87 50l87 50zM130 650v-400l-87 50v400z" />
    <glyph glyph-name="IJ_acutecomb.ccmp" horiz-adv-x="563" 
d="M303 750l217 125v-640q0 -26 -12.5 -56t-32 -55.5t-42.5 -38.5l-216 -125q-35 -20 -61 -5t-26 55v140l87 50v-140l216 125v640q0 -26 -12 -56t-32 -55.5t-43 -38.5l-43 -25v100zM130 650l87 50v-400l-87 -50v400zM190 882l207 252l46 -61l-207 -252zM433 825v-640l-87 50
v640zM433 185l-216 -125l-87 50l216 125zM520 875l-217 -125l-86 50l216 125zM303 750v-100l-86 50v100zM217 200l-87 -50l-87 50l87 50zM130 150v-140q0 -40 26 -55l-87 50q-26 15 -26 55v140zM217 700l-87 -50l-87 50l87 50zM130 650v-400l-87 50v400zM397 1134l-207 -252
l-87 50l207 252zM190 882l46 -61l-87 50l-46 61z" />
    <glyph glyph-name="Iacute" unicode="&#xcd;" horiz-adv-x="572" 
d="M286 140v500l-156 -90v100l398 230v-100l-156 -90v-500l156 90v-100l-398 -230v100zM198 886l207 252l46 -61l-207 -252zM286 140l-156 -90l-87 50l156 90zM130 50v-100l-87 50v100zM528 280l-156 -90l-86 50l156 90zM286 640v-500l-87 50v500zM528 880l-398 -230l-87 50
l399 230zM130 650v-100l-87 50v100zM405 1138l-207 -252l-86 50l207 252zM198 886l46 -61l-86 50l-46 61z" />
    <glyph glyph-name="Icircumflex" unicode="&#xce;" horiz-adv-x="572" 
d="M286 140v500l-156 -90v100l398 230v-100l-156 -90v-500l156 90v-100l-398 -230v100zM342 995l-132 -179l-47 51l166 228l166 -36l-41 -90zM286 140l-156 -90l-87 50l156 90zM130 50v-100l-87 50v100zM528 280l-156 -90l-86 50l156 90zM495 1059l-166 36l-87 50l167 -36z
M286 640v-500l-87 50v500zM528 880l-398 -230l-87 50l399 230zM130 650v-100l-87 50v100zM329 1095l-166 -228l-87 50l166 228zM163 867l47 -51l-86 50l-48 51z" />
    <glyph glyph-name="Idieresis" unicode="&#xcf;" horiz-adv-x="572" 
d="M286 140v500l-156 -90v100l398 230v-100l-156 -90v-500l156 90v-100l-398 -230v100zM217 810q-27 -15 -44 -5t-17 40t17 60t44 45q26 15 43 5t17 -40t-17 -60t-43 -45zM433 935q-26 -15 -43.5 -5t-17.5 40t17.5 60t43.5 45t43.5 5t17.5 -40t-17.5 -60t-43.5 -45zM286 140
l-156 -90l-87 50l156 90zM130 50v-100l-87 50v100zM528 280l-156 -90l-86 50l156 90zM286 640v-500l-87 50v500zM528 880l-398 -230l-87 50l399 230zM130 650v-100l-87 50v100zM260 955q-17 10 -43 -5q-27 -15 -44 -45t-17 -60t17 -40l-87 50q-17 10 -17 40t17.5 60t43.5 45
t43 5zM477 1080q-18 10 -44 -5t-43.5 -45t-17.5 -60t18 -40l-87 50q-17 10 -17 40t17 60t43 45q27 15 44 5z" />
    <glyph glyph-name="Idotaccent" unicode="&#x130;" horiz-adv-x="572" 
d="M286 140v500l-156 -90v100l398 230v-100l-156 -90v-500l156 90v-100l-398 -230v100zM329 875q-26 -15 -43.5 -5t-17.5 40t17.5 60t43.5 45t43.5 5t17.5 -40t-17.5 -60t-43.5 -45zM286 140l-156 -90l-87 50l156 90zM130 50v-100l-87 50v100zM528 280l-156 -90l-86 50
l156 90zM286 640v-500l-87 50v500zM528 880l-398 -230l-87 50l399 230zM130 650v-100l-87 50v100zM373 1020q-18 10 -44 -5t-43.5 -45t-17.5 -60t18 -40l-87 50q-17 10 -17 40t17 60t43 45q27 15 44 5z" />
    <glyph glyph-name="Igrave" unicode="&#xcc;" horiz-adv-x="572" 
d="M286 140v500l-156 -90v100l398 230v-100l-156 -90v-500l156 90v-100l-398 -230v100zM215 1076l241 -57l-50 -103l-241 56zM286 140l-156 -90l-87 50l156 90zM130 50v-100l-87 50v100zM528 280l-156 -90l-86 50l156 90zM456 1019l-241 57l-87 50l241 -57zM286 640v-500
l-87 50v500zM528 880l-398 -230l-87 50l399 230zM130 650v-100l-87 50v100zM215 1076l-50 -104l-86 50l49 104z" />
    <glyph glyph-name="Imacron" unicode="&#x12a;" horiz-adv-x="572" 
d="M286 140v500l-156 -90v100l398 230v-100l-156 -90v-500l156 90v-100l-398 -230v100zM156 895l303 175v-100l-303 -175v100zM286 140l-156 -90l-87 50l156 90zM130 50v-100l-87 50v100zM528 280l-156 -90l-86 50l156 90zM286 640v-500l-87 50v500zM528 880l-398 -230
l-87 50l399 230zM130 650v-100l-87 50v100zM459 1070l-303 -175l-87 50l303 175zM156 895v-100l-87 50v100z" />
    <glyph glyph-name="Iogonek" unicode="&#x12e;" horiz-adv-x="572" 
d="M442 130v-100l86 50v-100l-86 -50q-35 -20 -61 -5t-26 55q0 27 12 56.5t32 55t43 38.5l-312 -180v100l156 90v500l-156 -90v100l398 230v-100l-156 -90v-500l156 90v-100zM528 280l-156 -90l-86 50l156 90zM130 50v-100l-87 50v100zM528 80l-86 -50l-87 50l87 50z
M442 130q-23 -13 -43 -38.5t-32 -55t-12 -56.5q0 -40 26 -55l-86 50q-27 15 -27 55q0 27 12.5 56.5t32 55t42.5 38.5zM286 640v-500l-87 50v500zM286 140l-156 -90l-87 50l156 90zM528 880l-398 -230l-87 50l399 230zM130 650v-100l-87 50v100z" />
    <glyph glyph-name="Itilde" unicode="&#x128;" horiz-adv-x="572" 
d="M286 140v500l-156 -90v100l398 230v-100l-156 -90v-500l156 90v-100l-398 -230v100zM192 797l-69 24l79 160q21 43 51 60t63 6l68 -24l65 131l68 -25l-78 -159q-22 -44 -51.5 -61t-63.5 -5l-67 23zM286 140l-156 -90l-87 50l156 90zM130 50v-100l-87 50v100zM528 280
l-156 -90l-86 50l156 90zM517 1129l-68 25l-87 50l68 -25zM449 1154l-65 -131l-87 50l65 131zM286 640v-500l-87 50v500zM528 880l-398 -230l-87 50l399 230zM130 650v-100l-87 50v100zM384 1023l-68 24q-33 11 -63 -6t-51 -60l-79 -160l-87 50l79 160q22 43 51.5 60t62.5 6
l68 -24z" />
    <glyph glyph-name="J" unicode="J" horiz-adv-x="563" 
d="M217 700l303 175v-640q0 -26 -12.5 -56t-32 -55.5t-42.5 -38.5l-216 -125q-35 -20 -61 -5t-26 55v240l87 50v-240l216 125v640q0 -26 -12 -56t-32 -55.5t-43 -38.5l-129 -75v100zM433 825v-640l-87 50v640zM433 185l-216 -125l-87 50l216 125zM520 875l-303 -175l-87 50
l303 175zM217 700v-100l-87 50v100zM217 300l-87 -50l-87 50l87 50zM130 250v-240q0 -40 26 -55l-87 50q-26 15 -26 55v240z" />
    <glyph glyph-name="Jcircumflex" unicode="&#x134;" horiz-adv-x="563" 
d="M217 700l303 175v-640q0 -26 -12.5 -56t-32 -55.5t-42.5 -38.5l-216 -125q-35 -20 -61 -5t-26 55v240l87 50v-240l216 125v640q0 -26 -12 -56t-32 -55.5t-43 -38.5l-129 -75v100zM381 1018l-132 -180l-47 52l166 228l166 -36l-41 -90zM433 825v-640l-87 50v640zM433 185
l-216 -125l-87 50l216 125zM534 1082l-166 36l-87 50l167 -36zM520 875l-303 -175l-87 50l303 175zM217 700v-100l-87 50v100zM217 300l-87 -50l-87 50l87 50zM130 250v-240q0 -40 26 -55l-87 50q-26 15 -26 55v240zM368 1118l-166 -228l-87 50l166 228zM202 890l47 -52
l-86 50l-48 52z" />
    <glyph glyph-name="K" unicode="K" horiz-adv-x="563" 
d="M130 650l87 50v-300l216 125v300l87 50v-200q0 -26 -12.5 -56t-32 -55.5t-42.5 -38.5q34 20 60.5 5t26.5 -55v-300l-87 -50v300l-216 -125v-300l-87 -50v700zM433 425v-300l-87 50v300zM494 530q-27 15 -61 -5l-87 50q35 20 61 5zM520 875l-87 -50l-87 50l87 50zM433 825
v-300l-87 50v300zM433 525l-216 -125l-87 50l216 125zM217 700l-87 -50l-87 50l87 50zM130 650v-700l-87 50v700z" />
    <glyph glyph-name="L" unicode="L" horiz-adv-x="476" 
d="M217 60l216 125v-100l-216 -125q-35 -20 -61 -5t-26 55v790l87 50v-790zM217 850l-87 -50l-87 50l87 50zM433 185l-216 -125l-87 50l216 125zM130 800v-790q0 -40 26 -55l-87 50q-26 15 -26 55v790z" />
    <glyph glyph-name="Lacute" unicode="&#x139;" horiz-adv-x="476" 
d="M217 60l216 125v-100l-216 -125q-35 -20 -61 -5t-26 55v790l87 50v-790zM103 931l207 252l46 -61l-207 -252zM217 850l-87 -50l-87 50l87 50zM433 185l-216 -125l-87 50l216 125zM310 1183l-207 -252l-87 50l207 252zM130 800v-790q0 -40 26 -55l-87 50q-26 15 -26 55
v790zM103 931l46 -61l-87 50l-46 61z" />
    <glyph glyph-name="Lcaron" unicode="&#x13d;" horiz-adv-x="476" 
d="M217 60l216 125v-100l-216 -125q-35 -20 -61 -5t-26 55v790l87 50v-790zM390 650q-35 -20 -61 -5t-26 55v200l87 50v-300zM433 185l-216 -125l-87 50l216 125zM390 950l-87 -50l-86 50l86 50zM303 900v-200q0 -40 26 -55l-86 50q-26 15 -26 55v200zM217 850l-87 -50
l-87 50l87 50zM130 800v-790q0 -40 26 -55l-87 50q-26 15 -26 55v790z" />
    <glyph glyph-name="Lslash" unicode="&#x141;" 
d="M71 260l102 104v461l87 50v-423l85 86l36 -84l-121 -123v-246l216 125v-100l-216 -125q-35 -20 -61 -5t-26 55v208l-66 -67zM260 875l-87 -50l-86 50l86 50zM476 210l-216 -125l-87 50l217 125zM345 538l-85 -86l-87 50l85 86zM173 825v-461l-86 50v461zM173 243v-208
q0 -40 26 -55l-86 50q-26 15 -26 55v208zM173 364l-102 -104l-87 50l103 104zM71 260l36 -84l-86 50l-37 84z" />
    <glyph glyph-name="M" unicode="M" horiz-adv-x="693" 
d="M217 740l346 200q34 20 60.5 5t26.5 -55v-640l-87 -50v640l-130 -75v-640l-87 -50v640l-129 -75v-640l-87 -50v640q0 27 12 56.5t32 55t43 38.5zM563 840v-640l-87 50v640zM346 715v-640l-86 50v640zM623 945q-26 15 -60 -5l-346 -200q-23 -13 -43 -38.5t-32 -55
t-12 -56.5v-640l-87 50v640q0 27 12 56.5t32 55t43 38.5l346 200q35 20 61 5z" />
    <glyph glyph-name="N" unicode="N" horiz-adv-x="693" 
d="M346 775q35 20 61 5t26 -55v-500l130 75v600l87 50v-700l-217 -125q-34 -20 -60.5 -5t-26.5 55v500l-129 -75v-600l-87 -50v700zM650 950l-87 -50l-87 50l87 50zM563 900v-600l-87 50v600zM563 300l-130 -75l-87 50l130 75zM346 675v-500q0 -40 26 -55l-86 50
q-26 15 -26 55v500zM407 780q-26 15 -61 -5l-216 -125l-87 50l217 125q34 20 60 5zM130 650v-700l-87 50v700z" />
    <glyph glyph-name="Nacute" unicode="&#x143;" horiz-adv-x="693" 
d="M346 775q35 20 61 5t26 -55v-500l130 75v600l87 50v-700l-217 -125q-34 -20 -60.5 -5t-26.5 55v500l-129 -75v-600l-87 -50v700zM250 916l207 252l46 -61l-207 -252zM650 950l-87 -50l-87 50l87 50zM563 900v-600l-87 50v600zM563 300l-130 -75l-87 50l130 75zM346 675
v-500q0 -40 26 -55l-86 50q-26 15 -26 55v500zM457 1168l-207 -252l-86 50l207 252zM250 916l46 -61l-86 50l-46 61zM407 780q-26 15 -61 -5l-216 -125l-87 50l217 125q34 20 60 5zM130 650v-700l-87 50v700z" />
    <glyph glyph-name="Ncaron" unicode="&#x147;" horiz-adv-x="693" 
d="M346 775q35 20 61 5t26 -55v-500l130 75v600l87 50v-700l-217 -125q-34 -20 -60.5 -5t-26.5 55v500l-129 -75v-600l-87 -50v700zM405 923l-184 27l45 97l119 -26l118 163l51 -59zM650 950l-87 -50l-87 50l87 50zM563 900v-600l-87 50v600zM563 300l-130 -75l-87 50
l130 75zM346 675v-500q0 -40 26 -55l-86 50q-26 15 -26 55v500zM503 1184l-118 -163l-87 50l118 163zM385 1021l-119 26l-87 50l119 -26zM266 1047l-45 -97l-87 50l45 97zM407 780q-26 15 -61 -5l-216 -125l-87 50l217 125q34 20 60 5zM130 650v-700l-87 50v700z" />
    <glyph glyph-name="Ntilde" unicode="&#xd1;" horiz-adv-x="693" 
d="M346 775q35 20 61 5t26 -55v-500l130 75v600l87 50v-700l-217 -125q-34 -20 -60.5 -5t-26.5 55v500l-129 -75v-600l-87 -50v700zM244 827l-69 24l79 160q21 43 50.5 60t63.5 6l68 -24l65 131l68 -25l-78 -159q-22 -44 -51.5 -61t-63.5 -5l-67 23zM650 950l-87 -50l-87 50
l87 50zM563 900v-600l-87 50v600zM563 300l-130 -75l-87 50l130 75zM569 1159l-68 25l-87 50l68 -25zM346 675v-500q0 -40 26 -55l-86 50q-26 15 -26 55v500zM501 1184l-65 -131l-87 50l65 131zM407 780q-26 15 -61 -5l-216 -125l-87 50l217 125q34 20 60 5zM130 650v-700
l-87 50v700zM436 1053l-68 24q-34 11 -63.5 -6t-50.5 -60l-79 -160l-87 50l79 160q22 43 51.5 60t62.5 6l68 -24z" />
    <glyph glyph-name="O" unicode="O" horiz-adv-x="563" 
d="M217 740l216 125q34 20 60.5 5t26.5 -55v-580q0 -26 -12.5 -56t-32 -55.5t-42.5 -38.5l-216 -125q-35 -20 -61 -5t-26 55v580q0 27 12 56.5t32 55t43 38.5zM217 60l216 125v580l-216 -125v-580zM433 765v-580l-87 50v580zM433 185l-216 -125l-87 50l216 125zM494 870
q-27 15 -61 -5l-216 -125q-23 -13 -43 -38.5t-32 -55t-12 -56.5v-580q0 -40 26 -55l-87 50q-26 15 -26 55v580q0 27 12 56.5t32 55t43 38.5l216 125q35 20 61 5z" />
    <glyph glyph-name="OE" unicode="&#x152;" horiz-adv-x="719" 
d="M130 550q0 27 12 56.5t32 55t43 38.5l181 105q35 20 61 5t26 -55q0 27 12 56.5t32 55t43 38.5l103 60v-100l-190 -110v-200l190 110v-100l-190 -110v-200l190 110v-100l-190 -110q-34 -20 -60.5 -5t-26.5 55v-100l-181 -105q-35 -20 -61 -5t-26 55v500zM398 705
l-181 -105v-500l181 105v500zM398 205q0 -40 26 -55l-86 50q-26 15 -26 55zM675 365l-190 -110l-87 50l191 110zM675 665l-190 -110l-87 50l191 110zM675 965l-103 -60q-23 -13 -43 -38.5t-32 -55t-12 -56.5l-87 50q0 27 12.5 56.5t32 55t42.5 38.5l104 60zM398 705v-500
l-86 50v500zM398 205l-181 -105l-87 50l182 105zM459 810q-26 15 -61 -5l-181 -105q-23 -13 -43 -38.5t-32 -55t-12 -56.5v-500q0 -40 26 -55l-87 50q-26 15 -26 55v500q0 27 12 56.5t32 55t43 38.5l182 105q34 20 60 5z" />
    <glyph glyph-name="Oacute" unicode="&#xd3;" horiz-adv-x="563" 
d="M217 740l216 125q34 20 60.5 5t26.5 -55v-580q0 -26 -12.5 -56t-32 -55.5t-42.5 -38.5l-216 -125q-35 -20 -61 -5t-26 55v580q0 27 12 56.5t32 55t43 38.5zM217 60l216 125v580l-216 -125v-580zM190 921l207 252l46 -61l-207 -252zM433 765v-580l-87 50v580zM433 185
l-216 -125l-87 50l216 125zM494 870q-27 15 -61 -5l-216 -125q-23 -13 -43 -38.5t-32 -55t-12 -56.5v-580q0 -40 26 -55l-87 50q-26 15 -26 55v580q0 27 12 56.5t32 55t43 38.5l216 125q35 20 61 5zM397 1173l-207 -252l-87 50l207 252zM190 921l46 -61l-87 50l-46 61z" />
    <glyph glyph-name="Ocircumflex" unicode="&#xd4;" horiz-adv-x="563" 
d="M217 740l216 125q34 20 60.5 5t26.5 -55v-580q0 -26 -12.5 -56t-32 -55.5t-42.5 -38.5l-216 -125q-35 -20 -61 -5t-26 55v580q0 27 12 56.5t32 55t43 38.5zM217 60l216 125v580l-216 -125v-580zM337 1033l-131 -180l-48 52l167 228l166 -36l-41 -90zM433 765v-580l-87 50
v580zM433 185l-216 -125l-87 50l216 125zM491 1097l-166 36l-87 50l166 -36zM494 870q-27 15 -61 -5l-216 -125q-23 -13 -43 -38.5t-32 -55t-12 -56.5v-580q0 -40 26 -55l-87 50q-26 15 -26 55v580q0 27 12 56.5t32 55t43 38.5l216 125q35 20 61 5zM325 1133l-167 -228
l-86 50l166 228zM158 905l48 -52l-86 50l-48 52z" />
    <glyph glyph-name="Odieresis" unicode="&#xd6;" horiz-adv-x="563" 
d="M217 740l216 125q34 20 60.5 5t26.5 -55v-580q0 -26 -12.5 -56t-32 -55.5t-42.5 -38.5l-216 -125q-35 -20 -61 -5t-26 55v580q0 27 12 56.5t32 55t43 38.5zM217 60l216 125v580l-216 -125v-580zM217 850q-27 -15 -44 -5t-17 40t17 60t44 45q26 15 43 5t17 -40t-17 -60
t-43 -45zM433 975q-26 -15 -43.5 -5t-17.5 40t17.5 60t43.5 45t43.5 5t17.5 -40t-17.5 -60t-43.5 -45zM433 765v-580l-87 50v580zM433 185l-216 -125l-87 50l216 125zM477 1120q-18 10 -44 -5t-43.5 -45t-17.5 -60t18 -40l-87 50q-17 10 -17 40t17 60t43 45q27 15 44 5z
M494 870q-27 15 -61 -5l-216 -125q-23 -13 -43 -38.5t-32 -55t-12 -56.5v-580q0 -40 26 -55l-87 50q-26 15 -26 55v580q0 27 12 56.5t32 55t43 38.5l216 125q35 20 61 5zM260 995q-17 10 -43 -5q-27 -15 -44 -45t-17 -60t17 -40l-87 50q-17 10 -17 40t17.5 60t43.5 45t43 5z
" />
    <glyph glyph-name="Ograve" unicode="&#xd2;" horiz-adv-x="563" 
d="M217 740l216 125q34 20 60.5 5t26.5 -55v-580q0 -26 -12.5 -56t-32 -55.5t-42.5 -38.5l-216 -125q-35 -20 -61 -5t-26 55v580q0 27 12 56.5t32 55t43 38.5zM217 60l216 125v580l-216 -125v-580zM210 1114l241 -57l-49 -104l-241 56zM433 765v-580l-87 50v580zM433 185
l-216 -125l-87 50l216 125zM451 1057l-241 57l-86 50l241 -57zM494 870q-27 15 -61 -5l-216 -125q-23 -13 -43 -38.5t-32 -55t-12 -56.5v-580q0 -40 26 -55l-87 50q-26 15 -26 55v580q0 27 12 56.5t32 55t43 38.5l216 125q35 20 61 5zM210 1114l-49 -105l-87 50l50 105z" />
    <glyph glyph-name="Ohungarumlaut" unicode="&#x150;" horiz-adv-x="563" 
d="M217 740l216 125q34 20 60.5 5t26.5 -55v-580q0 -26 -12.5 -56t-32 -55.5t-42.5 -38.5l-216 -125q-35 -20 -61 -5t-26 55v580q0 27 12 56.5t32 55t43 38.5zM217 60l216 125v580l-216 -125v-580zM140 869l111 209l69 -24l-110 -209zM339 984l111 209l69 -24l-110 -209z
M433 765v-580l-87 50v580zM433 185l-216 -125l-87 50l216 125zM519 1169l-69 24l-86 50l68 -24zM450 1193l-111 -209l-86 50l111 209zM494 870q-27 15 -61 -5l-216 -125q-23 -13 -43 -38.5t-32 -55t-12 -56.5v-580q0 -40 26 -55l-87 50q-26 15 -26 55v580q0 27 12 56.5
t32 55t43 38.5l216 125q35 20 61 5zM320 1054l-69 24l-86 50l68 -24zM251 1078l-111 -209l-86 50l111 209z" />
    <glyph glyph-name="Omacron" unicode="&#x14c;" horiz-adv-x="563" 
d="M217 740l216 125q34 20 60.5 5t26.5 -55v-580q0 -26 -12.5 -56t-32 -55.5t-42.5 -38.5l-216 -125q-35 -20 -61 -5t-26 55v580q0 27 12 56.5t32 55t43 38.5zM217 60l216 125v580l-216 -125v-580zM156 935l303 175v-100l-303 -175v100zM433 765v-580l-87 50v580zM433 185
l-216 -125l-87 50l216 125zM494 870q-27 15 -61 -5l-216 -125q-23 -13 -43 -38.5t-32 -55t-12 -56.5v-580q0 -40 26 -55l-87 50q-26 15 -26 55v580q0 27 12 56.5t32 55t43 38.5l216 125q35 20 61 5zM459 1110l-303 -175l-87 50l303 175zM156 935v-100l-87 50v100z" />
    <glyph glyph-name="Oslash" unicode="&#xd8;" horiz-adv-x="563" 
d="M390 100q-35 -20 -61 -5t-26 55l130 75v500q34 20 60.5 5t26.5 -55v-400q0 -27 -12.5 -56.5t-32 -55t-42.5 -38.5zM217 700l43 25q34 20 60 5t26 -55l-129 -75v-500q-35 -20 -61 -5t-26 55v400q0 27 12 56.5t32 55t43 38.5zM217 0l-87 -50v100l173 100q0 -26 -12 -56
t-32 -55.5t-42 -38.5zM433 825l87 50v-100l-174 -100q0 27 12.5 56.5t32 55t42.5 38.5zM277 435l95 55v-100l-95 -55v100zM494 730q-27 15 -61 -5l-87 50q35 20 61 5zM433 725v-500l-87 50v500zM433 225l-130 -75l-86 50l129 75zM303 150q0 -40 26 -55l-86 50q-26 15 -26 55
zM130 50v-100l-87 50v100zM303 150l-173 -100l-87 50l174 100zM520 875l-87 -50q-23 -13 -42.5 -38.5t-32 -55t-12.5 -56.5l-86 50q0 27 12 56.5t31.5 55t42.5 38.5l87 50zM372 490l-95 -55l-86 50l95 55zM277 435v-100l-86 50v100zM320 730q-26 15 -60 -5l-43 -25
q-23 -13 -43 -38.5t-32 -55t-12 -56.5v-400q0 -40 26 -55l-87 50q-26 15 -26 55v400q0 27 12 56.5t32 55t43 38.5l43 25q35 20 61 5z" />
    <glyph glyph-name="Otilde" unicode="&#xd5;" horiz-adv-x="563" 
d="M217 740l216 125q34 20 60.5 5t26.5 -55v-580q0 -26 -12.5 -56t-32 -55.5t-42.5 -38.5l-216 -125q-35 -20 -61 -5t-26 55v580q0 27 12 56.5t32 55t43 38.5zM217 60l216 125v580l-216 -125v-580zM187 834l-68 25l79 159q21 44 50.5 61t63.5 5l68 -23l64 130l69 -25
l-79 -159q-21 -43 -50.5 -60t-63.5 -6l-68 24zM433 765v-580l-87 50v580zM433 185l-216 -125l-87 50l216 125zM513 1166l-69 25l-86 50l68 -25zM444 1191l-64 -130l-87 50l65 130zM494 870q-27 15 -61 -5l-216 -125q-23 -13 -43 -38.5t-32 -55t-12 -56.5v-580q0 -40 26 -55
l-87 50q-26 15 -26 55v580q0 27 12 56.5t32 55t43 38.5l216 125q35 20 61 5zM380 1061l-68 23q-34 12 -63.5 -5t-50.5 -61l-79 -159l-87 50l79 159q21 44 51 61t63 5l68 -23z" />
    <glyph glyph-name="P" unicode="P" horiz-adv-x="563" 
d="M303 250q-34 -20 -60 -5t-26 55v-300l-87 -50v740l303 175q34 20 60.5 5t26.5 -55v-340q0 -26 -12.5 -56t-32 -55.5t-42.5 -38.5zM433 765l-216 -125v-340l216 125v340zM217 300q0 -40 26 -55l-87 50q-26 15 -26 55zM433 765v-340l-87 50v340zM433 425l-216 -125l-87 50
l216 125zM494 870q-27 15 -61 -5l-303 -175l-87 50l303 175q35 20 61 5zM130 690v-740l-87 50v740z" />
    <glyph glyph-name="Q" unicode="Q" horiz-adv-x="563" 
d="M217 740l216 125q34 20 60.5 5t26.5 -55v-480q0 -26 -12.5 -56t-32 -55.5t-42.5 -38.5l139 80v-100l-355 -205q-35 -20 -61 -5t-26 55v580q0 27 12 56.5t32 55t43 38.5zM433 185v580l-216 -125v-580zM572 265l-139 -80l-87 50l139 80zM433 185l-216 -125l-87 50l216 125z
M433 765v-580l-87 50v580zM494 870q-27 15 -61 -5l-216 -125q-23 -13 -43 -38.5t-32 -55t-12 -56.5v-580q0 -40 26 -55l-87 50q-26 15 -26 55v580q0 27 12 56.5t32 55t43 38.5l216 125q35 20 61 5z" />
    <glyph glyph-name="R" unicode="R" horiz-adv-x="563" 
d="M433 325l-216 -125v-200l-87 -50v740l303 175q34 20 60.5 5t26.5 -55v-240q0 -26 -12.5 -56t-32 -55.5t-42.5 -38.5q34 20 60.5 5t26.5 -55v-200l-87 -50v200zM433 425v340l-216 -125v-340zM433 325v-200l-87 50v200zM494 430q-27 15 -61 -5l-87 50q35 20 61 5zM433 765
v-340l-87 50v340zM433 425l-216 -125l-87 50l216 125zM494 870q-27 15 -61 -5l-303 -175l-87 50l303 175q35 20 61 5zM130 690v-740l-87 50v740z" />
    <glyph glyph-name="Racute" unicode="&#x154;" horiz-adv-x="563" 
d="M433 325l-216 -125v-200l-87 -50v740l303 175q34 20 60.5 5t26.5 -55v-240q0 -26 -12.5 -56t-32 -55.5t-42.5 -38.5q34 20 60.5 5t26.5 -55v-200l-87 -50v200zM433 425v340l-216 -125v-340zM190 921l207 252l46 -61l-207 -252zM433 325v-200l-87 50v200zM494 430
q-27 15 -61 -5l-87 50q35 20 61 5zM433 765v-340l-87 50v340zM433 425l-216 -125l-87 50l216 125zM494 870q-27 15 -61 -5l-303 -175l-87 50l303 175q35 20 61 5zM130 690v-740l-87 50v740zM397 1173l-207 -252l-87 50l207 252zM190 921l46 -61l-87 50l-46 61z" />
    <glyph glyph-name="Rcaron" unicode="&#x158;" horiz-adv-x="563" 
d="M433 325l-216 -125v-200l-87 -50v740l303 175q34 20 60.5 5t26.5 -55v-240q0 -26 -12.5 -56t-32 -55.5t-42.5 -38.5q34 20 60.5 5t26.5 -55v-200l-87 -50v200zM433 425v340l-216 -125v-340zM340 926l-184 27l45 96l119 -26l118 163l51 -58zM433 325v-200l-87 50v200z
M494 430q-27 15 -61 -5l-87 50q35 20 61 5zM438 1186l-118 -163l-87 50l119 163zM320 1023l-119 26l-87 50l119 -26zM433 765v-340l-87 50v340zM433 425l-216 -125l-87 50l216 125zM494 870q-27 15 -61 -5l-303 -175l-87 50l303 175q35 20 61 5zM130 690v-740l-87 50v740z
M201 1049l-45 -96l-87 50l45 96z" />
    <glyph glyph-name="S" unicode="S" horiz-adv-x="563" 
d="M217 300q-35 -20 -61 -5t-26 55v240q0 27 12 56.5t32 55t43 38.5l216 125q34 20 60.5 5t26.5 -55v-140l-87 -50v140l-216 -125v-240l216 125q34 20 60.5 5t26.5 -55v-240q0 -26 -12.5 -56t-32 -55.5t-42.5 -38.5l-216 -125q-35 -20 -61 -5t-26 55v100l87 50v-100l216 125
v240zM433 425v-240l-87 50v240zM433 185l-216 -125l-87 50l216 125zM433 765v-140l-87 50v140zM217 160l-87 -50l-87 50l87 50zM130 110v-100q0 -40 26 -55l-87 50q-26 15 -26 55v100zM494 530q-27 15 -61 -5l-216 -125l-87 50l216 125q35 20 61 5zM494 870q-27 15 -61 -5
l-216 -125q-23 -13 -43 -38.5t-32 -55t-12 -56.5v-240q0 -40 26 -55l-87 50q-26 15 -26 55v240q0 27 12 56.5t32 55t43 38.5l216 125q35 20 61 5z" />
    <glyph glyph-name="Sacute" unicode="&#x15a;" horiz-adv-x="563" 
d="M217 300q-35 -20 -61 -5t-26 55v240q0 27 12 56.5t32 55t43 38.5l216 125q34 20 60.5 5t26.5 -55v-140l-87 -50v140l-216 -125v-240l216 125q34 20 60.5 5t26.5 -55v-240q0 -26 -12.5 -56t-32 -55.5t-42.5 -38.5l-216 -125q-35 -20 -61 -5t-26 55v100l87 50v-100l216 125
v240zM190 921l207 252l46 -61l-207 -252zM433 425v-240l-87 50v240zM433 185l-216 -125l-87 50l216 125zM433 765v-140l-87 50v140zM217 160l-87 -50l-87 50l87 50zM130 110v-100q0 -40 26 -55l-87 50q-26 15 -26 55v100zM494 530q-27 15 -61 -5l-216 -125l-87 50l216 125
q35 20 61 5zM494 870q-27 15 -61 -5l-216 -125q-23 -13 -43 -38.5t-32 -55t-12 -56.5v-240q0 -40 26 -55l-87 50q-26 15 -26 55v240q0 27 12 56.5t32 55t43 38.5l216 125q35 20 61 5zM397 1173l-207 -252l-87 50l207 252zM190 921l46 -61l-87 50l-46 61z" />
    <glyph glyph-name="Scaron" unicode="&#x160;" horiz-adv-x="563" 
d="M217 300q-35 -20 -61 -5t-26 55v240q0 27 12 56.5t32 55t43 38.5l216 125q34 20 60.5 5t26.5 -55v-140l-87 -50v140l-216 -125v-240l216 125q34 20 60.5 5t26.5 -55v-240q0 -26 -12.5 -56t-32 -55.5t-42.5 -38.5l-216 -125q-35 -20 -61 -5t-26 55v100l87 50v-100l216 125
v240zM349 931l-184 27l45 96l118 -26l119 163l51 -58zM433 425v-240l-87 50v240zM433 185l-216 -125l-87 50l216 125zM433 765v-140l-87 50v140zM447 1191l-119 -163l-86 50l118 163zM328 1028l-118 26l-87 50l119 -26zM217 160l-87 -50l-87 50l87 50zM130 110v-100
q0 -40 26 -55l-87 50q-26 15 -26 55v100zM494 530q-27 15 -61 -5l-216 -125l-87 50l216 125q35 20 61 5zM494 870q-27 15 -61 -5l-216 -125q-23 -13 -43 -38.5t-32 -55t-12 -56.5v-240q0 -40 26 -55l-87 50q-26 15 -26 55v240q0 27 12 56.5t32 55t43 38.5l216 125
q35 20 61 5zM210 1054l-45 -96l-87 50l45 96z" />
    <glyph glyph-name="Scedilla" unicode="&#x15e;" horiz-adv-x="563" 
d="M217 300q-35 -20 -61 -5t-26 55v240q0 27 12 56.5t32 55t43 38.5l216 125q34 20 60.5 5t26.5 -55v-140l-87 -50v140l-216 -125v-240l216 125q34 20 60.5 5t26.5 -55v-240q0 -26 -12.5 -56t-32 -55.5t-42.5 -38.5l-216 -125q-35 -20 -61 -5t-26 55v100l87 50v-100l216 125
v240zM329 25q35 20 61 5t26 -55q0 -26 -12 -56t-32 -55.5t-43 -38.5l-87 -50v100l87 50v100zM433 425v-240l-87 50v240zM433 765v-140l-87 50v140zM390 30q-26 15 -61 -5l-87 50q35 20 61 5zM329 25v-100l-87 50v100zM329 -75l-87 -50l-86 50l86 50zM242 -125v-100l-86 50
v100zM433 185l-216 -125l-87 50l216 125zM494 530q-27 15 -61 -5l-216 -125l-87 50l216 125q35 20 61 5zM217 160l-87 -50l-87 50l87 50zM130 110v-100q0 -40 26 -55l-87 50q-26 15 -26 55v100zM494 870q-27 15 -61 -5l-216 -125q-23 -13 -43 -38.5t-32 -55t-12 -56.5v-240
q0 -40 26 -55l-87 50q-26 15 -26 55v240q0 27 12 56.5t32 55t43 38.5l216 125q35 20 61 5z" />
    <glyph glyph-name="Scircumflex" unicode="&#x15c;" horiz-adv-x="563" 
d="M217 300q-35 -20 -61 -5t-26 55v240q0 27 12 56.5t32 55t43 38.5l216 125q34 20 60.5 5t26.5 -55v-140l-87 -50v140l-216 -125v-240l216 125q34 20 60.5 5t26.5 -55v-240q0 -26 -12.5 -56t-32 -55.5t-42.5 -38.5l-216 -125q-35 -20 -61 -5t-26 55v100l87 50v-100l216 125
v240zM337 1033l-131 -180l-48 52l167 228l166 -36l-41 -90zM433 425v-240l-87 50v240zM433 185l-216 -125l-87 50l216 125zM433 765v-140l-87 50v140zM491 1097l-166 36l-87 50l166 -36zM217 160l-87 -50l-87 50l87 50zM130 110v-100q0 -40 26 -55l-87 50q-26 15 -26 55v100
zM494 530q-27 15 -61 -5l-216 -125l-87 50l216 125q35 20 61 5zM494 870q-27 15 -61 -5l-216 -125q-23 -13 -43 -38.5t-32 -55t-12 -56.5v-240q0 -40 26 -55l-87 50q-26 15 -26 55v240q0 27 12 56.5t32 55t43 38.5l216 125q35 20 61 5zM325 1133l-167 -228l-86 50l166 228z
M158 905l48 -52l-86 50l-48 52z" />
    <glyph glyph-name="T" unicode="T" horiz-adv-x="572" 
d="M286 640l-156 -90v100l398 230v-100l-156 -90v-690l-86 -50v690zM286 640v-690l-87 50v690zM528 880l-398 -230l-87 50l399 230zM130 650v-100l-87 50v100z" />
    <glyph glyph-name="Tcaron" unicode="&#x164;" horiz-adv-x="572" 
d="M286 640l-156 -90v100l398 230v-100l-156 -90v-690l-86 -50v690zM345 888l-185 27l45 97l119 -26l118 163l51 -59zM286 640v-690l-87 50v690zM528 880l-398 -230l-87 50l399 230zM130 650v-100l-87 50v100zM442 1149l-118 -163l-87 50l119 163zM324 986l-119 26l-86 50
l118 -26zM205 1012l-45 -97l-86 50l45 97z" />
    <glyph glyph-name="Thorn" unicode="&#xde;" horiz-adv-x="563" 
d="M217 740v-240q0 27 12 56.5t31.5 55t42.5 38.5l130 75q34 20 60.5 5t26.5 -55v-300q0 -26 -12.5 -56t-32 -55.5t-42.5 -38.5l-216 -125v-100l-87 -50v740zM433 625l-216 -125v-300l216 125v300zM433 625v-300l-87 50v300zM433 325l-216 -125l-87 50l216 125zM494 730
q-27 15 -61 -5l-130 -75q-23 -13 -42.5 -38.5t-31.5 -55t-12 -56.5l-87 50q0 27 12 56.5t32 55t43 38.5l129 75q35 20 61 5zM217 740l-87 -50l-87 50l87 50zM130 690v-740l-87 50v740z" />
    <glyph glyph-name="U" unicode="U" horiz-adv-x="563" 
d="M433 85l-216 -125q-35 -20 -61 -5t-26 55v640l87 50v-640l216 125v640l87 50v-640q0 -26 -12.5 -56t-32 -55.5t-42.5 -38.5zM520 875l-87 -50l-87 50l87 50zM433 825v-640l-87 50v640zM433 185l-216 -125l-87 50l216 125zM217 700l-87 -50l-87 50l87 50zM130 650v-640
q0 -40 26 -55l-87 50q-26 15 -26 55v640z" />
    <glyph glyph-name="Uacute" unicode="&#xda;" horiz-adv-x="563" 
d="M433 85l-216 -125q-35 -20 -61 -5t-26 55v640l87 50v-640l216 125v640l87 50v-640q0 -26 -12.5 -56t-32 -55.5t-42.5 -38.5zM190 881l207 252l46 -61l-207 -252zM520 875l-87 -50l-87 50l87 50zM433 825v-640l-87 50v640zM433 185l-216 -125l-87 50l216 125zM217 700
l-87 -50l-87 50l87 50zM130 650v-640q0 -40 26 -55l-87 50q-26 15 -26 55v640zM397 1133l-207 -252l-87 50l207 252zM190 881l46 -61l-87 50l-46 61z" />
    <glyph glyph-name="Ubreve" unicode="&#x16c;" horiz-adv-x="563" 
d="M433 85l-216 -125q-35 -20 -61 -5t-26 55v640l87 50v-640l216 125v640l87 50v-640q0 -26 -12.5 -56t-32 -55.5t-42.5 -38.5zM325 883q-46 -27 -85.5 -22t-63.5 37t-24 85l86 50q0 -40 26 -55t61 5q23 13 42.5 38t31.5 55t12 57l87 50q0 -40 -14 -84t-38 -86t-55.5 -76.5
t-65.5 -53.5zM520 875l-87 -50l-87 50l87 50zM433 825v-640l-87 50v640zM433 185l-216 -125l-87 50l216 125zM498 1183l-87 -50l-86 50l86 50zM217 700l-87 -50l-87 50l87 50zM130 650v-640q0 -40 26 -55l-87 50q-26 15 -26 55v640zM411 1133q0 -27 -12 -57t-31.5 -55
t-42.5 -38q-35 -20 -61 -5l-86 50q26 -15 60 5q23 13 43 38t32 55t12 57zM152 983q0 -40 14 -68t38 -42l-87 50q-24 14 -38 42t-14 68zM238 1033l-86 -50l-87 50l87 50z" />
    <glyph glyph-name="Ucircumflex" unicode="&#xdb;" horiz-adv-x="563" 
d="M433 85l-216 -125q-35 -20 -61 -5t-26 55v640l87 50v-640l216 125v640l87 50v-640q0 -26 -12.5 -56t-32 -55.5t-42.5 -38.5zM337 993l-131 -180l-48 52l167 228l166 -36l-41 -90zM520 875l-87 -50l-87 50l87 50zM433 825v-640l-87 50v640zM433 185l-216 -125l-87 50
l216 125zM491 1057l-166 36l-87 50l166 -36zM217 700l-87 -50l-87 50l87 50zM130 650v-640q0 -40 26 -55l-87 50q-26 15 -26 55v640zM325 1093l-167 -228l-86 50l166 228zM158 865l48 -52l-86 50l-48 52z" />
    <glyph glyph-name="Udieresis" unicode="&#xdc;" horiz-adv-x="563" 
d="M433 85l-216 -125q-35 -20 -61 -5t-26 55v640l87 50v-640l216 125v640l87 50v-640q0 -26 -12.5 -56t-32 -55.5t-42.5 -38.5zM217 810q-27 -15 -44 -5t-17 40t17 60t44 45q26 15 43 5t17 -40t-17 -60t-43 -45zM433 935q-26 -15 -43.5 -5t-17.5 40t17.5 60t43.5 45t43.5 5
t17.5 -40t-17.5 -60t-43.5 -45zM520 875l-87 -50l-87 50l87 50zM433 825v-640l-87 50v640zM433 185l-216 -125l-87 50l216 125zM217 700l-87 -50l-87 50l87 50zM130 650v-640q0 -40 26 -55l-87 50q-26 15 -26 55v640zM260 955q-17 10 -43 -5q-27 -15 -44 -45t-17 -60t17 -40
l-87 50q-17 10 -17 40t17.5 60t43.5 45t43 5zM477 1080q-18 10 -44 -5t-43.5 -45t-17.5 -60t18 -40l-87 50q-17 10 -17 40t17 60t43 45q27 15 44 5z" />
    <glyph glyph-name="Ugrave" unicode="&#xd9;" horiz-adv-x="563" 
d="M433 85l-216 -125q-35 -20 -61 -5t-26 55v640l87 50v-640l216 125v640l87 50v-640q0 -26 -12.5 -56t-32 -55.5t-42.5 -38.5zM210 1074l241 -57l-49 -104l-241 56zM520 875l-87 -50l-87 50l87 50zM433 825v-640l-87 50v640zM433 185l-216 -125l-87 50l216 125zM451 1017
l-241 57l-86 50l241 -57zM217 700l-87 -50l-87 50l87 50zM130 650v-640q0 -40 26 -55l-87 50q-26 15 -26 55v640zM210 1074l-49 -105l-87 50l50 105z" />
    <glyph glyph-name="Uhungarumlaut" unicode="&#x170;" horiz-adv-x="563" 
d="M433 85l-216 -125q-35 -20 -61 -5t-26 55v640l87 50v-640l216 125v640l87 50v-640q0 -26 -12.5 -56t-32 -55.5t-42.5 -38.5zM140 849l111 209l69 -24l-110 -209zM339 964l111 209l69 -24l-110 -209zM520 875l-87 -50l-87 50l87 50zM433 825v-640l-87 50v640zM433 185
l-216 -125l-87 50l216 125zM519 1149l-69 24l-86 50l68 -24zM217 700l-87 -50l-87 50l87 50zM130 650v-640q0 -40 26 -55l-87 50q-26 15 -26 55v640zM450 1173l-111 -209l-86 50l111 209zM320 1034l-69 24l-86 50l68 -24zM251 1058l-111 -209l-86 50l111 209z" />
    <glyph glyph-name="Umacron" unicode="&#x16a;" horiz-adv-x="563" 
d="M433 85l-216 -125q-35 -20 -61 -5t-26 55v640l87 50v-640l216 125v640l87 50v-640q0 -26 -12.5 -56t-32 -55.5t-42.5 -38.5zM156 895l303 175v-100l-303 -175v100zM520 875l-87 -50l-87 50l87 50zM433 825v-640l-87 50v640zM433 185l-216 -125l-87 50l216 125zM217 700
l-87 -50l-87 50l87 50zM130 650v-640q0 -40 26 -55l-87 50q-26 15 -26 55v640zM459 1070l-303 -175l-87 50l303 175zM156 895v-100l-87 50v100z" />
    <glyph glyph-name="Uogonek" unicode="&#x172;" horiz-adv-x="563" 
d="M433 85v-100l87 50v-100l-87 -50q-34 -20 -60.5 -5t-26.5 55q0 27 12.5 56.5t32 55t42.5 38.5l-216 -125q-35 -20 -61 -5t-26 55v640l87 50v-640l216 125v640l87 50v-640q0 -26 -12.5 -56t-32 -55.5t-42.5 -38.5zM520 875l-87 -50l-87 50l87 50zM433 825v-640l-87 50v640
zM520 35l-87 -50l-87 50l87 50zM217 700l-87 -50l-87 50l87 50zM433 85q-23 -13 -42.5 -38.5t-32 -55t-12.5 -56.5q0 -40 26 -55l-86 50q-26 15 -26 55q0 26 12 56t31.5 55.5t42.5 38.5zM433 185l-216 -125l-87 50l216 125zM130 650v-640q0 -40 26 -55l-87 50q-26 15 -26 55
v640z" />
    <glyph glyph-name="Uring" unicode="&#x16e;" horiz-adv-x="563" 
d="M433 85l-216 -125q-35 -20 -61 -5t-26 55v640l87 50v-640l216 125v640l87 50v-640q0 -26 -12.5 -56t-32 -55.5t-42.5 -38.5zM325 1043q37 21 61.5 6.5t24.5 -56.5q0 -43 -24.5 -86t-61.5 -64q-37 -22 -62 -7.5t-25 57.5q0 42 25 85t62 65zM325 975q-11 -6 -19.5 -21
t-8.5 -28t8.5 -17.5t19.5 1.5t19.5 21t8.5 28t-8.5 17.5t-19.5 -1.5zM520 875l-87 -50l-87 50l87 50zM433 825v-640l-87 50v640zM433 185l-216 -125l-87 50l216 125zM217 700l-87 -50l-87 50l87 50zM130 650v-640q0 -40 26 -55l-87 50q-26 15 -26 55v640zM344 977
q9 -5 9 -18t-8.5 -28t-19.5 -21t-20 -2l-87 50q9 -4 20 2t19.5 21t8.5 28t-8 18zM387 1050q-25 14 -62 -7q-37 -22 -62 -65t-25 -85q0 -43 25 -58l-87 50q-24 15 -24 58q0 42 24.5 85t61.5 64q37 22 62 8z" />
    <glyph glyph-name="Utilde" unicode="&#x168;" horiz-adv-x="563" 
d="M433 85l-216 -125q-35 -20 -61 -5t-26 55v640l87 50v-640l216 125v640l87 50v-640q0 -26 -12.5 -56t-32 -55.5t-42.5 -38.5zM187 793l-68 25l79 159q21 44 50.5 61t63.5 5l68 -23l64 130l69 -25l-79 -159q-21 -43 -50.5 -60t-63.5 -6l-68 24zM520 875l-87 -50l-87 50
l87 50zM433 825v-640l-87 50v640zM433 185l-216 -125l-87 50l216 125zM513 1125l-69 25l-86 50l68 -25zM444 1150l-64 -130l-87 50l65 130zM217 700l-87 -50l-87 50l87 50zM130 650v-640q0 -40 26 -55l-87 50q-26 15 -26 55v640zM380 1020l-68 23q-34 12 -63.5 -5t-50.5 -61
l-79 -159l-87 50l79 159q21 44 51 61t63 5l68 -23z" />
    <glyph glyph-name="V" unicode="V" horiz-adv-x="563" 
d="M303 -30q-34 -20 -60 -5t-26 55l216 125v680l87 50v-580q0 -26 -12.5 -56t-32 -55.5t-42.5 -38.5q0 -26 -12 -56t-32 -55.5t-43 -38.5zM217 20q-35 -20 -61 -5t-26 55v580l87 50v-680zM520 875l-87 -50l-87 50l87 50zM433 825v-680l-87 50v680zM433 145l-216 -125l-87 50
l216 125zM217 20q0 -40 26 -55l-87 50q-26 15 -26 55zM217 700l-87 -50l-87 50l87 50zM130 650v-580q0 -40 26 -55l-87 50q-26 15 -26 55v580z" />
    <glyph glyph-name="W" unicode="W" horiz-adv-x="693" 
d="M303 -30q-34 -20 -60 -5t-26 55l129 75v680l87 50v-680l130 75v680l87 50v-580q0 -26 -12.5 -56t-32 -55.5t-42.5 -38.5q0 -26 -12 -56t-32 -55.5t-43 -38.5zM217 20q-35 -20 -61 -5t-26 55v580l87 50v-680zM650 950l-87 -50l-87 50l87 50zM563 900v-680l-87 50v680z
M563 220l-130 -75l-87 50l130 75zM346 95l-129 -75l-87 50l130 75zM217 20q0 -40 26 -55l-87 50q-26 15 -26 55zM433 825l-87 -50l-86 50l86 50zM346 775v-680l-86 50v680zM217 700l-87 -50l-87 50l87 50zM130 650v-580q0 -40 26 -55l-87 50q-26 15 -26 55v580z" />
    <glyph glyph-name="Wacute" unicode="&#x1e82;" horiz-adv-x="693" 
d="M303 -30q-34 -20 -60 -5t-26 55q-35 -20 -61 -5t-26 55v580l87 50v-680l129 75v680l87 50v-680l130 75v680l87 50v-580q0 -26 -12.5 -56t-32 -55.5t-42.5 -38.5q0 -26 -12 -56t-32 -55.5t-43 -38.5zM250 916l207 252l46 -61l-207 -252zM650 950l-87 -50l-87 50l87 50z
M563 900v-680l-87 50v680zM563 220l-130 -75l-87 50l130 75zM346 95l-129 -75l-87 50l130 75zM217 20q0 -40 26 -55l-87 50q-26 15 -26 55zM433 825l-87 -50l-86 50l86 50zM346 775v-680l-86 50v680zM217 700l-87 -50l-87 50l87 50zM130 650v-580q0 -40 26 -55l-87 50
q-26 15 -26 55v580zM457 1168l-207 -252l-86 50l207 252zM250 916l46 -61l-86 50l-46 61z" />
    <glyph glyph-name="Wcircumflex" unicode="&#x174;" horiz-adv-x="693" 
d="M303 -30q-34 -20 -60 -5t-26 55q-35 -20 -61 -5t-26 55v580l87 50v-680l129 75v680l87 50v-680l130 75v680l87 50v-580q0 -26 -12.5 -56t-32 -55.5t-42.5 -38.5q0 -26 -12 -56t-32 -55.5t-43 -38.5zM402 1030l-131 -179l-48 51l167 228l166 -36l-41 -90zM650 950l-87 -50
l-87 50l87 50zM563 900v-680l-87 50v680zM563 220l-130 -75l-87 50l130 75zM346 95l-129 -75l-87 50l130 75zM217 20q0 -40 26 -55l-87 50q-26 15 -26 55zM556 1094l-166 36l-87 50l166 -36zM433 825l-87 -50l-86 50l86 50zM346 775v-680l-86 50v680zM217 700l-87 -50
l-87 50l87 50zM130 650v-580q0 -40 26 -55l-87 50q-26 15 -26 55v580zM390 1130l-167 -228l-86 50l166 228zM223 902l48 -51l-87 50l-47 51z" />
    <glyph glyph-name="Wdieresis" unicode="&#x1e84;" horiz-adv-x="693" 
d="M303 -30q-34 -20 -60 -5t-26 55q-35 -20 -61 -5t-26 55v580l87 50v-680l129 75v680l87 50v-680l130 75v680l87 50v-580q0 -26 -12.5 -56t-32 -55.5t-42.5 -38.5q0 -26 -12 -56t-32 -55.5t-43 -38.5zM281 848q-26 -16 -43 -6t-17 41q0 30 17 59.5t43 45.5q27 15 44 5
t17 -40q0 -31 -17 -60.5t-44 -44.5zM498 973q-26 -16 -43.5 -6t-17.5 41q0 30 17.5 59.5t43.5 45.5q26 15 43.5 5t17.5 -40q0 -31 -17.5 -60.5t-43.5 -44.5zM650 950l-87 -50l-87 50l87 50zM563 900v-680l-87 50v680zM563 220l-130 -75l-87 50l130 75zM346 95l-129 -75
l-87 50l130 75zM217 20q0 -40 26 -55l-87 50q-26 15 -26 55zM433 825l-87 -50l-86 50l86 50zM346 775v-680l-86 50v680zM541 1118q-17 10 -43 -5q-26 -16 -43.5 -45.5t-17.5 -59.5q0 -31 17 -41l-86 50q-17 10 -17 41q0 30 17 59.5t43 45.5q27 15 44 5zM217 700l-87 -50
l-87 50l87 50zM130 650v-580q0 -40 26 -55l-87 50q-26 15 -26 55v580zM325 993q-17 10 -44 -5q-26 -16 -43 -45.5t-17 -59.5q0 -31 17 -41l-87 50q-17 10 -17 41q0 30 17 59.5t44 45.5q26 15 43 5z" />
    <glyph glyph-name="Wgrave" unicode="&#x1e80;" horiz-adv-x="693" 
d="M303 -30q-34 -20 -60 -5t-26 55q-35 -20 -61 -5t-26 55v580l87 50v-680l129 75v680l87 50v-680l130 75v680l87 50v-580q0 -26 -12.5 -56t-32 -55.5t-42.5 -38.5q0 -26 -12 -56t-32 -55.5t-43 -38.5zM275 1111l241 -57l-49 -103l-241 56zM650 950l-87 -50l-87 50l87 50z
M563 900v-680l-87 50v680zM563 220l-130 -75l-87 50l130 75zM346 95l-129 -75l-87 50l130 75zM217 20q0 -40 26 -55l-87 50q-26 15 -26 55zM433 825l-87 -50l-86 50l86 50zM346 775v-680l-86 50v680zM516 1054l-241 57l-86 50l241 -57zM275 1111l-49 -104l-87 50l50 104z
M217 700l-87 -50l-87 50l87 50zM130 650v-580q0 -40 26 -55l-87 50q-26 15 -26 55v580z" />
    <glyph glyph-name="X" unicode="X" horiz-adv-x="563" 
d="M130 650l87 50v-300l216 125v300l87 50v-200q0 -26 -12.5 -56t-32 -55.5t-42.5 -38.5q34 20 60.5 5t26.5 -55v-300l-87 -50v300l-216 -125v-300l-87 -50v200q0 27 12 56.5t32 55t43 38.5q-35 -20 -61 -5t-26 55v300zM433 425v-300l-87 50v300zM494 530q-27 15 -61 -5
l-87 50q35 20 61 5zM520 875l-87 -50l-87 50l87 50zM217 300q-23 -13 -43 -38.5t-32 -55t-12 -56.5v-200l-87 50v200q0 27 12 56.5t32 55t43 38.5zM433 825v-300l-87 50v300zM433 525l-216 -125l-87 50l216 125zM217 700l-87 -50l-87 50l87 50zM130 650v-300q0 -40 26 -55
l-87 50q-26 15 -26 55v300z" />
    <glyph glyph-name="Y" unicode="Y" horiz-adv-x="572" 
d="M286 240l-69 -40q-35 -20 -61 -5t-26 55v400l87 50v-400l225 130v400l86 50v-400q0 -26 -12 -56t-31.5 -55.5t-42.5 -38.5l-70 -40v-300l-86 -50v300zM286 240v-300l-87 50v300zM528 880l-86 -50l-87 50l87 50zM442 830v-400l-87 50v400zM442 430l-225 -130l-87 50
l225 130zM217 700l-87 -50l-87 50l87 50zM130 650v-400q0 -40 26 -55l-87 50q-26 15 -26 55v400z" />
    <glyph glyph-name="Yacute" unicode="&#xdd;" horiz-adv-x="572" 
d="M286 240l-69 -40q-35 -20 -61 -5t-26 55v400l87 50v-400l225 130v400l86 50v-400q0 -26 -12 -56t-31.5 -55.5t-42.5 -38.5l-70 -40v-300l-86 -50v300zM190 881l207 252l46 -61l-207 -252zM286 240v-300l-87 50v300zM528 880l-86 -50l-87 50l87 50zM442 830v-400l-87 50
v400zM442 430l-225 -130l-87 50l225 130zM217 700l-87 -50l-87 50l87 50zM130 650v-400q0 -40 26 -55l-87 50q-26 15 -26 55v400zM397 1133l-207 -252l-87 50l207 252zM190 881l46 -61l-87 50l-46 61z" />
    <glyph glyph-name="Ycircumflex" unicode="&#x176;" horiz-adv-x="572" 
d="M286 240l-69 -40q-35 -20 -61 -5t-26 55v400l87 50v-400l225 130v400l86 50v-400q0 -26 -12 -56t-31.5 -55.5t-42.5 -38.5l-70 -40v-300l-86 -50v300zM342 995l-132 -179l-47 51l166 228l166 -36l-41 -90zM286 240v-300l-87 50v300zM528 880l-86 -50l-87 50l87 50z
M442 830v-400l-87 50v400zM442 430l-225 -130l-87 50l225 130zM495 1059l-166 36l-87 50l167 -36zM217 700l-87 -50l-87 50l87 50zM130 650v-400q0 -40 26 -55l-87 50q-26 15 -26 55v400zM329 1095l-166 -228l-87 50l166 228zM163 867l47 -51l-86 50l-48 51z" />
    <glyph glyph-name="Ydieresis" unicode="&#x178;" horiz-adv-x="572" 
d="M286 240l-69 -40q-35 -20 -61 -5t-26 55v400l87 50v-400l225 130v400l86 50v-400q0 -26 -12 -56t-31.5 -55.5t-42.5 -38.5l-70 -40v-300l-86 -50v300zM221 813q-27 -16 -44 -6t-17 41q0 30 17 59.5t44 45.5q26 15 43 5t17 -40q0 -31 -17 -60.5t-43 -44.5zM437 938
q-26 -16 -43 -6t-17 41q0 30 17 59.5t43 45.5q27 15 44 5t17 -40q0 -31 -17 -60.5t-44 -44.5zM286 240v-300l-87 50v300zM528 880l-86 -50l-87 50l87 50zM442 830v-400l-87 50v400zM442 430l-225 -130l-87 50l225 130zM217 700l-87 -50l-87 50l87 50zM130 650v-400
q0 -40 26 -55l-87 50q-26 15 -26 55v400zM264 958q-17 10 -43 -5q-27 -16 -44 -45.5t-17 -59.5q0 -31 17 -41l-86 50q-17 10 -17 41q0 30 17 59.5t43 45.5q27 15 44 5zM481 1083q-17 10 -44 -5q-26 -16 -43 -45.5t-17 -59.5q0 -31 17 -41l-87 50q-17 10 -17 41q0 30 17 59.5
t44 45.5q26 15 43 5z" />
    <glyph glyph-name="Ygrave" unicode="&#x1ef2;" horiz-adv-x="572" 
d="M286 240l-69 -40q-35 -20 -61 -5t-26 55v400l87 50v-400l225 130v400l86 50v-400q0 -26 -12 -56t-31.5 -55.5t-42.5 -38.5l-70 -40v-300l-86 -50v300zM215 1076l241 -57l-50 -103l-241 56zM286 240v-300l-87 50v300zM528 880l-86 -50l-87 50l87 50zM442 830v-400l-87 50
v400zM442 430l-225 -130l-87 50l225 130zM456 1019l-241 57l-87 50l241 -57zM217 700l-87 -50l-87 50l87 50zM130 650v-400q0 -40 26 -55l-87 50q-26 15 -26 55v400zM215 1076l-50 -104l-86 50l49 104z" />
    <glyph glyph-name="Z" unicode="Z" horiz-adv-x="563" 
d="M217 400l216 125v200l-303 -175v100l390 225v-300q0 -26 -12.5 -56t-32 -55.5t-42.5 -38.5l-216 -125v-200l303 175v-100l-390 -225v300q0 27 12 56.5t32 55t43 38.5zM433 725v-200l-87 50v200zM520 275l-303 -175l-87 50l303 175zM433 525l-216 -125q-23 -13 -43 -38.5
t-32 -55t-12 -56.5v-300l-87 50v300q0 27 12 56.5t32 55t43 38.5l216 125zM520 875l-390 -225l-87 50l390 225zM130 650v-100l-87 50v100z" />
    <glyph glyph-name="Zacute" unicode="&#x179;" horiz-adv-x="563" 
d="M217 400l216 125v200l-303 -175v100l390 225v-300q0 -26 -12.5 -56t-32 -55.5t-42.5 -38.5l-216 -125v-200l303 175v-100l-390 -225v300q0 27 12 56.5t32 55t43 38.5zM190 881l207 252l46 -61l-207 -252zM433 725v-200l-87 50v200zM520 275l-303 -175l-87 50l303 175z
M433 525l-216 -125q-23 -13 -43 -38.5t-32 -55t-12 -56.5v-300l-87 50v300q0 27 12 56.5t32 55t43 38.5l216 125zM520 875l-390 -225l-87 50l390 225zM130 650v-100l-87 50v100zM397 1133l-207 -252l-87 50l207 252zM190 881l46 -61l-87 50l-46 61z" />
    <glyph glyph-name="Zcaron" unicode="&#x17d;" horiz-adv-x="563" 
d="M217 400l216 125v200l-303 -175v100l390 225v-300q0 -26 -12.5 -56t-32 -55.5t-42.5 -38.5l-216 -125v-200l303 175v-100l-390 -225v300q0 27 12 56.5t32 55t43 38.5zM349 901l-184 27l45 96l118 -26l119 163l51 -58zM433 725v-200l-87 50v200zM520 275l-303 -175l-87 50
l303 175zM447 1161l-119 -163l-86 50l118 163zM433 525l-216 -125q-23 -13 -43 -38.5t-32 -55t-12 -56.5v-300l-87 50v300q0 27 12 56.5t32 55t43 38.5l216 125zM520 875l-390 -225l-87 50l390 225zM130 650v-100l-87 50v100zM328 998l-118 26l-87 50l119 -26zM210 1024
l-45 -96l-87 50l45 96z" />
    <glyph glyph-name="Zdotaccent" unicode="&#x17b;" horiz-adv-x="563" 
d="M217 400l216 125v200l-303 -175v100l390 225v-300q0 -26 -12.5 -56t-32 -55.5t-42.5 -38.5l-216 -125v-200l303 175v-100l-390 -225v300q0 27 12 56.5t32 55t43 38.5zM325 873q-27 -16 -44 -6t-17 41q0 30 17 59.5t44 45.5q26 15 43 5t17 -40q0 -31 -17 -60.5t-43 -44.5z
M433 725v-200l-87 50v200zM520 275l-303 -175l-87 50l303 175zM433 525l-216 -125q-23 -13 -43 -38.5t-32 -55t-12 -56.5v-300l-87 50v300q0 27 12 56.5t32 55t43 38.5l216 125zM520 875l-390 -225l-87 50l390 225zM130 650v-100l-87 50v100zM368 1018q-17 10 -43 -5
q-27 -16 -44 -45.5t-17 -59.5q0 -31 17 -41l-86 50q-17 10 -17 41q0 30 17 59.5t43 45.5q27 15 44 5z" />
    <glyph glyph-name="a" unicode="a" 
d="M130 490l260 150q34 20 60 5t26 -55v-480l-86 -50v100q0 -26 -12 -56t-32 -55.5t-43 -38.5l-86 -50q-35 -20 -61 -5t-26 55v140q0 27 12 56.5t32 55t43 38.5l173 100v140l-260 -150v100zM217 60l173 100v140l-173 -100v-140zM390 540v-140l-87 50v140zM390 160v-100
l-87 50v100zM390 300v-140l-87 50v140zM390 160l-173 -100l-87 50l173 100zM390 400l-173 -100q-23 -13 -43 -38.5t-32 -55t-12 -56.5v-140q0 -40 26 -55l-87 50q-26 15 -26 55v140q0 27 12 56.5t32 55t43 38.5l173 100zM450 645q-26 15 -60 -5l-260 -150l-87 50l260 150
q35 20 61 5zM130 490v-100l-87 50v100z" />
    <glyph glyph-name="aacute" unicode="&#xe1;" 
d="M130 490l260 150q34 20 60 5t26 -55v-480l-86 -50v100q0 -26 -12 -56t-32 -55.5t-43 -38.5l-86 -50q-35 -20 -61 -5t-26 55v140q0 27 12 56.5t32 55t43 38.5l173 100v140l-260 -150v100zM217 60l173 100v140l-173 -100v-140zM168 709l207 252l46 -60l-207 -252zM390 540
v-140l-87 50v140zM390 160v-100l-87 50v100zM390 300v-140l-87 50v140zM390 160l-173 -100l-87 50l173 100zM390 400l-173 -100q-23 -13 -43 -38.5t-32 -55t-12 -56.5v-140q0 -40 26 -55l-87 50q-26 15 -26 55v140q0 27 12 56.5t32 55t43 38.5l173 100zM450 645
q-26 15 -60 -5l-260 -150l-87 50l260 150q35 20 61 5zM130 490v-100l-87 50v100zM375 961l-207 -252l-87 50l207 252zM168 709l46 -60l-87 50l-46 60z" />
    <glyph glyph-name="abreve" unicode="&#x103;" 
d="M130 490l260 150q34 20 60 5t26 -55v-480l-86 -50v100q0 -26 -12 -56t-32 -55.5t-43 -38.5l-86 -50q-35 -20 -61 -5t-26 55v140q0 27 12 56.5t32 55t43 38.5l173 100v140l-260 -150v100zM303 710q-46 -26 -85.5 -21t-63.5 36.5t-24 84.5l87 50q0 -40 26 -55t60 5
q23 13 43 38.5t32 55.5t12 56l86 50q0 -40 -14 -84t-38 -86t-55 -76t-66 -54zM217 60l173 100v140l-173 -100v-140zM390 540v-140l-87 50v140zM390 160v-100l-87 50v100zM476 1010l-86 -50l-87 50l87 50zM390 960q0 -26 -12 -56t-32 -55.5t-43 -38.5q-34 -20 -60 -5l-87 50
q26 -15 61 5q22 13 42 38.5t32 55.5t12 56zM390 300v-140l-87 50v140zM390 160l-173 -100l-87 50l173 100zM390 400l-173 -100q-23 -13 -43 -38.5t-32 -55t-12 -56.5v-140q0 -40 26 -55l-87 50q-26 15 -26 55v140q0 27 12 56.5t32 55t43 38.5l173 100zM450 645
q-26 15 -60 -5l-260 -150l-87 50l260 150q35 20 61 5zM130 490v-100l-87 50v100zM217 860l-87 -50l-87 50l87 50zM130 810q0 -40 14 -68t38 -42l-87 50q-23 14 -37.5 42t-14.5 68z" />
    <glyph glyph-name="acircumflex" unicode="&#xe2;" 
d="M130 490l260 150q34 20 60 5t26 -55v-480l-86 -50v100q0 -26 -12 -56t-32 -55.5t-43 -38.5l-86 -50q-35 -20 -61 -5t-26 55v140q0 27 12 56.5t32 55t43 38.5l173 100v140l-260 -150v100zM317 821l-132 -180l-47 52l166 228l166 -36l-41 -90zM217 60l173 100v140
l-173 -100v-140zM390 540v-140l-87 50v140zM390 160v-100l-87 50v100zM470 885l-166 36l-87 50l167 -36zM390 300v-140l-87 50v140zM390 160l-173 -100l-87 50l173 100zM390 400l-173 -100q-23 -13 -43 -38.5t-32 -55t-12 -56.5v-140q0 -40 26 -55l-87 50q-26 15 -26 55v140
q0 27 12 56.5t32 55t43 38.5l173 100zM450 645q-26 15 -60 -5l-260 -150l-87 50l260 150q35 20 61 5zM130 490v-100l-87 50v100zM304 921l-166 -228l-87 50l166 228zM138 693l47 -52l-86 50l-48 52z" />
    <glyph glyph-name="acute" unicode="&#xb4;" 
d="M168 669l207 252l46 -60l-207 -252zM375 921l-207 -252l-87 50l207 252zM168 669l46 -60l-87 50l-46 60z" />
    <glyph glyph-name="acutecomb" unicode="&#x301;" horiz-adv-x="0" 
d="M168 669l207 252l46 -60l-207 -252zM375 921l-207 -252l-87 50l207 252zM168 669l46 -60l-87 50l-46 60z" />
    <glyph glyph-name="adieresis" unicode="&#xe4;" 
d="M130 490l260 150q34 20 60 5t26 -55v-480l-86 -50v100q0 -26 -12 -56t-32 -55.5t-43 -38.5l-86 -50q-35 -20 -61 -5t-26 55v140q0 27 12 56.5t32 55t43 38.5l173 100v140l-260 -150v100zM217 60l173 100v140l-173 -100v-140zM191 635q-27 -15 -44 -5t-17 40t17 60t44 45
q26 15 43 5t17 -40t-17 -60t-43 -45zM416 765q-27 -15 -44 -5t-17 40t17 60t44 45q26 15 43 5t17 -40t-17 -60t-43 -45zM390 540v-140l-87 50v140zM390 160v-100l-87 50v100zM390 300v-140l-87 50v140zM459 910q-17 10 -43 -5q-27 -15 -44 -45t-17 -60t17 -40l-86 50
q-18 10 -18 40t17.5 60t43.5 45t44 5zM390 160l-173 -100l-87 50l173 100zM390 400l-173 -100q-23 -13 -43 -38.5t-32 -55t-12 -56.5v-140q0 -40 26 -55l-87 50q-26 15 -26 55v140q0 27 12 56.5t32 55t43 38.5l173 100zM450 645q-26 15 -60 -5l-260 -150l-87 50l260 150
q35 20 61 5zM130 490v-100l-87 50v100zM234 780q-17 10 -43 -5q-27 -15 -44 -45t-17 -60t17 -40l-87 50q-17 10 -17 40t17.5 60t43.5 45t43 5z" />
    <glyph glyph-name="ae" unicode="&#xe6;" horiz-adv-x="693" 
d="M130 140q0 27 12 56.5t32 55t43 38.5l86 50v130l-173 -100v100l173 100q35 20 61 5t26 -55q0 27 12 56.5t31.5 55t42.5 38.5l87 50q34 20 60.5 5t26.5 -55v-130q0 -26 -12.5 -56t-32 -55.5t-42.5 -38.5l-87 -50v-130l174 100v-100l-174 -100q-34 -20 -60 -5t-26 55
q0 -26 -12 -56t-32 -55.5t-43 -38.5l-86 -50q-35 -20 -61 -5t-26 55v130zM390 290l-173 -100v-130l173 100v130zM390 390l173 100v130l-173 -100v-130zM390 160q0 -40 26 -55l-87 50q-26 15 -26 55zM650 310l-174 -100l-86 50l173 100zM563 620v-130l-87 50v130zM390 290
v-130l-87 50v130zM390 160l-173 -100l-87 50l173 100zM563 490l-173 -100l-87 50l173 100zM303 470v-130l-86 50v130zM303 340l-86 -50q-23 -13 -43 -38.5t-32 -55t-12 -56.5v-130q0 -40 26 -55l-87 50q-26 15 -26 55v130q0 27 12 56.5t32 55t43 38.5l87 50zM623 725
q-26 15 -60 -5l-87 -50q-23 -13 -42.5 -38.5t-31.5 -55t-12 -56.5l-87 50q0 27 12 56.5t32 55t43 38.5l86 50q35 20 61 5zM364 575q-26 15 -61 -5l-173 -100l-87 50l174 100q34 20 60 5zM130 470v-100l-87 50v100z" />
    <glyph glyph-name="agrave" unicode="&#xe0;" 
d="M130 490l260 150q34 20 60 5t26 -55v-480l-86 -50v100q0 -26 -12 -56t-32 -55.5t-43 -38.5l-86 -50q-35 -20 -61 -5t-26 55v140q0 27 12 56.5t32 55t43 38.5l173 100v140l-260 -150v100zM189 901l241 -57l-50 -103l-241 56zM217 60l173 100v140l-173 -100v-140zM390 540
v-140l-87 50v140zM390 160v-100l-87 50v100zM430 844l-241 57l-87 50l241 -57zM390 300v-140l-87 50v140zM390 160l-173 -100l-87 50l173 100zM390 400l-173 -100q-23 -13 -43 -38.5t-32 -55t-12 -56.5v-140q0 -40 26 -55l-87 50q-26 15 -26 55v140q0 27 12 56.5t32 55
t43 38.5l173 100zM450 645q-26 15 -60 -5l-260 -150l-87 50l260 150q35 20 61 5zM130 490v-100l-87 50v100zM189 901l-50 -104l-86 50l49 104z" />
    <glyph glyph-name="amacron" unicode="&#x101;" 
d="M130 490l260 150q34 20 60 5t26 -55v-480l-86 -50v100q0 -26 -12 -56t-32 -55.5t-43 -38.5l-86 -50q-35 -20 -61 -5t-26 55v140q0 27 12 56.5t32 55t43 38.5l173 100v140l-260 -150v100zM156 735l260 150v-100l-260 -150v100zM217 60l173 100v140l-173 -100v-140z
M390 540v-140l-87 50v140zM390 160v-100l-87 50v100zM390 300v-140l-87 50v140zM390 160l-173 -100l-87 50l173 100zM390 400l-173 -100q-23 -13 -43 -38.5t-32 -55t-12 -56.5v-140q0 -40 26 -55l-87 50q-26 15 -26 55v140q0 27 12 56.5t32 55t43 38.5l173 100zM450 645
q-26 15 -60 -5l-260 -150l-87 50l260 150q35 20 61 5zM130 490v-100l-87 50v100zM416 885l-260 -150l-87 50l260 150zM156 735v-100l-87 50v100z" />
    <glyph glyph-name="ampersand" unicode="&#x26;" horiz-adv-x="606" 
d="M130 250q0 27 12 56.5t32 55t43 38.5q-35 -20 -61 -5t-26 55v40q0 27 12 56.5t32 55t43 38.5l259 150v-100l-259 -150v-140l86 50q35 20 61 5t26 -55q0 27 12 56.5t31.5 55t42.5 38.5l87 50v-100l-87 -50v-240l87 50v-100q-35 -20 -61 -5t-26 55q0 -26 -12 -56
t-31.5 -55.5t-42.5 -38.5l-173 -100q-35 -20 -61 -5t-26 55v240zM217 60l173 100v240l-173 -100v-240zM476 210q0 -40 26 -55l-86 50q-26 15 -26 55zM563 260l-87 -50l-86 50l86 50zM563 600l-87 -50q-23 -13 -42.5 -38.5t-31.5 -55t-12 -56.5l-87 50q0 27 12 56.5t32 55
t43 38.5l86 50zM390 160l-173 -100l-87 50l173 100zM390 400v-240l-87 50v240zM217 400q-23 -13 -43 -38.5t-32 -55t-12 -56.5v-240q0 -40 26 -55l-87 50q-26 15 -26 55v240q0 27 12 56.5t32 55t43 38.5zM364 455q-26 15 -61 -5l-86 -50l-87 50l87 50q34 20 60 5zM476 790
l-259 -150q-23 -13 -43 -38.5t-32 -55t-12 -56.5v-40q0 -40 26 -55l-87 50q-26 15 -26 55v40q0 27 12 56.5t32 55t43 38.5l260 150z" />
    <glyph glyph-name="aogonek" unicode="&#x105;" 
d="M390 60v-100l86 50v-100l-86 -50q-35 -20 -61 -5t-26 55q0 27 12 56.5t32 55t43 38.5v100q0 -26 -12 -56t-32 -55.5t-43 -38.5l-86 -50q-35 -20 -61 -5t-26 55v140q0 27 12 56.5t32 55t43 38.5l173 100v140l-260 -150v100l260 150q34 20 60 5t26 -55v-480zM217 60
l173 100v140l-173 -100v-140zM390 540v-140l-87 50v140zM476 10l-86 -50l-87 50l87 50zM390 300v-140l-87 50v140zM390 160v-100l-87 50v100zM390 60q-23 -13 -43 -38.5t-32 -55t-12 -56.5q0 -40 26 -55l-86 50q-26 15 -26 55q0 26 12 56t31.5 55.5t42.5 38.5zM390 160
l-173 -100l-87 50l173 100zM390 400l-173 -100q-23 -13 -43 -38.5t-32 -55t-12 -56.5v-140q0 -40 26 -55l-87 50q-26 15 -26 55v140q0 27 12 56.5t32 55t43 38.5l173 100zM450 645q-26 15 -60 -5l-260 -150l-87 50l260 150q35 20 61 5zM130 490v-100l-87 50v100z" />
    <glyph glyph-name="approxequal" unicode="&#x2248;" 
d="M175 283l-69 24l79 160q21 43 50.5 60t63.5 6l68 -24l64 131l69 -25l-79 -159q-21 -44 -50.5 -61t-63.5 -5l-68 23zM175 -17l-69 24l79 160q21 43 50.5 60t63.5 6l68 -24l64 131l69 -25l-79 -159q-21 -44 -50.5 -61t-63.5 -5l-68 23zM500 615l-69 25l-86 50l68 -25z
M431 640l-64 -131l-87 50l65 131zM500 315l-69 25l-86 50l68 -25zM431 340l-64 -131l-87 50l65 131zM367 209l-68 24q-34 11 -63.5 -6t-50.5 -60l-79 -160l-87 50l79 160q21 43 51 60t63 6l68 -24zM367 509l-68 24q-34 11 -63.5 -6t-50.5 -60l-79 -160l-87 50l79 160
q21 43 51 60t63 6l68 -24z" />
    <glyph glyph-name="aring" unicode="&#xe5;" 
d="M130 490l260 150q34 20 60 5t26 -55v-480l-86 -50v100q0 -26 -12 -56t-32 -55.5t-43 -38.5l-86 -50q-35 -20 -61 -5t-26 55v140q0 27 12 56.5t32 55t43 38.5l173 100v140l-260 -150v100zM294 863q38 21 62.5 7t24.5 -57t-24.5 -86t-62.5 -64q-37 -21 -61.5 -7t-24.5 57
t24.5 86t61.5 64zM217 60l173 100v140l-173 -100v-140zM294 796q-11 -7 -19.5 -21.5t-8.5 -27.5t8.5 -18t19.5 2q12 6 20.5 20.5t8.5 27.5t-8.5 18t-20.5 -1zM390 540v-140l-87 50v140zM390 160v-100l-87 50v100zM390 300v-140l-87 50v140zM390 160l-173 -100l-87 50
l173 100zM390 400l-173 -100q-23 -13 -43 -38.5t-32 -55t-12 -56.5v-140q0 -40 26 -55l-87 50q-26 15 -26 55v140q0 27 12 56.5t32 55t43 38.5l173 100zM450 645q-26 15 -60 -5l-260 -150l-87 50l260 150q35 20 61 5zM130 490v-100l-87 50v100zM314 797q9 -5 9 -18
t-8.5 -27.5t-20.5 -20.5q-11 -7 -19 -2l-87 50q9 -5 20 2q11 6 19.5 20.5t8.5 27.5t-8 18zM356 870q-24 14 -62 -7q-37 -21 -61.5 -64t-24.5 -86t25 -57l-87 50q-25 14 -25 57t25 86t62 64t62 7z" />
    <glyph glyph-name="asciitilde" unicode="~" horiz-adv-x="567" 
d="M199 137l-69 24l79 160q21 43 50.5 60t63.5 6l68 -24l65 131l68 -25l-78 -159q-22 -44 -51.5 -61t-63.5 -5l-67 23zM524 469l-68 25l-87 50l68 -25zM456 494l-65 -131l-87 50l65 131zM391 363l-68 24q-34 11 -63.5 -6t-50.5 -60l-79 -160l-87 50l79 160q22 43 51.5 60
t62.5 6l68 -24z" />
    <glyph glyph-name="at" unicode="@" horiz-adv-x="727" 
d="M511 770q46 27 85.5 21.5t63.5 -37t24 -84.5v-220q0 -26 -12 -56t-31.5 -55.5t-42.5 -38.5l-191 -110q-34 -20 -60.5 -5t-26.5 55q0 27 12.5 56.5t32 55t42.5 38.5l-87 -50q0 27 12.5 56.5t32 55t42.5 38.5q34 20 60.5 5t26.5 -55v-100l104 60v220q0 40 -26.5 55
t-60.5 -5l-208 -120q-23 -13 -42.5 -38.5t-31.5 -55t-12 -56.5v-340q0 -40 26 -55t60 5l381 220q0 -26 -12 -56t-31.5 -55.5t-42.5 -38.5l-295 -170q-46 -26 -85.5 -21t-63.5 36.5t-24 84.5v340q0 40 14 84t38 86t55.5 76t65.5 54zM684 230l-381 -220q-34 -20 -60 -5l-87 50
q26 -15 61 5l381 220zM571 675q27 -15 27 -55v-220l-87 50v220q0 40 -26 55zM598 400l-104 -60l-87 50l104 60zM407 390q-23 -13 -42.5 -38.5t-32 -55t-12.5 -56.5q0 -40 27 -55l-87 50q-26 15 -26 55q0 27 12 56.5t31.5 55t42.5 38.5zM468 495q-27 15 -61 -5
q-23 -13 -42.5 -38.5t-32 -55t-12.5 -56.5l-86 50q0 27 12 56.5t31.5 55t42.5 38.5q35 20 61 5zM632 780q-24 13 -55.5 11.5t-65.5 -21.5l-208 -120q-34 -20 -65.5 -54t-55.5 -76t-38 -86t-14 -84v-340q0 -40 14 -68t38 -42l-87 50q-23 14 -37.5 42t-14.5 68v340q0 40 14 84
t38.5 86t55.5 76t66 54l207 120q35 20 66.5 21.5t54.5 -11.5z" />
    <glyph glyph-name="atilde" unicode="&#xe3;" 
d="M130 490l260 150q34 20 60 5t26 -55v-480l-86 -50v100q0 -26 -12 -56t-32 -55.5t-43 -38.5l-86 -50q-35 -20 -61 -5t-26 55v140q0 27 12 56.5t32 55t43 38.5l173 100v140l-260 -150v100zM167 621l-69 25l79 159q21 44 50.5 61t63.5 5l68 -23l65 130l68 -25l-78 -159
q-22 -43 -51.5 -60t-63.5 -6l-68 24zM217 60l173 100v140l-173 -100v-140zM390 540v-140l-87 50v140zM390 160v-100l-87 50v100zM492 953l-68 25l-87 50l68 -25zM424 978l-65 -130l-87 50l65 130zM390 300v-140l-87 50v140zM390 160l-173 -100l-87 50l173 100zM390 400
l-173 -100q-23 -13 -43 -38.5t-32 -55t-12 -56.5v-140q0 -40 26 -55l-87 50q-26 15 -26 55v140q0 27 12 56.5t32 55t43 38.5l173 100zM450 645q-26 15 -60 -5l-260 -150l-87 50l260 150q35 20 61 5zM130 490v-100l-87 50v100zM359 848l-68 23q-34 12 -63.5 -5t-50.5 -61
l-79 -159l-87 50l79 159q22 44 51.5 61t62.5 5l68 -23z" />
    <glyph glyph-name="b" unicode="b" 
d="M303 590l87 50q34 20 60 5t26 -55v-340q0 -26 -12 -56t-31.5 -55.5t-42.5 -38.5l-260 -150v800l87 50v-360q0 27 12 56.5t31.5 55t42.5 38.5zM390 540l-173 -100v-340l173 100v340zM390 540v-340l-87 50v340zM390 200l-173 -100l-87 50l173 100zM450 645q-26 15 -60 -5
l-87 -50q-23 -13 -42.5 -38.5t-31.5 -55t-12 -56.5l-87 50q0 27 12 56.5t32 55t43 38.5l86 50q35 20 61 5zM217 800l-87 -50l-87 50l87 50zM130 750v-800l-87 50v800z" />
    <glyph glyph-name="bar" unicode="|" horiz-adv-x="260" 
d="M217 930v-1080l-87 -50v1080zM217 930l-87 -50l-87 50l87 50zM130 880v-1080l-87 50v1080z" />
    <glyph glyph-name="braceleft" unicode="{" horiz-adv-x="390" 
d="M173 75q0 40 -26 55t-60 -5v200q23 13 42.5 38.5t31.5 55.5t12 56v220q0 27 12 56.5t32 55t43 38.5l86 50v-100l-86 -50v-220q0 -40 -14 -84t-38.5 -86t-55.5 -76t-65 -54q46 27 85 21.5t63.5 -37t24.5 -84.5v-230l86 50v-100l-86 -50q-35 -20 -61 -5t-26 55v230z
M346 -55l-86 -50l-87 50l87 50zM208 235q-24 13 -55.5 11.5t-65.5 -21.5l-87 50q34 20 65.5 21.5t55.5 -11.5zM346 895l-86 -50q-23 -13 -43 -38.5t-32 -55t-12 -56.5v-220q0 -26 -12 -56t-31.5 -55.5t-42.5 -38.5l-87 50q23 13 42.5 38.5t32 55.5t12.5 56v220q0 27 12 56.5
t31.5 55t42.5 38.5l87 50zM147 130q26 -15 26 -55v-230q0 -40 26 -55l-86 50q-26 15 -26 55v230q0 40 -26 55zM87 325v-200l-87 50v200z" />
    <glyph glyph-name="braceright" unicode="}" horiz-adv-x="390" 
d="M390 440q-46 -26 -85.5 -21t-63.5 36.5t-24 84.5v250l-87 -50v100l87 50q34 20 60 5t26 -55v-250q0 -40 26 -55t61 5v-100zM303 190v-200q0 -26 -12 -56t-32 -55.5t-42 -38.5l-87 -50v100l87 50v200q0 40 13.5 84t38 86t55.5 76t66 54v-100q-23 -13 -43 -38.5t-32 -55
t-12 -56.5zM390 540q-35 -20 -61 -5l-86 50q26 -15 60 5zM277 895q-26 15 -60 -5l-87 -50l-87 50l87 50q34 20 60 5zM390 440q-35 -20 -66 -54t-55.5 -76t-38 -86t-13.5 -84v-200l-87 50v200q0 40 14 84t38 86t55.5 76t65.5 54zM217 -60l-87 -50l-87 50l87 50zM130 -110
v-100l-87 50v100zM217 790v-250q0 -40 14 -68t38 -42l-87 50q-24 14 -38 42t-14 68v250zM130 840v-100l-87 50v100z" />
    <glyph glyph-name="bracketleft" unicode="[" horiz-adv-x="433" 
d="M217 800l173 100v-100l-173 -100v-800l173 100v-100l-173 -100q-35 -20 -61 -5t-26 55v800q0 27 12 56.5t32 55t43 38.5zM390 0l-173 -100l-87 50l173 100zM390 900l-173 -100q-23 -13 -43 -38.5t-32 -55t-12 -56.5v-800q0 -40 26 -55l-87 50q-26 15 -26 55v800
q0 27 12 56.5t32 55t43 38.5l173 100z" />
    <glyph glyph-name="bracketright" unicode="]" horiz-adv-x="433" 
d="M303 890q35 20 61 5t26 -55v-800q0 -26 -12 -56t-32 -55.5t-43 -38.5l-173 -100v100l173 100v800l-173 -100v100zM303 790v-800l-86 50v800zM303 -10l-173 -100l-87 50l174 100zM130 -110v-100l-87 50v100zM364 895q-26 15 -61 -5l-173 -100l-87 50l174 100q34 20 60 5z
M130 790v-100l-87 50v100z" />
    <glyph glyph-name="breve" unicode="&#x2d8;" 
d="M303 620q-46 -26 -85.5 -21t-63.5 36.5t-24 84.5l87 50q0 -40 26 -55t60 5q23 13 43 38.5t32 55.5t12 56l86 50q0 -40 -14 -84t-38 -86t-55 -76t-66 -54zM476 920l-86 -50l-87 50l87 50zM390 870q0 -26 -12 -56t-32 -55.5t-43 -38.5q-34 -20 -60 -5l-87 50q26 -15 61 5
q22 13 42 38.5t32 55.5t12 56zM130 720q0 -40 14 -68t38 -42l-87 50q-23 14 -37.5 42t-14.5 68zM217 770l-87 -50l-87 50l87 50z" />
    <glyph glyph-name="brokenbar" unicode="&#xa6;" horiz-adv-x="260" 
d="M130 280l87 50v-480l-87 -50v480zM217 930v-480l-87 -50v480zM217 330l-87 -50l-87 50l87 50zM130 280v-480l-87 50v480zM217 930l-87 -50l-87 50l87 50zM130 880v-480l-87 50v480z" />
    <glyph glyph-name="c" unicode="c" 
d="M217 540l173 100q34 20 60 5t26 -55v-100l-86 -50v100l-173 -100v-380l173 100v100l86 50v-100q0 -26 -12 -56t-31.5 -55.5t-42.5 -38.5l-173 -100q-35 -20 -61 -5t-26 55v380q0 27 12 56.5t32 55t43 38.5zM476 310l-86 -50l-87 50l87 50zM390 260v-100l-87 50v100z
M390 160l-173 -100l-87 50l173 100zM390 540v-100l-87 50v100zM450 645q-26 15 -60 -5l-173 -100q-23 -13 -43 -38.5t-32 -55t-12 -56.5v-380q0 -40 26 -55l-87 50q-26 15 -26 55v380q0 27 12 56.5t32 55t43 38.5l173 100q35 20 61 5z" />
    <glyph glyph-name="cacute" unicode="&#x107;" 
d="M217 540l173 100q34 20 60 5t26 -55v-100l-86 -50v100l-173 -100v-380l173 100v100l86 50v-100q0 -26 -12 -56t-31.5 -55.5t-42.5 -38.5l-173 -100q-35 -20 -61 -5t-26 55v380q0 27 12 56.5t32 55t43 38.5zM168 709l207 252l46 -60l-207 -252zM476 310l-86 -50l-87 50
l87 50zM390 260v-100l-87 50v100zM390 160l-173 -100l-87 50l173 100zM390 540v-100l-87 50v100zM450 645q-26 15 -60 -5l-173 -100q-23 -13 -43 -38.5t-32 -55t-12 -56.5v-380q0 -40 26 -55l-87 50q-26 15 -26 55v380q0 27 12 56.5t32 55t43 38.5l173 100q35 20 61 5z
M375 961l-207 -252l-87 50l207 252zM168 709l46 -60l-87 50l-46 60z" />
    <glyph glyph-name="caron" unicode="&#x2c7;" 
d="M325 712l-185 27l45 96l119 -26l119 163l51 -58zM423 972l-119 -163l-87 50l119 163zM304 809l-119 26l-86 50l118 -26zM185 835l-45 -96l-86 50l45 96z" />
    <glyph glyph-name="ccaron" unicode="&#x10d;" 
d="M217 540l173 100q34 20 60 5t26 -55v-100l-86 -50v100l-173 -100v-380l173 100v100l86 50v-100q0 -26 -12 -56t-31.5 -55.5t-42.5 -38.5l-173 -100q-35 -20 -61 -5t-26 55v380q0 27 12 56.5t32 55t43 38.5zM325 723l-185 27l45 96l119 -26l119 163l51 -58zM476 310
l-86 -50l-87 50l87 50zM390 260v-100l-87 50v100zM390 160l-173 -100l-87 50l173 100zM390 540v-100l-87 50v100zM423 983l-119 -163l-87 50l119 163zM304 820l-119 26l-86 50l118 -26zM450 645q-26 15 -60 -5l-173 -100q-23 -13 -43 -38.5t-32 -55t-12 -56.5v-380
q0 -40 26 -55l-87 50q-26 15 -26 55v380q0 27 12 56.5t32 55t43 38.5l173 100q35 20 61 5zM185 846l-45 -96l-86 50l45 96z" />
    <glyph glyph-name="ccedilla" unicode="&#xe7;" 
d="M217 540l173 100q34 20 60 5t26 -55v-100l-86 -50v100l-173 -100v-380l173 100v100l86 50v-100q0 -26 -12 -56t-31.5 -55.5t-42.5 -38.5l-173 -100q-35 -20 -61 -5t-26 55v380q0 27 12 56.5t32 55t43 38.5zM303 10q35 20 61 5t26 -55q0 -26 -12 -56t-32 -55.5t-43 -38.5
l-86 -50v100l86 50v100zM476 310l-86 -50l-87 50l87 50zM390 260v-100l-87 50v100zM390 540v-100l-87 50v100zM364 15q-26 15 -61 -5l-86 50q34 20 60 5zM303 10v-100l-86 50v100zM303 -90l-86 -50l-87 50l87 50zM217 -140v-100l-87 50v100zM390 160l-173 -100l-87 50
l173 100zM450 645q-26 15 -60 -5l-173 -100q-23 -13 -43 -38.5t-32 -55t-12 -56.5v-380q0 -40 26 -55l-87 50q-26 15 -26 55v380q0 27 12 56.5t32 55t43 38.5l173 100q35 20 61 5z" />
    <glyph glyph-name="ccircumflex" unicode="&#x109;" 
d="M217 540l173 100q34 20 60 5t26 -55v-100l-86 -50v100l-173 -100v-380l173 100v100l86 50v-100q0 -26 -12 -56t-31.5 -55.5t-42.5 -38.5l-173 -100q-35 -20 -61 -5t-26 55v380q0 27 12 56.5t32 55t43 38.5zM317 821l-132 -180l-47 52l166 228l166 -36l-41 -90zM476 310
l-86 -50l-87 50l87 50zM390 260v-100l-87 50v100zM390 160l-173 -100l-87 50l173 100zM390 540v-100l-87 50v100zM470 885l-166 36l-87 50l167 -36zM450 645q-26 15 -60 -5l-173 -100q-23 -13 -43 -38.5t-32 -55t-12 -56.5v-380q0 -40 26 -55l-87 50q-26 15 -26 55v380
q0 27 12 56.5t32 55t43 38.5l173 100q35 20 61 5zM304 921l-166 -228l-87 50l166 228zM138 693l47 -52l-86 50l-48 52z" />
    <glyph glyph-name="cdotaccent" unicode="&#x10b;" 
d="M217 540l173 100q34 20 60 5t26 -55v-100l-86 -50v100l-173 -100v-380l173 100v100l86 50v-100q0 -26 -12 -56t-31.5 -55.5t-42.5 -38.5l-173 -100q-35 -20 -61 -5t-26 55v380q0 27 12 56.5t32 55t43 38.5zM303 700q-26 -15 -43.5 -5t-17.5 40t17.5 60t43.5 45t43.5 5
t17.5 -40t-17.5 -60t-43.5 -45zM476 310l-86 -50l-87 50l87 50zM390 260v-100l-87 50v100zM390 160l-173 -100l-87 50l173 100zM390 540v-100l-87 50v100zM450 645q-26 15 -60 -5l-173 -100q-23 -13 -43 -38.5t-32 -55t-12 -56.5v-380q0 -40 26 -55l-87 50q-26 15 -26 55
v380q0 27 12 56.5t32 55t43 38.5l173 100q35 20 61 5zM347 845q-18 10 -44 -5t-43.5 -45t-17.5 -60t18 -40l-87 50q-17 10 -17 40t17 60t44 45q26 15 43 5z" />
    <glyph glyph-name="cedilla" unicode="&#xb8;" horiz-adv-x="173" 
d="M130 -50q34 20 60.5 5t26.5 -55q0 -26 -12.5 -56t-32 -55.5t-42.5 -38.5l-87 -50v100l87 50v100zM190 -45q-26 15 -60 -5l-87 50q35 20 61 5zM130 -50v-100l-87 50v100zM130 -150l-87 -50l-86 50l86 50zM43 -200v-100l-86 50v100z" />
    <glyph glyph-name="cent" unicode="&#xa2;" horiz-adv-x="650" 
d="M217 -30q-35 -20 -61 -5t-26 55v430q0 27 12 56.5t32 55t43 38.5l112 65v100l87 50v-100l104 60q34 20 60 5t26 -55v-100l-86 -50v100l-104 -60v-430l104 60v100l86 50v-100q0 -26 -12 -56t-31.5 -55.5t-42.5 -38.5l-104 -60v-100l-87 -50v100zM329 135v430l-112 -65
v-430zM329 35v-100l-87 50v100zM606 395l-86 -50l-87 50l87 50zM520 345v-100l-87 50v100zM520 245l-104 -60l-87 50l104 60zM520 675v-100l-87 50v100zM580 780q-26 15 -60 -5l-104 -60l-87 50l104 60q34 20 61 5zM329 765v-100l-87 50v100zM329 565v-430l-87 50v430z
M329 135l-112 -65l-87 50l112 65zM416 815l-87 -50l-87 50l87 50zM329 665l-112 -65q-23 -13 -43 -38.5t-32 -55t-12 -56.5v-430q0 -40 26 -55l-87 50q-26 15 -26 55v430q0 27 12 56.5t32 55t43 38.5l112 65z" />
    <glyph glyph-name="circumflex" unicode="&#x2c6;" 
d="M312 808l-131 -179l-48 51l167 228l166 -36l-41 -90zM466 872l-166 36l-87 50l166 -36zM300 908l-167 -228l-86 50l166 228zM133 680l48 -51l-87 50l-47 51z" />
    <glyph glyph-name="asciicircum" unicode="^" 
d="M312 808l-131 -179l-48 51l167 228l166 -36l-41 -90zM466 872l-166 36l-87 50l166 -36zM300 908l-167 -228l-86 50l166 228zM133 680l48 -51l-87 50l-47 51z" />
    <glyph glyph-name="colon" unicode=":" horiz-adv-x="312" 
d="M199 430q-30 -17 -49.5 -6t-19.5 46t19.5 69t49.5 51t49.5 6t19.5 -46t-19.5 -69t-49.5 -51zM199 -50q-30 -17 -49.5 -6t-19.5 46t19.5 69t49.5 51t49.5 6t19.5 -46t-19.5 -69t-49.5 -51zM249 596q-20 11 -50 -6t-49.5 -51t-19.5 -69t19 -46l-86 50q-20 11 -20 46
t19.5 69t50.5 51q30 17 49 6zM249 116q-20 11 -50 -6t-49.5 -51t-19.5 -69t19 -46l-86 50q-20 11 -20 46t19.5 69t50.5 51q30 17 49 6z" />
    <glyph glyph-name="comma" unicode="," horiz-adv-x="312" 
d="M199 -50q-30 -17 -49.5 -6t-19.5 46t19.5 69t49.5 51t49.5 6t19.5 -46v-120q0 -21 -9.5 -45t-25 -44t-34.5 -31v120zM199 -50v-120l-86 50v120zM249 116q-20 11 -50 -6t-49.5 -51t-19.5 -69t19 -46l-86 50q-20 11 -20 46t19.5 69t50.5 51q30 17 49 6z" />
    <glyph glyph-name="copyright" unicode="&#xa9;" horiz-adv-x="727" 
d="M511 770q46 27 85.5 21.5t63.5 -37t24 -84.5v-280q0 -40 -14 -84t-38 -86t-55.5 -76t-65.5 -54l-208 -120q-46 -26 -85.5 -21t-63.5 36.5t-24 84.5v280q0 40 14 84t38 86t55.5 76t65.5 54zM511 670l-208 -120q-23 -13 -42.5 -38.5t-31.5 -55t-12 -56.5v-280q0 -40 26 -55
t60 5l208 120q23 13 42.5 38.5t32 55.5t12.5 56v280q0 40 -26.5 55t-60.5 -5zM407 370q34 20 60.5 5t26.5 -55l-87 -50q-34 -20 -60.5 -5t-26.5 55q0 27 12.5 56.5t32 55t42.5 38.5l87 50v-100zM571 675q27 -15 27 -55v-280q0 -26 -12.5 -56t-32 -55.5t-42.5 -38.5
l-208 -120q-34 -20 -60 -5l-87 50q26 -15 61 5l207 120q23 13 43 38.5t32 55.5t12 56v280q0 40 -26 55zM468 375q-27 15 -61 -5l-87 50q35 20 61 5zM494 520l-87 -50q-23 -13 -42.5 -38.5t-32 -55t-12.5 -56.5q0 -40 27 -55l-87 50q-26 15 -26 55q0 27 12 56.5t31.5 55
t42.5 38.5l87 50zM632 780q-24 13 -55.5 11.5t-65.5 -21.5l-208 -120q-34 -20 -65.5 -54t-55.5 -76t-38 -86t-14 -84v-280q0 -40 14 -68t38 -42l-87 50q-23 14 -37.5 42t-14.5 68v280q0 40 14 84t38.5 86t55.5 76t66 54l207 120q35 20 66.5 21.5t54.5 -11.5z" />
    <glyph glyph-name="currency" unicode="&#xa4;" horiz-adv-x="606" 
d="M217 100q-35 -20 -61 -5t-26 55v200q0 27 12 56.5t32 55t43 38.5l259 150q35 20 61 5t26 -55v-200q0 -26 -12 -56t-32 -55.5t-43 -38.5zM476 550l-259 -150v-200l259 150v200zM217 500l-87 -50v100q34 20 60.5 5t26.5 -55zM476 650q0 27 12 56.5t32 55t43 38.5v-100z
M130 -50v100l87 50q0 -26 -12.5 -56t-32 -55.5t-42.5 -38.5zM563 200q-35 -20 -61 -5t-26 55l87 50v-100zM476 550v-200l-86 50v200zM217 100l-87 -50l-87 50l87 50zM130 50v-100l-87 50v100zM563 300l-87 -50l-86 50l86 50zM476 250q0 -40 26 -55l-86 50q-26 15 -26 55z
M476 350l-259 -150l-87 50l260 150zM537 655q-26 15 -61 -5l-259 -150q-23 -13 -43 -38.5t-32 -55t-12 -56.5v-200q0 -40 26 -55l-87 50q-26 15 -26 55v200q0 27 12 56.5t32 55t43 38.5l260 150q34 20 60 5zM190 555q-26 15 -60 -5l-87 50q35 20 61 5zM130 550v-100l-87 50
v100zM563 800q-23 -13 -43 -38.5t-32 -55t-12 -56.5l-86 50q0 27 12 56.5t31.5 55t42.5 38.5z" />
    <glyph glyph-name="d" unicode="d" 
d="M217 500l86 50q35 20 61 5t26 -55v250l86 50v-690q-34 -20 -60 -5t-26 55q0 -26 -12 -56t-32 -55.5t-43 -38.5l-86 -50q-35 -20 -61 -5t-26 55v340q0 27 12 56.5t32 55t43 38.5zM217 400v-340l173 100v340zM390 160q0 -40 26 -55l-87 50q-26 15 -26 55zM476 800l-86 -50
l-87 50l87 50zM390 750v-250l-87 50v250zM390 500v-340l-87 50v340zM390 160l-173 -100l-87 50l173 100zM364 555q-26 15 -61 -5l-86 -50q-23 -13 -43 -38.5t-32 -55t-12 -56.5v-340q0 -40 26 -55l-87 50q-26 15 -26 55v340q0 27 12 56.5t32 55t43 38.5l87 50q34 20 60 5z
" />
    <glyph glyph-name="dagger" unicode="&#x2020;" horiz-adv-x="433" 
d="M303 790l87 50v-100l-87 -50v-400l-86 -50v400l-87 -50v100l87 50v100l86 50v-100zM217 840v-100l-87 50v100zM217 640v-400l-87 50v400zM390 840l-87 -50l-86 50l86 50zM303 890l-86 -50l-87 50l87 50zM217 740l-87 -50l-87 50l87 50zM130 690v-100l-87 50v100z" />
    <glyph glyph-name="daggerdbl" unicode="&#x2021;" horiz-adv-x="433" 
d="M217 540v100l-87 -50v100l87 50v100l86 50v-100l87 50v-100l-87 -50v-100l87 50v-100l-87 -50v-200l-86 -50v200l-87 -50v100zM217 540l-87 -50l-87 50l87 50zM217 440v-200l-87 50v200zM390 640l-87 -50l-86 50l86 50zM390 840l-87 -50l-86 50l86 50zM217 840v-100
l-87 50v100zM217 640v-100l-87 50v100zM130 490v-100l-87 50v100zM303 890l-86 -50l-87 50l87 50zM217 740l-87 -50l-87 50l87 50zM130 690v-100l-87 50v100z" />
    <glyph glyph-name="dcaron" unicode="&#x10f;" horiz-adv-x="606" 
d="M217 500l86 50q35 20 61 5t26 -55v250l86 50v-690q-34 -20 -60 -5t-26 55q0 -26 -12 -56t-32 -55.5t-43 -38.5l-86 -50q-35 -20 -61 -5t-26 55v340q0 27 12 56.5t32 55t43 38.5zM217 400v-340l173 100v340zM606 715q-34 -20 -60 -5t-26 55v60l86 50v-160zM390 160
q0 -40 26 -55l-87 50q-26 15 -26 55zM390 750v-250l-87 50v250zM390 500v-340l-87 50v340zM606 875l-86 -50l-87 50l87 50zM520 825v-60q0 -40 26 -55l-87 50q-26 15 -26 55v60zM476 800l-86 -50l-87 50l87 50zM390 160l-173 -100l-87 50l173 100zM364 555q-26 15 -61 -5
l-86 -50q-23 -13 -43 -38.5t-32 -55t-12 -56.5v-340q0 -40 26 -55l-87 50q-26 15 -26 55v340q0 27 12 56.5t32 55t43 38.5l87 50q34 20 60 5z" />
    <glyph glyph-name="dcroat" unicode="&#x111;" horiz-adv-x="563" 
d="M476 765l87 50v-100l-87 -50v-555q-34 -20 -60 -5t-26 55q0 -26 -12 -56t-32 -55.5t-43 -38.5l-86 -50q-35 -20 -61 -5t-26 55v340q0 27 12 56.5t32 55t43 38.5l86 50q35 20 61 5t26 -55v115l-87 -50v100l87 50v35l86 50v-35zM217 400v-340l173 100v340zM390 750v-35
l-87 50v35zM390 715l-87 -50l-86 50l86 50zM390 615v-115l-87 50v115zM390 160q0 -40 26 -55l-87 50q-26 15 -26 55zM563 815l-87 -50l-86 50l86 50zM390 500v-340l-87 50v340zM476 800l-86 -50l-87 50l87 50zM390 160l-173 -100l-87 50l173 100zM364 555q-26 15 -61 -5
l-86 -50q-23 -13 -43 -38.5t-32 -55t-12 -56.5v-340q0 -40 26 -55l-87 50q-26 15 -26 55v340q0 27 12 56.5t32 55t43 38.5l87 50q34 20 60 5zM303 665v-100l-86 50v100z" />
    <glyph glyph-name="degree" unicode="&#xb0;" horiz-adv-x="476" 
d="M217 790l129 75q35 20 61 5t26 -55v-150q0 -26 -12 -56t-32 -55.5t-43 -38.5l-129 -75q-35 -20 -61 -5t-26 55v150q0 27 12 56.5t32 55t43 38.5zM217 540l129 75v150l-129 -75v-150zM346 765v-150l-86 50v150zM346 615l-129 -75l-87 50l130 75zM407 870q-26 15 -61 -5
l-129 -75q-23 -13 -43 -38.5t-32 -55t-12 -56.5v-150q0 -40 26 -55l-87 50q-26 15 -26 55v150q0 27 12 56.5t32 55t43 38.5l130 75q34 20 60 5z" />
    <glyph glyph-name="dieresis" unicode="&#xa8;" 
d="M191 635q-27 -15 -44 -5t-17 40t17 60t44 45q26 15 43 5t17 -40t-17 -60t-43 -45zM416 765q-27 -15 -44 -5t-17 40t17 60t44 45q26 15 43 5t17 -40t-17 -60t-43 -45zM234 780q-17 10 -43 -5q-27 -15 -44 -45t-17 -60t17 -40l-87 50q-17 10 -17 40t17.5 60t43.5 45t43 5z
M459 910q-17 10 -43 -5q-27 -15 -44 -45t-17 -60t17 -40l-86 50q-18 10 -18 40t17.5 60t43.5 45t44 5z" />
    <glyph glyph-name="divide" unicode="&#xf7;" 
d="M130 250l346 200v-100l-346 -200v100zM260 175l86 50v-100l-86 -50v100zM260 475l86 50v-100l-86 -50v100zM346 225l-86 -50l-87 50l87 50zM260 175v-100l-87 50v100zM476 450l-346 -200l-87 50l347 200zM130 250v-100l-87 50v100zM346 525l-86 -50l-87 50l87 50z
M260 475v-100l-87 50v100z" />
    <glyph glyph-name="dollar" unicode="$" horiz-adv-x="658" 
d="M217 250q-35 -20 -61 -5t-26 55v150q0 27 12 56.5t32 55t43 38.5l112 65v100l87 50v-100l199 115v-100l-199 -115v-150l112 65q35 20 61 5t26 -55v-150q0 -26 -12 -56t-32 -55.5t-43 -38.5l-112 -65v-100l-87 -50v100l-199 -115v100l199 115v150zM416 215l112 65v150
l-112 -65v-150zM329 415v150l-112 -65v-150zM130 50v-100l-87 50v100zM329 65v-100l-87 50v100zM615 830l-199 -115l-87 50l199 115zM528 430v-150l-86 50v150zM528 280l-112 -65l-87 50l113 65zM329 315v-150l-87 50v150zM329 165l-199 -115l-87 50l199 115zM589 535
q-26 15 -61 -5l-112 -65l-87 50l113 65q34 20 60 5zM416 815l-87 -50l-87 50l87 50zM329 765v-100l-87 50v100zM329 565v-150l-87 50v150zM329 415l-112 -65l-87 50l112 65zM329 665l-112 -65q-23 -13 -43 -38.5t-32 -55t-12 -56.5v-150q0 -40 26 -55l-87 50q-26 15 -26 55
v150q0 27 12 56.5t32 55t43 38.5l112 65z" />
    <glyph glyph-name="dotaccent" unicode="&#x2d9;" 
d="M303 660q-26 -15 -43.5 -5t-17.5 40t17.5 60t43.5 45t43.5 5t17.5 -40t-17.5 -60t-43.5 -45zM347 805q-18 10 -44 -5t-43.5 -45t-17.5 -60t18 -40l-87 50q-17 10 -17 40t17 60t44 45q26 15 43 5z" />
    <glyph glyph-name="dotlessi" unicode="&#x131;" 
d="M260 125v300l-130 -75v100l346 200v-100l-130 -75v-300l130 75v-100l-346 -200v100zM260 125l-130 -75l-87 50l130 75zM130 50v-100l-87 50v100zM476 250l-130 -75l-86 50l130 75zM260 425v-300l-87 50v300zM476 650l-346 -200l-87 50l347 200zM130 450v-100l-87 50v100z
" />
    <glyph glyph-name="e" unicode="e" 
d="M217 540l173 100q34 20 60 5t26 -55v-150q0 -26 -12 -56t-31.5 -55.5t-42.5 -38.5l-87 -50q-34 -20 -60 -5t-26 55v-230l259 150v-100l-259 -150q-35 -20 -61 -5t-26 55v380q0 27 12 56.5t32 55t43 38.5zM390 540l-173 -100v-150l173 100v150zM476 210l-259 -150l-87 50
l260 150zM390 540v-150l-87 50v150zM217 290q0 -40 26 -55l-87 50q-26 15 -26 55zM390 390l-173 -100l-87 50l173 100zM450 645q-26 15 -60 -5l-173 -100q-23 -13 -43 -38.5t-32 -55t-12 -56.5v-380q0 -40 26 -55l-87 50q-26 15 -26 55v380q0 27 12 56.5t32 55t43 38.5
l173 100q35 20 61 5z" />
    <glyph glyph-name="eacute" unicode="&#xe9;" 
d="M217 540l173 100q34 20 60 5t26 -55v-150q0 -26 -12 -56t-31.5 -55.5t-42.5 -38.5l-87 -50q-34 -20 -60 -5t-26 55v-230l259 150v-100l-259 -150q-35 -20 -61 -5t-26 55v380q0 27 12 56.5t32 55t43 38.5zM390 540l-173 -100v-150l173 100v150zM168 709l207 252l46 -60
l-207 -252zM476 210l-259 -150l-87 50l260 150zM390 540v-150l-87 50v150zM217 290q0 -40 26 -55l-87 50q-26 15 -26 55zM390 390l-173 -100l-87 50l173 100zM450 645q-26 15 -60 -5l-173 -100q-23 -13 -43 -38.5t-32 -55t-12 -56.5v-380q0 -40 26 -55l-87 50q-26 15 -26 55
v380q0 27 12 56.5t32 55t43 38.5l173 100q35 20 61 5zM375 961l-207 -252l-87 50l207 252zM168 709l46 -60l-87 50l-46 60z" />
    <glyph glyph-name="ecaron" unicode="&#x11b;" 
d="M217 540l173 100q34 20 60 5t26 -55v-150q0 -26 -12 -56t-31.5 -55.5t-42.5 -38.5l-87 -50q-34 -20 -60 -5t-26 55v-230l259 150v-100l-259 -150q-35 -20 -61 -5t-26 55v380q0 27 12 56.5t32 55t43 38.5zM325 723l-185 27l45 96l119 -26l119 163l51 -58zM390 540
l-173 -100v-150l173 100v150zM476 210l-259 -150l-87 50l260 150zM423 983l-119 -163l-87 50l119 163zM304 820l-119 26l-86 50l118 -26zM390 540v-150l-87 50v150zM217 290q0 -40 26 -55l-87 50q-26 15 -26 55zM390 390l-173 -100l-87 50l173 100zM450 645q-26 15 -60 -5
l-173 -100q-23 -13 -43 -38.5t-32 -55t-12 -56.5v-380q0 -40 26 -55l-87 50q-26 15 -26 55v380q0 27 12 56.5t32 55t43 38.5l173 100q35 20 61 5zM185 846l-45 -96l-86 50l45 96z" />
    <glyph glyph-name="ecircumflex" unicode="&#xea;" 
d="M217 540l173 100q34 20 60 5t26 -55v-150q0 -26 -12 -56t-31.5 -55.5t-42.5 -38.5l-87 -50q-34 -20 -60 -5t-26 55v-230l259 150v-100l-259 -150q-35 -20 -61 -5t-26 55v380q0 27 12 56.5t32 55t43 38.5zM317 821l-132 -180l-47 52l166 228l166 -36l-41 -90zM390 540
l-173 -100v-150l173 100v150zM476 210l-259 -150l-87 50l260 150zM470 885l-166 36l-87 50l167 -36zM390 540v-150l-87 50v150zM217 290q0 -40 26 -55l-87 50q-26 15 -26 55zM390 390l-173 -100l-87 50l173 100zM450 645q-26 15 -60 -5l-173 -100q-23 -13 -43 -38.5t-32 -55
t-12 -56.5v-380q0 -40 26 -55l-87 50q-26 15 -26 55v380q0 27 12 56.5t32 55t43 38.5l173 100q35 20 61 5zM304 921l-166 -228l-87 50l166 228zM138 693l47 -52l-86 50l-48 52z" />
    <glyph glyph-name="edieresis" unicode="&#xeb;" 
d="M217 540l173 100q34 20 60 5t26 -55v-150q0 -26 -12 -56t-31.5 -55.5t-42.5 -38.5l-87 -50q-34 -20 -60 -5t-26 55v-230l259 150v-100l-259 -150q-35 -20 -61 -5t-26 55v380q0 27 12 56.5t32 55t43 38.5zM390 540l-173 -100v-150l173 100v150zM191 635q-27 -15 -44 -5
t-17 40t17 60t44 45q26 15 43 5t17 -40t-17 -60t-43 -45zM416 765q-27 -15 -44 -5t-17 40t17 60t44 45q26 15 43 5t17 -40t-17 -60t-43 -45zM476 210l-259 -150l-87 50l260 150zM390 540v-150l-87 50v150zM459 910q-17 10 -43 -5q-27 -15 -44 -45t-17 -60t17 -40l-86 50
q-18 10 -18 40t17.5 60t43.5 45t44 5zM217 290q0 -40 26 -55l-87 50q-26 15 -26 55zM390 390l-173 -100l-87 50l173 100zM450 645q-26 15 -60 -5l-173 -100q-23 -13 -43 -38.5t-32 -55t-12 -56.5v-380q0 -40 26 -55l-87 50q-26 15 -26 55v380q0 27 12 56.5t32 55t43 38.5
l173 100q35 20 61 5zM234 780q-17 10 -43 -5q-27 -15 -44 -45t-17 -60t17 -40l-87 50q-17 10 -17 40t17.5 60t43.5 45t43 5z" />
    <glyph glyph-name="edotaccent" unicode="&#x117;" 
d="M217 540l173 100q34 20 60 5t26 -55v-150q0 -26 -12 -56t-31.5 -55.5t-42.5 -38.5l-87 -50q-34 -20 -60 -5t-26 55v-230l259 150v-100l-259 -150q-35 -20 -61 -5t-26 55v380q0 27 12 56.5t32 55t43 38.5zM390 540l-173 -100v-150l173 100v150zM303 700q-26 -15 -43.5 -5
t-17.5 40t17.5 60t43.5 45t43.5 5t17.5 -40t-17.5 -60t-43.5 -45zM476 210l-259 -150l-87 50l260 150zM390 540v-150l-87 50v150zM217 290q0 -40 26 -55l-87 50q-26 15 -26 55zM390 390l-173 -100l-87 50l173 100zM450 645q-26 15 -60 -5l-173 -100q-23 -13 -43 -38.5
t-32 -55t-12 -56.5v-380q0 -40 26 -55l-87 50q-26 15 -26 55v380q0 27 12 56.5t32 55t43 38.5l173 100q35 20 61 5zM347 845q-18 10 -44 -5t-43.5 -45t-17.5 -60t18 -40l-87 50q-17 10 -17 40t17 60t44 45q26 15 43 5z" />
    <glyph glyph-name="egrave" unicode="&#xe8;" 
d="M217 540l173 100q34 20 60 5t26 -55v-150q0 -26 -12 -56t-31.5 -55.5t-42.5 -38.5l-87 -50q-34 -20 -60 -5t-26 55v-230l259 150v-100l-259 -150q-35 -20 -61 -5t-26 55v380q0 27 12 56.5t32 55t43 38.5zM189 901l241 -57l-50 -103l-241 56zM390 540l-173 -100v-150
l173 100v150zM476 210l-259 -150l-87 50l260 150zM430 844l-241 57l-87 50l241 -57zM390 540v-150l-87 50v150zM217 290q0 -40 26 -55l-87 50q-26 15 -26 55zM390 390l-173 -100l-87 50l173 100zM450 645q-26 15 -60 -5l-173 -100q-23 -13 -43 -38.5t-32 -55t-12 -56.5v-380
q0 -40 26 -55l-87 50q-26 15 -26 55v380q0 27 12 56.5t32 55t43 38.5l173 100q35 20 61 5zM189 901l-50 -104l-86 50l49 104z" />
    <glyph glyph-name="eight" unicode="8" 
d="M217 380q-35 -20 -61 -5t-26 55v110q0 27 12 56.5t32 55t43 38.5l173 100q34 20 60 5t26 -55v-110q0 -26 -12 -56t-31.5 -55.5t-42.5 -38.5q34 20 60 5t26 -55v-220q0 -26 -12 -56t-31.5 -55.5t-42.5 -38.5l-173 -100q-35 -20 -61 -5t-26 55v220q0 27 12 56.5t32 55
t43 38.5zM217 60l173 100v220l-173 -100v-220zM217 380l173 100v210l-173 -100v-210zM450 485q-26 15 -60 -5l-87 50q35 20 61 5zM390 380v-220l-87 50v220zM390 160l-173 -100l-87 50l173 100zM217 380q-23 -13 -43 -38.5t-32 -55t-12 -56.5v-220q0 -40 26 -55l-87 50
q-26 15 -26 55v220q0 27 12 56.5t32 55t43 38.5zM390 690v-210l-87 50v210zM390 480l-173 -100l-87 50l173 100zM450 795q-26 15 -60 -5l-173 -100q-23 -13 -43 -38.5t-32 -55t-12 -56.5v-110q0 -40 26 -55l-87 50q-26 15 -26 55v110q0 27 12 56.5t32 55t43 38.5l173 100
q35 20 61 5z" />
    <glyph glyph-name="ellipsis" unicode="&#x2026;" horiz-adv-x="658" 
d="M546 150q-31 -17 -50.5 -6t-19.5 46t19.5 69t50.5 51q30 17 49.5 6t19.5 -46t-19.5 -69t-49.5 -51zM199 -50q-30 -17 -49.5 -6t-19.5 46t19.5 69t49.5 51t49.5 6t19.5 -46t-19.5 -69t-49.5 -51zM372 50q-30 -17 -49.5 -6t-19.5 46t19.5 69t49.5 51q31 17 50.5 6t19.5 -46
t-19.5 -69t-50.5 -51zM595 316q-19 11 -49 -6q-31 -17 -50.5 -51t-19.5 -69t20 -46l-87 50q-19 11 -19 46t19.5 69t49.5 51t50 6zM422 216q-19 11 -50 -6q-30 -17 -49.5 -51t-19.5 -69t20 -46l-87 50q-19 11 -19 46t19.5 69t49.5 51t49 6zM249 116q-20 11 -50 -6t-49.5 -51
t-19.5 -69t19 -46l-86 50q-20 11 -20 46t19.5 69t50.5 51q30 17 49 6z" />
    <glyph glyph-name="emacron" unicode="&#x113;" 
d="M217 540l173 100q34 20 60 5t26 -55v-150q0 -26 -12 -56t-31.5 -55.5t-42.5 -38.5l-87 -50q-34 -20 -60 -5t-26 55v-230l259 150v-100l-259 -150q-35 -20 -61 -5t-26 55v380q0 27 12 56.5t32 55t43 38.5zM390 540l-173 -100v-150l173 100v150zM156 735l260 150v-100
l-260 -150v100zM476 210l-259 -150l-87 50l260 150zM390 540v-150l-87 50v150zM217 290q0 -40 26 -55l-87 50q-26 15 -26 55zM390 390l-173 -100l-87 50l173 100zM450 645q-26 15 -60 -5l-173 -100q-23 -13 -43 -38.5t-32 -55t-12 -56.5v-380q0 -40 26 -55l-87 50
q-26 15 -26 55v380q0 27 12 56.5t32 55t43 38.5l173 100q35 20 61 5zM416 885l-260 -150l-87 50l260 150zM156 735v-100l-87 50v100z" />
    <glyph glyph-name="emdash" unicode="&#x2014;" horiz-adv-x="779" 
d="M130 150v100l606 350v-100zM736 600l-606 -350l-87 50l607 350zM130 250v-100l-87 50v100z" />
    <glyph glyph-name="endash" unicode="&#x2013;" horiz-adv-x="606" 
d="M130 150v100l433 250v-100zM563 500l-433 -250l-87 50l433 250zM130 250v-100l-87 50v100z" />
    <glyph glyph-name="eng" unicode="&#x14b;" 
d="M303 -50l87 50v540l-173 -100v-440l-87 -50v540l87 50v-100q0 27 12 56.5t31.5 55t42.5 38.5l87 50q34 20 60 5t26 -55v-540q0 -26 -12 -56t-31.5 -55.5t-42.5 -38.5l-87 -50v100zM390 540v-540l-87 50v540zM390 0l-87 -50l-86 50l86 50zM303 -50v-100l-86 50v100z
M450 645q-26 15 -60 -5l-87 -50q-23 -13 -42.5 -38.5t-31.5 -55t-12 -56.5l-87 50q0 27 12 56.5t32 55t43 38.5l86 50q35 20 61 5zM130 490v-540l-87 50v540zM217 540l-87 -50l-87 50l87 50z" />
    <glyph glyph-name="eogonek" unicode="&#x119;" 
d="M390 60v-100l86 50v-100l-86 -50q-35 -20 -61 -5t-26 55q0 27 12 56.5t32 55t43 38.5l-173 -100q-35 -20 -61 -5t-26 55v380q0 27 12 56.5t32 55t43 38.5l173 100q34 20 60 5t26 -55v-150q0 -26 -12 -56t-31.5 -55.5t-42.5 -38.5l-87 -50q-34 -20 -60 -5t-26 55v-230
l259 150v-100zM390 540l-173 -100v-150l173 100v150zM476 10l-86 -50l-87 50l87 50zM390 540v-150l-87 50v150zM390 60q-23 -13 -43 -38.5t-32 -55t-12 -56.5q0 -40 26 -55l-86 50q-26 15 -26 55q0 26 12 56t31.5 55.5t42.5 38.5zM476 210l-259 -150l-87 50l260 150z
M217 290q0 -40 26 -55l-87 50q-26 15 -26 55zM390 390l-173 -100l-87 50l173 100zM450 645q-26 15 -60 -5l-173 -100q-23 -13 -43 -38.5t-32 -55t-12 -56.5v-380q0 -40 26 -55l-87 50q-26 15 -26 55v380q0 27 12 56.5t32 55t43 38.5l173 100q35 20 61 5z" />
    <glyph glyph-name="equal" unicode="=" 
d="M130 130l346 200v-100l-346 -200v100zM130 370l346 200v-100l-346 -200v100zM476 330l-346 -200l-87 50l347 200zM130 130v-100l-87 50v100zM476 570l-346 -200l-87 50l347 200zM130 370v-100l-87 50v100z" />
    <glyph glyph-name="eth" unicode="&#xf0;" horiz-adv-x="519" 
d="M356 770q35 6 63 -8l41 58l50 -53l-43 -60q9 -25 9 -57v-540q-34 -20 -60 -5t-26 55q0 -26 -12 -56t-32 -55.5t-43 -38.5l-86 -50q-35 -20 -61 -5t-26 55v340q0 27 12 56.5t32 55t43 38.5l86 50q35 20 61 5t26 -55v100q0 33 -25.5 51.5t-55.5 16.5zM217 400v-340l173 100
v340zM460 820l-41 -58l-87 50l42 58zM419 762q-28 14 -63 8l-86 50q34 6 62 -8zM356 657q15 -8 24.5 -23t9.5 -34v-100l-87 50v100q0 19 -9.5 34t-24.5 23zM390 160q0 -40 26 -55l-87 50q-26 15 -26 55zM390 500v-340l-87 50v340zM356 770l-47 -102l-86 50l47 102zM390 160
l-173 -100l-87 50l173 100zM364 555q-26 15 -61 -5l-86 -50q-23 -13 -43 -38.5t-32 -55t-12 -56.5v-340q0 -40 26 -55l-87 50q-26 15 -26 55v340q0 27 12 56.5t32 55t43 38.5l87 50q34 20 60 5z" />
    <glyph glyph-name="exclam" unicode="!" horiz-adv-x="277" 
d="M225 885v-700l-86 -50v700zM182 -50q-27 -15 -44 -5t-17 40t17 60t44 45q26 15 43 5t17 -40t-17 -60t-43 -45zM225 885l-86 -50l-87 50l87 50zM225 95q-17 10 -43 -5q-27 -15 -44 -45t-17 -60t17 -40l-86 50q-17 10 -17 40t17 60t43 45q27 15 44 5zM139 835v-700l-87 50
v700z" />
    <glyph glyph-name="exclamdown" unicode="&#xa1;" horiz-adv-x="277" 
d="M225 5l-86 -50v680l86 50v-680zM182 870q26 15 43 5t17 -40t-17 -60t-43 -45q-27 -15 -44 -5t-17 40t17 60t44 45zM225 685l-86 -50l-87 50l87 50zM139 635v-680l-87 50v680zM225 875q-17 10 -43 -5q-27 -15 -44 -45t-17 -60t17 -40l-86 50q-17 10 -17 40t17 60t43 45
q27 15 44 5z" />
    <glyph glyph-name="f" unicode="f" 
d="M217 300l-87 -50v100l87 50v140q0 27 12 56.5t31.5 55t42.5 38.5l173 100v-100l-173 -100v-240q0 27 12 56.5t32 55t43 38.5l86 50v-100l-173 -100v-340l-86 -50v340zM217 300v-340l-87 50v340zM476 550l-86 -50q-23 -13 -43 -38.5t-32 -55t-12 -56.5l-86 50
q0 27 12 56.5t31.5 55t42.5 38.5l87 50zM476 790l-173 -100q-23 -13 -42.5 -38.5t-31.5 -55t-12 -56.5v-140l-87 50v140q0 27 12 56.5t32 55t43 38.5l173 100zM217 400l-87 -50l-87 50l87 50zM130 350v-100l-87 50v100z" />
    <glyph glyph-name="five" unicode="5" 
d="M390 380l-173 -100q-35 -20 -61 -5t-26 55v270l87 50v0l259 150v-100l-173 -100q-34 -20 -60 -5t-26 55v-270l173 100q34 20 60 5t26 -55v-180q0 -26 -12 -56t-31.5 -55.5t-42.5 -38.5l-260 -150v100l260 150v180zM390 380v-180l-87 50v180zM390 200l-260 -150l-87 50
l260 150zM130 50v-100l-87 50v100zM476 800l-259 -150l-87 50l260 150zM450 485q-26 15 -60 -5l-173 -100l-87 50l173 100q35 20 61 5zM217 650q0 -40 26 -55l-87 50q-26 15 -26 55zM130 600v-270q0 -40 26 -55l-87 50q-26 15 -26 55v270zM217 650l-87 -50l-87 50l87 50z
" />
    <glyph glyph-name="four" unicode="4" 
d="M217 650v-400l173 100v400l86 50v-800l-86 -50v400q0 -26 -12 -56t-32 -55.5t-43 -38.5l-173 -100v400q0 27 12 56.5t32 55t43 38.5zM390 350v-400l-87 50v400zM476 800l-86 -50l-87 50l87 50zM390 750v-400l-87 50v400zM390 350l-173 -100l-87 50l173 100zM217 650
q-23 -13 -43 -38.5t-32 -55t-12 -56.5v-400l-87 50v400q0 27 12 56.5t32 55t43 38.5z" />
    <glyph glyph-name="g" unicode="g" 
d="M217 90q-35 -20 -61 -5t-26 55v210q0 27 12 56.5t32 55t43 38.5l86 50q35 20 61 5t26 -55v100l86 50v-540q0 -26 -12 -56t-31.5 -55.5t-42.5 -38.5l-260 -150v100l260 150v230q0 -26 -12 -56t-32 -55.5t-43 -38.5zM217 190l173 100v210l-173 -100v-210zM390 290v-230
l-87 50v230zM390 60l-260 -150l-87 50l260 150zM130 -90v-100l-87 50v100zM476 650l-86 -50l-87 50l87 50zM390 600v-100l-87 50v100zM390 500v-210l-87 50v210zM390 290l-173 -100l-87 50l173 100zM364 555q-26 15 -61 -5l-86 -50q-23 -13 -43 -38.5t-32 -55t-12 -56.5
v-210q0 -40 26 -55l-87 50q-26 15 -26 55v210q0 27 12 56.5t32 55t43 38.5l87 50q34 20 60 5z" />
    <glyph glyph-name="gbreve" unicode="&#x11f;" 
d="M217 90q-35 -20 -61 -5t-26 55v210q0 27 12 56.5t32 55t43 38.5l86 50q35 20 61 5t26 -55v100l86 50v-540q0 -26 -12 -56t-31.5 -55.5t-42.5 -38.5l-260 -150v100l260 150v230q0 -26 -12 -56t-32 -55.5t-43 -38.5zM303 670q-46 -26 -85.5 -21t-63.5 36.5t-24 84.5l87 50
q0 -40 26 -55t60 5q23 13 43 38.5t32 55.5t12 56l86 50q0 -40 -14 -84t-38 -86t-55 -76t-66 -54zM217 190l173 100v210l-173 -100v-210zM390 290v-230l-87 50v230zM390 60l-260 -150l-87 50l260 150zM130 -90v-100l-87 50v100zM476 650l-86 -50l-87 50l87 50zM390 600v-100
l-87 50v100zM476 970l-86 -50l-87 50l87 50zM390 500v-210l-87 50v210zM390 920q0 -26 -12 -56t-32 -55.5t-43 -38.5q-34 -20 -60 -5l-87 50q26 -15 61 5q22 13 42 38.5t32 55.5t12 56zM130 770q0 -40 14 -68t38 -42l-87 50q-23 14 -37.5 42t-14.5 68zM390 290l-173 -100
l-87 50l173 100zM364 555q-26 15 -61 -5l-86 -50q-23 -13 -43 -38.5t-32 -55t-12 -56.5v-210q0 -40 26 -55l-87 50q-26 15 -26 55v210q0 27 12 56.5t32 55t43 38.5l87 50q34 20 60 5zM217 820l-87 -50l-87 50l87 50z" />
    <glyph glyph-name="gcaron" unicode="&#x1e7;" 
d="M217 90q-35 -20 -61 -5t-26 55v210q0 27 12 56.5t32 55t43 38.5l86 50q35 20 61 5t26 -55v100l86 50v-540q0 -26 -12 -56t-31.5 -55.5t-42.5 -38.5l-260 -150v100l260 150v230q0 -26 -12 -56t-32 -55.5t-43 -38.5zM217 190l173 100v210l-173 -100v-210zM325 683l-185 27
l45 96l119 -26l119 163l51 -58zM390 290v-230l-87 50v230zM390 60l-260 -150l-87 50l260 150zM130 -90v-100l-87 50v100zM476 650l-86 -50l-87 50l87 50zM390 600v-100l-87 50v100zM390 500v-210l-87 50v210zM423 943l-119 -163l-87 50l119 163zM390 290l-173 -100l-87 50
l173 100zM304 780l-119 26l-86 50l118 -26zM185 806l-45 -96l-86 50l45 96zM364 555q-26 15 -61 -5l-86 -50q-23 -13 -43 -38.5t-32 -55t-12 -56.5v-210q0 -40 26 -55l-87 50q-26 15 -26 55v210q0 27 12 56.5t32 55t43 38.5l87 50q34 20 60 5z" />
    <glyph glyph-name="gcircumflex" unicode="&#x11d;" 
d="M217 90q-35 -20 -61 -5t-26 55v210q0 27 12 56.5t32 55t43 38.5l86 50q35 20 61 5t26 -55v100l86 50v-540q0 -26 -12 -56t-31.5 -55.5t-42.5 -38.5l-260 -150v100l260 150v230q0 -26 -12 -56t-32 -55.5t-43 -38.5zM217 190l173 100v210l-173 -100v-210zM317 771
l-132 -180l-47 52l166 228l166 -36l-41 -90zM390 290v-230l-87 50v230zM390 60l-260 -150l-87 50l260 150zM130 -90v-100l-87 50v100zM476 650l-86 -50l-87 50l87 50zM390 600v-100l-87 50v100zM390 500v-210l-87 50v210zM470 835l-166 36l-87 50l167 -36zM390 290
l-173 -100l-87 50l173 100zM364 555q-26 15 -61 -5l-86 -50q-23 -13 -43 -38.5t-32 -55t-12 -56.5v-210q0 -40 26 -55l-87 50q-26 15 -26 55v210q0 27 12 56.5t32 55t43 38.5l87 50q34 20 60 5zM304 871l-166 -228l-87 50l166 228zM138 643l47 -52l-86 50l-48 52z" />
    <glyph glyph-name="gdotaccent" unicode="&#x121;" 
d="M217 90q-35 -20 -61 -5t-26 55v210q0 27 12 56.5t32 55t43 38.5l86 50q35 20 61 5t26 -55v100l86 50v-540q0 -26 -12 -56t-31.5 -55.5t-42.5 -38.5l-260 -150v100l260 150v230q0 -26 -12 -56t-32 -55.5t-43 -38.5zM217 190l173 100v210l-173 -100v-210zM303 660
q-26 -15 -43.5 -5t-17.5 40t17.5 60t43.5 45t43.5 5t17.5 -40t-17.5 -60t-43.5 -45zM390 290v-230l-87 50v230zM390 60l-260 -150l-87 50l260 150zM130 -90v-100l-87 50v100zM476 650l-86 -50l-87 50l87 50zM390 600v-100l-87 50v100zM390 500v-210l-87 50v210zM390 290
l-173 -100l-87 50l173 100zM347 805q-18 10 -44 -5t-43.5 -45t-17.5 -60t18 -40l-87 50q-17 10 -17 40t17 60t44 45q26 15 43 5zM364 555q-26 15 -61 -5l-86 -50q-23 -13 -43 -38.5t-32 -55t-12 -56.5v-210q0 -40 26 -55l-87 50q-26 15 -26 55v210q0 27 12 56.5t32 55
t43 38.5l87 50q34 20 60 5z" />
    <glyph glyph-name="germandbls" unicode="&#xdf;" horiz-adv-x="563" 
d="M407 590l26 15v160l-216 -125v-640l-87 -50v640q0 27 12 56.5t32 55t43 38.5l216 125q34 20 60.5 5t26.5 -55v-160q0 -26 -12.5 -56t-32 -55.5t-42.5 -38.5l-26 -15v-60l26 15q34 20 60.5 5t26.5 -55v-120q0 -27 -12.5 -56.5t-32 -55t-42.5 -38.5l-113 -65v100l113 65
v120l-26 -15q-34 -20 -60.5 -5t-26.5 55v60q0 27 12.5 56.5t32 55t42.5 38.5zM433 765v-160l-87 50v160zM433 345v-120l-87 50v120zM433 225l-113 -65l-86 50l112 65zM320 160v-100l-86 50v100zM494 450q-27 15 -61 -5l-26 -15l-87 50l26 15q35 20 61 5zM433 605l-26 -15
q-23 -13 -42.5 -38.5t-32 -55t-12.5 -56.5v-60q0 -40 27 -55l-87 50q-26 15 -26 55v60q0 27 12 56.5t31.5 55t42.5 38.5l26 15zM494 870q-27 15 -61 -5l-216 -125q-23 -13 -43 -38.5t-32 -55t-12 -56.5v-640l-87 50v640q0 27 12 56.5t32 55t43 38.5l216 125q35 20 61 5z" />
    <glyph glyph-name="grave" unicode="`" 
d="M186 880l241 -57l-49 -104l-241 56zM427 823l-241 57l-86 50l240 -57zM186 880l-49 -105l-87 50l50 105z" />
    <glyph glyph-name="gravecomb" unicode="&#x300;" horiz-adv-x="0" 
d="M186 880l241 -57l-49 -104l-241 56zM427 823l-241 57l-86 50l240 -57zM186 880l-49 -105l-87 50l50 105z" />
    <glyph glyph-name="greater" unicode="&#x3e;" horiz-adv-x="516" 
d="M473 498l-300 -373l-43 62l265 329l-265 24l43 112l300 -27v-127zM473 625l-300 27l-86 50l300 -27zM395 516l-265 -329l-87 50l265 329zM130 187l43 -62l-86 50l-44 62zM173 652l-43 -112l-87 50l44 112z" />
    <glyph glyph-name="greaterequal" unicode="&#x2265;" horiz-adv-x="516" 
d="M473 528l-300 -373l-43 62l265 329l-265 24l43 112l300 -27v-127zM130 50l346 200v-100l-346 -200v100zM473 655l-300 27l-86 50l300 -27zM476 250l-346 -200l-87 50l347 200zM130 50v-100l-87 50v100zM395 546l-265 -329l-87 50l265 329zM130 217l43 -62l-86 50l-44 62z
M173 682l-43 -112l-87 50l44 112z" />
    <glyph glyph-name="guillemotleft" unicode="&#xab;" horiz-adv-x="580" 
d="M303 50l-86 -50v100q0 38 -27.5 53.5t-59.5 -3.5v100q22 13 41.5 39t32.5 56t13 55v100l86 50v-100q0 -45 -17.5 -92.5t-43.5 -92.5q26 -15 43.5 -42.5t17.5 -72.5v-100zM364 285v100q21 13 41 39t32.5 56t12.5 55v100l87 50v-100q0 -45 -17.5 -92.5t-43.5 -92.5
q26 -15 43.5 -42.5t17.5 -72.5v-100l-87 -50v100q0 38 -27 53.5t-59 -3.5zM189 153q28 -15 28 -53v-100l-87 50v100q0 38 -27 53zM423 288q27 -15 27 -53v-100l-86 50v100q0 38 -27 53zM537 685l-87 -50l-86 50l86 50zM450 635v-100q0 -25 -12.5 -55t-32.5 -56t-41 -39
l-87 50q22 13 41.5 39t32.5 56t13 55v100zM303 550l-86 -50l-87 50l87 50zM130 250v-100l-87 50v100zM364 385v-100l-87 50v100zM217 500v-100q0 -25 -13 -55t-32.5 -56t-41.5 -39l-87 50q22 13 42 39t32.5 56t12.5 55v100z" />
    <glyph glyph-name="guillemotright" unicode="&#xbb;" horiz-adv-x="580" 
d="M130 -50v100q0 44 16.5 93t44.5 93q-28 11 -44.5 41t-16.5 73v100l87 50v-100q0 -40 26 -55t60 5v-100q-23 -13 -42.5 -38.5t-31.5 -55t-12 -56.5v-100zM364 85v100q0 44 16.5 93t44.5 93q-28 11 -44.5 41t-16.5 73v100l86 50v-100q0 -40 26.5 -55t60.5 5v-100
q-23 -13 -42.5 -38.5t-32 -55t-12.5 -56.5v-100zM537 485q-34 -20 -61 -5l-86 50q26 -15 60 5zM425 371q-28 -44 -44.5 -93t-16.5 -93v-100l-87 50v100q0 44 17 93t45 93zM303 350q-34 -20 -60 -5l-87 50q26 -15 61 5zM191 236q-28 -44 -44.5 -93t-16.5 -93v-100l-87 50v100
q0 44 17 93t45 93zM450 635l-86 -50l-87 50l87 50zM364 585v-100q0 -40 14 -68t37 -42l-86 50q-24 14 -38 42t-14 68v100zM217 500l-87 -50l-87 50l87 50zM130 450v-100q0 -40 14 -68t38 -42l-87 50q-24 14 -38 42t-14 68v100z" />
    <glyph glyph-name="guilsinglleft" unicode="&#x2039;" horiz-adv-x="346" 
d="M303 50l-86 -50v100q0 40 -26.5 55t-60.5 -5v100q23 13 42.5 38.5t32 55.5t12.5 56v100l86 50v-100q0 -43 -16.5 -92.5t-44.5 -92.5q28 -12 44.5 -41.5t16.5 -73.5v-100zM251 260q-4 2 -9 4l-87 50l10 -4zM303 550l-86 -50l-87 50l87 50zM190 155q27 -15 27 -55v-100
l-87 50v100q0 40 -26 55zM217 500v-100q0 -26 -12.5 -56t-32 -55.5t-42.5 -38.5l-87 50q23 13 43 38.5t32 55.5t12 56v100zM130 250v-100l-87 50v100z" />
    <glyph glyph-name="guilsinglright" unicode="&#x203a;" horiz-adv-x="346" 
d="M130 -50v100q0 44 16.5 93t44.5 92q-28 12 -44.5 42t-16.5 73v100l87 50v-100q0 -40 26 -55t60 5v-100q-23 -13 -42.5 -38.5t-31.5 -55t-12 -56.5v-100zM303 350q-34 -20 -60 -5l-87 50q26 -15 61 5zM217 500l-87 -50l-87 50l87 50zM191 235q-28 -43 -44.5 -92t-16.5 -93
v-100l-87 50v100q0 44 17 93t44 92zM130 450v-100q0 -40 14 -68.5t38 -42.5l-86 50q-24 14 -38.5 42.5t-14.5 68.5v100z" />
    <glyph glyph-name="h" unicode="h" 
d="M303 590l87 50q34 20 60 5t26 -55v-440l-86 -50v440l-173 -100v-440l-87 -50v800l87 50v-360q0 27 12 56.5t31.5 55t42.5 38.5zM390 540v-440l-87 50v440zM450 645q-26 15 -60 -5l-87 -50q-23 -13 -42.5 -38.5t-31.5 -55t-12 -56.5l-87 50q0 27 12 56.5t32 55t43 38.5
l86 50q35 20 61 5zM217 800l-87 -50l-87 50l87 50zM130 750v-800l-87 50v800z" />
    <glyph glyph-name="hbar" unicode="&#x127;" horiz-adv-x="563" 
d="M87 625l86 50v100l87 50v-100l86 50v-100l-86 -50v-600l-87 -50v600l-86 -50v100zM346 615l87 50q34 20 60.5 5t26.5 -55v-440l-87 -50v440l-173 -100q0 27 12 56.5t31.5 55t42.5 38.5zM433 565v-440l-87 50v440zM494 670q-27 15 -61 -5l-87 -50q-23 -13 -42.5 -38.5
t-31.5 -55t-12 -56.5l-87 50q0 27 12 56.5t32 55t43 38.5l86 50q35 20 61 5zM173 775v-100l-86 50v100zM173 575v-600l-86 50v600zM346 775l-86 -50l-87 50l87 50zM260 825l-87 -50l-86 50l86 50zM173 675l-86 -50l-87 50l87 50zM87 625v-100l-87 50v100z" />
    <glyph glyph-name="hcircumflex" unicode="&#x125;" 
d="M217 800v-800l-87 -50v800zM303 590l87 50q34 20 60 5t26 -55v-440l-86 -50v440l-173 -100q0 27 12 56.5t31.5 55t42.5 38.5zM291 976l-132 -180l-47 52l166 228l166 -36l-41 -90zM390 540v-440l-87 50v440zM444 1040l-166 36l-87 50l167 -36zM450 645q-26 15 -60 -5
l-87 -50q-23 -13 -42.5 -38.5t-31.5 -55t-12 -56.5l-87 50q0 27 12 56.5t32 55t43 38.5l86 50q35 20 61 5zM217 800l-87 -50l-87 50l87 50zM130 750v-800l-87 50v800zM278 1076l-166 -228l-87 50l166 228zM112 848l47 -52l-86 50l-48 52z" />
    <glyph glyph-name="hungarumlaut" unicode="&#x2dd;" 
d="M114 640l111 209l69 -24l-110 -209zM314 755l110 209l69 -24l-110 -209zM493 940l-69 24l-86 50l68 -24zM424 964l-110 -209l-87 50l111 209zM294 825l-69 24l-86 50l68 -24zM225 849l-111 -209l-86 50l111 209z" />
    <glyph glyph-name="hyphen" unicode="-" horiz-adv-x="433" 
d="M130 150v100l260 150v-100zM390 400l-260 -150l-87 50l260 150zM130 250v-100l-87 50v100z" />
    <glyph glyph-name="i" unicode="i" 
d="M260 125v300l-130 -75v100l346 200v-100l-130 -75v-300l130 75v-100l-346 -200v100zM303 640q-26 -15 -43.5 -5t-17.5 40t17.5 60t43.5 45t43.5 5t17.5 -40t-17.5 -60t-43.5 -45zM260 125l-130 -75l-87 50l130 75zM130 50v-100l-87 50v100zM476 250l-130 -75l-86 50
l130 75zM260 425v-300l-87 50v300zM476 650l-346 -200l-87 50l347 200zM130 450v-100l-87 50v100zM347 785q-18 10 -44 -5t-43.5 -45t-17.5 -60t18 -40l-87 50q-17 10 -17 40t17 60t44 45q26 15 43 5z" />
    <glyph glyph-name="iacute" unicode="&#xed;" 
d="M260 125v300l-130 -75v100l346 200v-100l-130 -75v-300l130 75v-100l-346 -200v100zM168 669l207 252l46 -60l-207 -252zM260 125l-130 -75l-87 50l130 75zM130 50v-100l-87 50v100zM476 250l-130 -75l-86 50l130 75zM260 425v-300l-87 50v300zM476 650l-346 -200l-87 50
l347 200zM130 450v-100l-87 50v100zM375 921l-207 -252l-87 50l207 252zM168 669l46 -60l-87 50l-46 60z" />
    <glyph glyph-name="icircumflex" unicode="&#xee;" 
d="M260 125v300l-130 -75v100l346 200v-100l-130 -75v-300l130 75v-100l-346 -200v100zM317 772l-132 -180l-47 52l166 228l166 -36l-41 -90zM260 125l-130 -75l-87 50l130 75zM130 50v-100l-87 50v100zM476 250l-130 -75l-86 50l130 75zM470 836l-166 36l-87 50l167 -36z
M260 425v-300l-87 50v300zM476 650l-346 -200l-87 50l347 200zM130 450v-100l-87 50v100zM304 872l-166 -228l-87 50l166 228zM138 644l47 -52l-86 50l-48 52z" />
    <glyph glyph-name="idieresis" unicode="&#xef;" 
d="M260 125v300l-130 -75v100l346 200v-100l-130 -75v-300l130 75v-100l-346 -200v100zM191 595q-27 -15 -44 -5t-17 40t17 60t44 45q26 15 43 5t17 -40t-17 -60t-43 -45zM416 725q-27 -15 -44 -5t-17 40t17 60t44 45q26 15 43 5t17 -40t-17 -60t-43 -45zM260 125l-130 -75
l-87 50l130 75zM130 50v-100l-87 50v100zM476 250l-130 -75l-86 50l130 75zM459 870q-17 10 -43 -5q-27 -15 -44 -45t-17 -60t17 -40l-86 50q-18 10 -18 40t17.5 60t43.5 45t44 5zM260 425v-300l-87 50v300zM476 650l-346 -200l-87 50l347 200zM130 450v-100l-87 50v100z
M234 740q-17 10 -43 -5q-27 -15 -44 -45t-17 -60t17 -40l-87 50q-17 10 -17 40t17.5 60t43.5 45t43 5z" />
    <glyph glyph-name="igrave" unicode="&#xec;" 
d="M260 125v300l-130 -75v100l346 200v-100l-130 -75v-300l130 75v-100l-346 -200v100zM190 862l240 -57l-49 -104l-241 56zM260 125l-130 -75l-87 50l130 75zM130 50v-100l-87 50v100zM476 250l-130 -75l-86 50l130 75zM430 805l-240 57l-87 50l241 -57zM260 425v-300
l-87 50v300zM476 650l-346 -200l-87 50l347 200zM130 450v-100l-87 50v100zM190 862l-50 -105l-86 50l49 105z" />
    <glyph glyph-name="ij" unicode="&#x133;" 
d="M390 500l-87 -50v100l173 100v-540q0 -26 -12 -56t-31.5 -55.5t-42.5 -38.5l-260 -150v100l260 150v440zM130 450l87 50v-400l-87 -50v400zM433 735q-26 -15 -43.5 -5t-17.5 40t17.5 60t43.5 45t43.5 5t17.5 -40t-17.5 -60t-43.5 -45zM173 585q-26 -15 -43 -5t-17 40
t17 60t43 45q27 15 44 5t17 -40t-17 -60t-44 -45zM390 500v-440l-87 50v440zM390 60l-260 -150l-87 50l260 150zM130 -90v-100l-87 50v100zM476 650l-173 -100l-86 50l173 100zM477 880q-18 10 -44 -5t-43.5 -45t-17.5 -60t18 -40l-87 50q-17 10 -17 40t17 60t43 45
q27 15 44 5zM303 550v-100l-86 50v100zM217 500l-87 -50l-87 50l87 50zM130 450v-400l-87 50v400zM217 730q-17 10 -44 -5q-26 -15 -43 -45t-17 -60t17 -40l-87 50q-17 10 -17 40t17 60t44 45q26 15 43 5z" />
    <glyph glyph-name="ij_acutecomb.ccmp" 
d="M390 500l-87 -50v100l173 100v-540q0 -26 -12 -56t-31.5 -55.5t-42.5 -38.5l-260 -150v100l260 150v440zM130 450l87 50v-400l-87 -50v400zM168 669l207 252l46 -60l-207 -252zM390 500v-440l-87 50v440zM390 60l-260 -150l-87 50l260 150zM130 -90v-100l-87 50v100z
M476 650l-173 -100l-86 50l173 100zM303 550v-100l-86 50v100zM217 500l-87 -50l-87 50l87 50zM130 450v-400l-87 50v400zM375 921l-207 -252l-87 50l207 252zM168 669l46 -60l-87 50l-46 60z" />
    <glyph glyph-name="imacron" unicode="&#x12b;" 
d="M260 125v300l-130 -75v100l346 200v-100l-130 -75v-300l130 75v-100l-346 -200v100zM156 695l260 150v-100l-260 -150v100zM260 125l-130 -75l-87 50l130 75zM130 50v-100l-87 50v100zM476 250l-130 -75l-86 50l130 75zM260 425v-300l-87 50v300zM476 650l-346 -200
l-87 50l347 200zM130 450v-100l-87 50v100zM416 845l-260 -150l-87 50l260 150zM156 695v-100l-87 50v100z" />
    <glyph glyph-name="iogonek" unicode="&#x12f;" 
d="M390 100v-100l86 50v-100l-86 -50q-35 -20 -61 -5t-26 55q0 26 12 56t32 55.5t43 38.5l-260 -150v100l130 75v300l-130 -75v100l346 200v-100l-130 -75v-300l130 75v-100zM303 640q-26 -15 -43.5 -5t-17.5 40t17.5 60t43.5 45t43.5 5t17.5 -40t-17.5 -60t-43.5 -45z
M476 250l-130 -75l-86 50l130 75zM476 50l-86 -50l-87 50l87 50zM390 100q-23 -13 -43 -38.5t-32 -55.5t-12 -56q0 -40 26 -55l-86 50q-26 15 -26 55q0 26 12 56t31.5 55.5t42.5 38.5zM260 425v-300l-87 50v300zM260 125l-130 -75l-87 50l130 75zM130 50v-100l-87 50v100z
M476 650l-346 -200l-87 50l347 200zM130 450v-100l-87 50v100zM347 785q-18 10 -44 -5t-43.5 -45t-17.5 -60t18 -40l-87 50q-17 10 -17 40t17 60t44 45q26 15 43 5z" />
    <glyph glyph-name="itilde" unicode="&#x129;" 
d="M260 125v300l-130 -75v100l346 200v-100l-130 -75v-300l130 75v-100l-346 -200v100zM167 581l-69 25l79 159q21 44 50.5 61t63.5 5l68 -23l65 130l68 -25l-78 -159q-22 -43 -51.5 -60t-63.5 -6l-68 24zM260 125l-130 -75l-87 50l130 75zM130 50v-100l-87 50v100zM476 250
l-130 -75l-86 50l130 75zM492 913l-68 25l-87 50l68 -25zM424 938l-65 -130l-87 50l65 130zM260 425v-300l-87 50v300zM476 650l-346 -200l-87 50l347 200zM130 450v-100l-87 50v100zM359 808l-68 23q-34 12 -63.5 -5t-50.5 -61l-79 -159l-87 50l79 159q22 44 51.5 61
t62.5 5l68 -23z" />
    <glyph glyph-name="j" unicode="j" horiz-adv-x="433" 
d="M303 550q0 -26 -12 -56t-32 -55.5t-42 -38.5l-87 -50v100l260 150v-540q0 -26 -12 -56t-32 -55.5t-43 -38.5l-173 -100v100l173 100v540zM346 635q-26 -15 -43 -5t-17 40t17 60t43 45q27 15 44 5t17 -40t-17 -60t-44 -45zM303 550v-540l-86 50v540zM303 10l-173 -100
l-87 50l174 100zM130 -90v-100l-87 50v100zM390 600l-260 -150l-87 50l260 150zM130 450v-100l-87 50v100zM390 780q-17 10 -44 -5q-26 -15 -43 -45t-17 -60t17 -40l-87 50q-17 10 -17 40t17 60t44 45q26 15 43 5z" />
    <glyph glyph-name="jcircumflex" unicode="&#x135;" horiz-adv-x="433" 
d="M303 550q0 -26 -12 -56t-32 -55.5t-42 -38.5l-87 -50v100l260 150v-540q0 -26 -12 -56t-32 -55.5t-43 -38.5l-173 -100v100l173 100v540zM273 746l-132 -179l-47 51l166 228l166 -36l-41 -90zM303 550v-540l-86 50v540zM303 10l-173 -100l-87 50l174 100zM130 -90v-100
l-87 50v100zM426 810l-166 36l-87 50l166 -36zM390 600l-260 -150l-87 50l260 150zM130 450v-100l-87 50v100zM260 846l-166 -228l-87 50l166 228zM94 618l47 -51l-86 50l-48 51z" />
    <glyph glyph-name="k" unicode="k" 
d="M390 100v200l-173 -100v-200l-87 -50v800l87 50v-500l173 100v200l86 50v-100q0 -26 -12 -56t-31.5 -55.5t-42.5 -38.5q34 20 60 5t26 -55v-200zM450 405q-26 15 -60 -5l-87 50q35 20 61 5zM476 650l-86 -50l-87 50l87 50zM390 300v-200l-87 50v200zM390 600v-200l-87 50
v200zM390 400l-173 -100l-87 50l173 100zM217 800l-87 -50l-87 50l87 50zM130 750v-800l-87 50v800z" />
    <glyph glyph-name="l" unicode="l" horiz-adv-x="390" 
d="M217 60l129 75v-100l-129 -75q-35 -20 -61 -5t-26 55v740l87 50v-740zM217 800l-87 -50l-87 50l87 50zM346 135l-129 -75l-87 50l130 75zM130 750v-740q0 -40 26 -55l-87 50q-26 15 -26 55v740z" />
    <glyph glyph-name="lacute" unicode="&#x13a;" horiz-adv-x="390" 
d="M217 60l129 75v-100l-129 -75q-35 -20 -61 -5t-26 55v740l87 50v-740zM91 874l207 252l46 -61l-207 -252zM217 800l-87 -50l-87 50l87 50zM346 135l-129 -75l-87 50l130 75zM298 1126l-207 -252l-87 50l207 252zM130 750v-740q0 -40 26 -55l-87 50q-26 15 -26 55v740z
M91 874l46 -61l-87 50l-46 61z" />
    <glyph glyph-name="lcaron" unicode="&#x13e;" horiz-adv-x="390" 
d="M217 60l129 75v-100l-129 -75q-35 -20 -61 -5t-26 55v740l87 50v-740zM346 675q-34 -20 -60 -5t-26 55v100l86 50v-200zM346 135l-129 -75l-87 50l130 75zM346 875l-86 -50l-87 50l87 50zM260 825v-100q0 -40 26 -55l-87 50q-26 15 -26 55v100zM217 800l-87 -50l-87 50
l87 50zM130 750v-740q0 -40 26 -55l-87 50q-26 15 -26 55v740z" />
    <glyph glyph-name="less" unicode="&#x3c;" horiz-adv-x="516" 
d="M130 180v127l300 373l43 -71l-265 -329l265 -24l-43 -103zM473 256l-265 24l-86 50l265 -24zM130 307v-127l-87 50v127zM430 680l-300 -373l-87 50l300 373z" />
    <glyph glyph-name="lessequal" unicode="&#x2264;" horiz-adv-x="516" 
d="M130 300v127l300 373l43 -71l-265 -329l265 -24l-43 -103zM130 50l346 200v-100l-346 -200v100zM476 250l-346 -200l-87 50l347 200zM130 50v-100l-87 50v100zM473 376l-265 24l-86 50l265 -24zM130 427v-127l-87 50v127zM430 800l-300 -373l-87 50l300 373z" />
    <glyph glyph-name="uni20BA" unicode="&#x20ba;" horiz-adv-x="675" 
d="M632 420v-60q0 -40 -14 -84t-38 -86t-55.5 -76t-65.5 -54l-199 -115q-35 -20 -61 -5t-26 55v140l-86 -50v100l86 50v130l-86 -50v100l86 50v110l87 50v-110l156 90v-100l-156 -90v-130l156 90v-100l-156 -90v-140l199 115q23 13 42.5 38.5t32 55.5t12.5 56v60zM632 420
l-86 -50l-87 50l87 50zM546 370v-60q0 -26 -12.5 -56t-32 -55.5t-42.5 -38.5l-199 -115l-87 50l199 115q23 13 43 38.5t32 55.5t12 56v60zM416 375l-156 -90l-87 50l156 90zM416 605l-156 -90l-87 50l156 90zM173 235l-86 -50l-87 50l87 50zM173 135v-140q0 -40 26 -55
l-86 50q-26 15 -26 55v140zM260 625l-87 -50l-86 50l86 50zM173 575v-110l-86 50v110zM173 465l-86 -50l-87 50l87 50zM173 365v-130l-86 50v130zM87 185v-100l-87 50v100zM87 415v-100l-87 50v100z" />
    <glyph glyph-name="lslash" unicode="&#x142;" horiz-adv-x="433" 
d="M79 285l94 96v394l87 50v-357l93 95l37 -84l-130 -132v-262l130 75v-100l-130 -75q-35 -20 -61 -5t-26 55v225l-57 -59zM260 825l-87 -50l-86 50l86 50zM390 160l-130 -75l-87 50l130 75zM353 563l-93 -95l-87 50l93 95zM173 775v-394l-86 50v394zM173 260v-225
q0 -40 26 -55l-86 50q-26 15 -26 55v225zM173 381l-94 -96l-87 50l95 96zM79 285l37 -84l-87 50l-37 84z" />
    <glyph glyph-name="m" unicode="m" horiz-adv-x="658" 
d="M130 490l87 50v-100q0 27 12 56.5t31.5 55t42.5 38.5l26 15q35 20 61 5t26 -55q0 27 12 56.5t31.5 55t42.5 38.5l26 15q35 20 61 5t26 -55v-440l-87 -50v440l-112 -65v-440l-87 -50v440l-112 -65v-440l-87 -50v540zM528 620v-440l-86 50v440zM329 505v-440l-87 50v440z
M589 725q-26 15 -61 -5l-26 -15q-23 -13 -42.5 -38.5t-31.5 -55t-12 -56.5l-87 50q0 27 12 56.5t32 55t43 38.5l26 15q34 20 60 5zM130 490v-540l-87 50v540zM390 610q-26 15 -61 -5l-26 -15q-23 -13 -42.5 -38.5t-31.5 -55t-12 -56.5l-87 50q0 27 12 56.5t32 55t43 38.5
l25 15q35 20 61 5zM217 540l-87 -50l-87 50l87 50z" />
    <glyph glyph-name="macron" unicode="&#xaf;" 
d="M173 745l260 150v-100l-260 -150v100zM433 895l-260 -150l-86 50l259 150zM173 745v-100l-86 50v100z" />
    <glyph glyph-name="ordmasculine" unicode="&#xba;" horiz-adv-x="476" 
d="M217 790l129 75q35 20 61 5t26 -55v-150q0 -26 -12 -56t-32 -55.5t-43 -38.5l-129 -75q-35 -20 -61 -5t-26 55v150q0 27 12 56.5t32 55t43 38.5zM217 540l129 75v150l-129 -75v-150zM346 765v-150l-86 50v150zM346 615l-129 -75l-87 50l130 75zM407 870q-26 15 -61 -5
l-129 -75q-23 -13 -43 -38.5t-32 -55t-12 -56.5v-150q0 -40 26 -55l-87 50q-26 15 -26 55v150q0 27 12 56.5t32 55t43 38.5l130 75q34 20 60 5z" />
    <glyph glyph-name="minus" unicode="&#x2212;" 
d="M130 250l346 200v-100l-346 -200v100zM476 450l-346 -200l-87 50l347 200zM130 250v-100l-87 50v100z" />
    <glyph glyph-name="n" unicode="n" 
d="M130 490l87 50v-100q0 27 12 56.5t31.5 55t42.5 38.5l87 50q34 20 60 5t26 -55v-440l-86 -50v440l-173 -100v-440l-87 -50v540zM390 540v-440l-87 50v440zM130 490v-540l-87 50v540zM450 645q-26 15 -60 -5l-87 -50q-23 -13 -42.5 -38.5t-31.5 -55t-12 -56.5l-87 50
q0 27 12 56.5t32 55t43 38.5l86 50q35 20 61 5zM217 540l-87 -50l-87 50l87 50z" />
    <glyph glyph-name="nacute" unicode="&#x144;" 
d="M130 490l87 50v-100q0 27 12 56.5t31.5 55t42.5 38.5l87 50q34 20 60 5t26 -55v-440l-86 -50v440l-173 -100v-440l-87 -50v540zM168 709l207 252l46 -60l-207 -252zM390 540v-440l-87 50v440zM130 490v-540l-87 50v540zM450 645q-26 15 -60 -5l-87 -50
q-23 -13 -42.5 -38.5t-31.5 -55t-12 -56.5l-87 50q0 27 12 56.5t32 55t43 38.5l86 50q35 20 61 5zM217 540l-87 -50l-87 50l87 50zM375 961l-207 -252l-87 50l207 252zM168 709l46 -60l-87 50l-46 60z" />
    <glyph glyph-name="ncaron" unicode="&#x148;" 
d="M130 490l87 50v-100q0 27 12 56.5t31.5 55t42.5 38.5l87 50q34 20 60 5t26 -55v-440l-86 -50v440l-173 -100v-440l-87 -50v540zM325 723l-185 27l45 96l119 -26l119 163l51 -58zM390 540v-440l-87 50v440zM423 983l-119 -163l-87 50l119 163zM304 820l-119 26l-86 50
l118 -26zM130 490v-540l-87 50v540zM450 645q-26 15 -60 -5l-87 -50q-23 -13 -42.5 -38.5t-31.5 -55t-12 -56.5l-87 50q0 27 12 56.5t32 55t43 38.5l86 50q35 20 61 5zM217 540l-87 -50l-87 50l87 50zM185 846l-45 -96l-86 50l45 96z" />
    <glyph glyph-name="nine" unicode="9" 
d="M390 790q34 20 60 5t26 -55v-490q0 -26 -12 -56t-31.5 -55.5t-42.5 -38.5l-260 -150v100l260 150v270q0 -26 -12 -56t-32 -55.5t-43 -38.5l-86 -50q-35 -20 -61 -5t-26 55v220q0 27 12 56.5t32 55t43 38.5zM217 370l173 100v220l-173 -100v-220zM390 470v-270l-87 50v270
zM390 200l-260 -150l-87 50l260 150zM130 50v-100l-87 50v100zM390 690v-220l-87 50v220zM390 470l-173 -100l-87 50l173 100zM450 795q-26 15 -60 -5l-173 -100q-23 -13 -43 -38.5t-32 -55t-12 -56.5v-220q0 -40 26 -55l-87 50q-26 15 -26 55v220q0 27 12 56.5t32 55
t43 38.5l173 100q35 20 61 5z" />
    <glyph glyph-name="notequal" unicode="&#x2260;" 
d="M187 -13l24 90l-81 -47v100l113 65l44 165l-157 -90v100l188 109l32 119l81 13l-21 -79l66 38v-100l-97 -56l-44 -166l141 82v-100l-173 -100l-35 -130zM476 330l-141 -82l-87 50l142 82zM476 570l-66 -38l-86 50l66 38zM243 195l-113 -65l-87 50l113 65zM211 77l-24 -90
l-87 50l24 90zM431 611l-81 -13l-87 50l82 13zM350 598l-32 -119l-86 50l31 119zM287 360l-44 -165l-87 50l44 165zM130 130v-100l-87 50v100zM318 479l-188 -109l-87 50l189 109zM130 370v-100l-87 50v100z" />
    <glyph glyph-name="ntilde" unicode="&#xf1;" 
d="M130 490l87 50v-100q0 27 12 56.5t31.5 55t42.5 38.5l87 50q34 20 60 5t26 -55v-440l-86 -50v440l-173 -100v-440l-87 -50v540zM167 621l-69 25l79 159q21 44 50.5 61t63.5 5l68 -23l65 130l68 -25l-78 -159q-22 -43 -51.5 -60t-63.5 -6l-68 24zM390 540v-440l-87 50v440
zM492 953l-68 25l-87 50l68 -25zM424 978l-65 -130l-87 50l65 130zM130 490v-540l-87 50v540zM450 645q-26 15 -60 -5l-87 -50q-23 -13 -42.5 -38.5t-31.5 -55t-12 -56.5l-87 50q0 27 12 56.5t32 55t43 38.5l86 50q35 20 61 5zM217 540l-87 -50l-87 50l87 50zM359 848
l-68 23q-34 12 -63.5 -5t-50.5 -61l-79 -159l-87 50l79 159q22 44 51.5 61t62.5 5l68 -23z" />
    <glyph glyph-name="numbersign" unicode="#" horiz-adv-x="675" 
d="M217 60l-87 -50v100l87 50v180l-87 -50v100l87 50v100l86 50v-100l156 90v100l87 50v-100l86 50v-100l-86 -50v-180l86 50v-100l-86 -50v-100l-87 -50v200q0 -26 -12 -56t-32 -55.5t-43 -38.5l-69 -40v-100l-86 -50v100zM303 390v-180l156 90v280q0 -26 -12 -56
t-32 -55.5t-43 -38.5zM217 60v-100l-87 50v100zM459 300v-200l-87 50v200zM632 400l-86 -50l-87 50l87 50zM632 680l-86 -50l-87 50l87 50zM217 160l-87 -50l-87 50l87 50zM546 730l-87 -50l-87 50l87 50zM459 680v-100l-87 50v100zM130 110v-100l-87 50v100zM459 580v-280
l-87 50v280zM459 300l-156 -90l-86 50l155 90zM459 580l-156 -90l-86 50l155 90zM217 540v-100l-87 50v100zM217 340v-180l-87 50v180zM303 590l-86 -50l-87 50l87 50zM217 440l-87 -50l-87 50l87 50zM130 390v-100l-87 50v100z" />
    <glyph glyph-name="o" unicode="o" 
d="M217 540l173 100q34 20 60 5t26 -55v-380q0 -26 -12 -56t-31.5 -55.5t-42.5 -38.5l-173 -100q-35 -20 -61 -5t-26 55v380q0 27 12 56.5t32 55t43 38.5zM217 60l173 100v380l-173 -100v-380zM390 540v-380l-87 50v380zM390 160l-173 -100l-87 50l173 100zM450 645
q-26 15 -60 -5l-173 -100q-23 -13 -43 -38.5t-32 -55t-12 -56.5v-380q0 -40 26 -55l-87 50q-26 15 -26 55v380q0 27 12 56.5t32 55t43 38.5l173 100q35 20 61 5z" />
    <glyph glyph-name="oacute" unicode="&#xf3;" 
d="M217 540l173 100q34 20 60 5t26 -55v-380q0 -26 -12 -56t-31.5 -55.5t-42.5 -38.5l-173 -100q-35 -20 -61 -5t-26 55v380q0 27 12 56.5t32 55t43 38.5zM217 60l173 100v380l-173 -100v-380zM168 709l207 252l46 -60l-207 -252zM390 540v-380l-87 50v380zM390 160
l-173 -100l-87 50l173 100zM450 645q-26 15 -60 -5l-173 -100q-23 -13 -43 -38.5t-32 -55t-12 -56.5v-380q0 -40 26 -55l-87 50q-26 15 -26 55v380q0 27 12 56.5t32 55t43 38.5l173 100q35 20 61 5zM375 961l-207 -252l-87 50l207 252zM168 709l46 -60l-87 50l-46 60z" />
    <glyph glyph-name="ocircumflex" unicode="&#xf4;" 
d="M217 540l173 100q34 20 60 5t26 -55v-380q0 -26 -12 -56t-31.5 -55.5t-42.5 -38.5l-173 -100q-35 -20 -61 -5t-26 55v380q0 27 12 56.5t32 55t43 38.5zM217 60l173 100v380l-173 -100v-380zM316 811l-132 -179l-47 51l166 228l166 -36l-41 -90zM390 540v-380l-87 50v380z
M390 160l-173 -100l-87 50l173 100zM469 875l-166 36l-86 50l166 -36zM450 645q-26 15 -60 -5l-173 -100q-23 -13 -43 -38.5t-32 -55t-12 -56.5v-380q0 -40 26 -55l-87 50q-26 15 -26 55v380q0 27 12 56.5t32 55t43 38.5l173 100q35 20 61 5zM303 911l-166 -228l-87 50
l167 228zM137 683l47 -51l-86 50l-48 51z" />
    <glyph glyph-name="odieresis" unicode="&#xf6;" 
d="M217 540l173 100q34 20 60 5t26 -55v-380q0 -26 -12 -56t-31.5 -55.5t-42.5 -38.5l-173 -100q-35 -20 -61 -5t-26 55v380q0 27 12 56.5t32 55t43 38.5zM217 60l173 100v380l-173 -100v-380zM191 635q-27 -15 -44 -5t-17 40t17 60t44 45q26 15 43 5t17 -40t-17 -60
t-43 -45zM416 765q-27 -15 -44 -5t-17 40t17 60t44 45q26 15 43 5t17 -40t-17 -60t-43 -45zM390 540v-380l-87 50v380zM390 160l-173 -100l-87 50l173 100zM459 910q-17 10 -43 -5q-27 -15 -44 -45t-17 -60t17 -40l-86 50q-18 10 -18 40t17.5 60t43.5 45t44 5zM450 645
q-26 15 -60 -5l-173 -100q-23 -13 -43 -38.5t-32 -55t-12 -56.5v-380q0 -40 26 -55l-87 50q-26 15 -26 55v380q0 27 12 56.5t32 55t43 38.5l173 100q35 20 61 5zM234 780q-17 10 -43 -5q-27 -15 -44 -45t-17 -60t17 -40l-87 50q-17 10 -17 40t17.5 60t43.5 45t43 5z" />
    <glyph glyph-name="oe" unicode="&#x153;" horiz-adv-x="693" 
d="M217 500l129 75v-100l-129 -75v-340l129 75v440q35 20 61 5t26 -55q0 27 12 56.5t32 55t43 38.5l43 25q34 20 60.5 5t26.5 -55v-120q0 -26 -12.5 -56t-32 -55.5t-42.5 -38.5l-130 -75v-120l217 125v-100l-217 -125q-34 -20 -60.5 -5t-26.5 55q0 -26 -12 -56t-31.5 -55.5
t-42.5 -38.5l-43 -25q-35 -20 -61 -5t-26 55v340q0 27 12 56.5t32 55t43 38.5zM563 600l-130 -75v-120l130 75v120zM346 135q0 -40 26 -55l-86 50q-26 15 -26 55zM650 310l-217 -125l-87 50l217 125zM563 600v-120l-87 50v120zM346 135l-129 -75l-87 50l130 75zM563 480
l-130 -75l-87 50l130 75zM623 705q-26 15 -60 -5l-43 -25q-23 -13 -43 -38.5t-32 -55t-12 -56.5l-87 50q0 27 12.5 56.5t32 55t42.5 38.5l43 25q35 20 61 5zM346 575v-440l-86 50v440zM346 575l-129 -75q-23 -13 -43 -38.5t-32 -55t-12 -56.5v-340q0 -40 26 -55l-87 50
q-26 15 -26 55v340q0 27 12 56.5t32 55t43 38.5l130 75zM407 580q-26 15 -61 -5l-86 50q34 20 60 5z" />
    <glyph glyph-name="ogonek" unicode="&#x2db;" 
d="M303 10v-100l87 50v-100l-87 -50q-34 -20 -60 -5t-26 55q0 27 12 56.5t31.5 55t42.5 38.5zM390 -40l-87 -50l-86 50l86 50zM303 10q-23 -13 -42.5 -38.5t-31.5 -55t-12 -56.5q0 -40 26 -55l-87 50q-26 15 -26 55q0 27 12 56.5t32 55t43 38.5z" />
    <glyph glyph-name="ograve" unicode="&#xf2;" 
d="M217 540l173 100q34 20 60 5t26 -55v-380q0 -26 -12 -56t-31.5 -55.5t-42.5 -38.5l-173 -100q-35 -20 -61 -5t-26 55v380q0 27 12 56.5t32 55t43 38.5zM217 60l173 100v380l-173 -100v-380zM189 901l241 -57l-50 -103l-241 56zM390 540v-380l-87 50v380zM390 160
l-173 -100l-87 50l173 100zM430 844l-241 57l-87 50l241 -57zM450 645q-26 15 -60 -5l-173 -100q-23 -13 -43 -38.5t-32 -55t-12 -56.5v-380q0 -40 26 -55l-87 50q-26 15 -26 55v380q0 27 12 56.5t32 55t43 38.5l173 100q35 20 61 5zM189 901l-50 -104l-86 50l49 104z" />
    <glyph glyph-name="ohungarumlaut" unicode="&#x151;" 
d="M217 540l173 100q34 20 60 5t26 -55v-380q0 -26 -12 -56t-31.5 -55.5t-42.5 -38.5l-173 -100q-35 -20 -61 -5t-26 55v380q0 27 12 56.5t32 55t43 38.5zM217 60l173 100v380l-173 -100v-380zM114 654l111 209l69 -24l-110 -209zM314 769l110 209l69 -24l-110 -209z
M390 540v-380l-87 50v380zM390 160l-173 -100l-87 50l173 100zM493 954l-69 24l-86 50l68 -24zM424 978l-110 -209l-87 50l111 209zM450 645q-26 15 -60 -5l-173 -100q-23 -13 -43 -38.5t-32 -55t-12 -56.5v-380q0 -40 26 -55l-87 50q-26 15 -26 55v380q0 27 12 56.5t32 55
t43 38.5l173 100q35 20 61 5zM294 839l-69 24l-86 50l68 -24zM225 863l-111 -209l-86 50l111 209z" />
    <glyph glyph-name="omacron" unicode="&#x14d;" 
d="M217 540l173 100q34 20 60 5t26 -55v-380q0 -26 -12 -56t-31.5 -55.5t-42.5 -38.5l-173 -100q-35 -20 -61 -5t-26 55v380q0 27 12 56.5t32 55t43 38.5zM217 60l173 100v380l-173 -100v-380zM156 735l260 150v-100l-260 -150v100zM390 540v-380l-87 50v380zM390 160
l-173 -100l-87 50l173 100zM450 645q-26 15 -60 -5l-173 -100q-23 -13 -43 -38.5t-32 -55t-12 -56.5v-380q0 -40 26 -55l-87 50q-26 15 -26 55v380q0 27 12 56.5t32 55t43 38.5l173 100q35 20 61 5zM416 885l-260 -150l-87 50l260 150zM156 735v-100l-87 50v100z" />
    <glyph glyph-name="one" unicode="1" horiz-adv-x="442" 
d="M225 105v550l-95 -55v100l9 5q34 20 60 5t26 -55v100l87 50v-650l86 50v-100l-268 -155v100zM225 105l-95 -55l-87 50l96 55zM130 50v-100l-87 50v100zM398 205l-86 -50l-87 50l87 50zM312 805l-87 -50l-86 50l86 50zM225 755v-100l-86 50v100zM225 655v-550l-86 50v550z
M199 710q-26 15 -60 -5l-9 -5l-87 50l9 5q34 20 60 5zM130 700v-100l-87 50v100z" />
    <glyph glyph-name="oslash" unicode="&#xf8;" 
d="M217 500q34 20 60 5t26 -55l-86 -50v-300q-35 -20 -61 -5t-26 55v200q0 27 12 56.5t32 55t43 38.5zM390 100q-35 -20 -61 -5t-26 55l87 50v300q34 20 60 5t26 -55v-200q0 -26 -12 -56t-31.5 -55.5t-42.5 -38.5zM217 0l-87 -50v100l173 100q0 -26 -12 -56t-32 -55.5
t-42 -38.5zM390 600l86 50v-100l-173 -100q0 27 12 56.5t32 55t43 38.5zM450 505q-26 15 -60 -5l-87 50q35 20 61 5zM390 500v-300l-87 50v300zM390 200l-87 -50l-86 50l86 50zM303 150q0 -40 26 -55l-86 50q-26 15 -26 55zM130 50v-100l-87 50v100zM303 150l-173 -100
l-87 50l174 100zM476 650l-86 -50q-23 -13 -43 -38.5t-32 -55t-12 -56.5l-86 50q0 27 12 56.5t31.5 55t42.5 38.5l87 50zM277 505q-26 15 -60 -5q-23 -13 -43 -38.5t-32 -55t-12 -56.5v-200q0 -40 26 -55l-87 50q-26 15 -26 55v200q0 27 12 56.5t32 55t43 38.5q34 20 60 5z
" />
    <glyph glyph-name="otilde" unicode="&#xf5;" 
d="M217 540l173 100q34 20 60 5t26 -55v-380q0 -26 -12 -56t-31.5 -55.5t-42.5 -38.5l-173 -100q-35 -20 -61 -5t-26 55v380q0 27 12 56.5t32 55t43 38.5zM217 60l173 100v380l-173 -100v-380zM167 621l-69 25l79 159q21 44 50.5 61t63.5 5l68 -23l65 130l68 -25l-78 -159
q-22 -43 -51.5 -60t-63.5 -6l-68 24zM390 540v-380l-87 50v380zM390 160l-173 -100l-87 50l173 100zM492 953l-68 25l-87 50l68 -25zM424 978l-65 -130l-87 50l65 130zM450 645q-26 15 -60 -5l-173 -100q-23 -13 -43 -38.5t-32 -55t-12 -56.5v-380q0 -40 26 -55l-87 50
q-26 15 -26 55v380q0 27 12 56.5t32 55t43 38.5l173 100q35 20 61 5zM359 848l-68 23q-34 12 -63.5 -5t-50.5 -61l-79 -159l-87 50l79 159q22 44 51.5 61t62.5 5l68 -23z" />
    <glyph glyph-name="p" unicode="p" 
d="M303 590l87 50q34 20 60 5t26 -55v-340q0 -26 -12 -56t-31.5 -55.5t-42.5 -38.5l-173 -100v-130l-87 -50v670l87 50v-100q0 27 12 56.5t31.5 55t42.5 38.5zM390 540l-173 -100v-340l173 100v340zM390 540v-340l-87 50v340zM390 200l-173 -100l-87 50l173 100zM450 645
q-26 15 -60 -5l-87 -50q-23 -13 -42.5 -38.5t-31.5 -55t-12 -56.5l-87 50q0 27 12 56.5t32 55t43 38.5l86 50q35 20 61 5zM130 490v-670l-87 50v670zM217 540l-87 -50l-87 50l87 50z" />
    <glyph glyph-name="paragraph" unicode="&#xb6;" horiz-adv-x="658" 
d="M242 215l-25 -15q-35 -20 -61 -5t-26 55v300q0 27 12 56.5t32 55t43 38.5l398 230v-820l-87 -50v720l-112 -65v-720l-87 -50v720l-112 -65v-300l112 65q0 -26 -12 -56t-32 -55.5t-43 -38.5zM528 780v-720l-86 50v720zM329 665v-720l-87 50v720zM329 365l-112 -65l-87 50
l112 65zM615 930l-398 -230q-23 -13 -43 -38.5t-32 -55t-12 -56.5v-300q0 -40 26 -55l-87 50q-26 15 -26 55v300q0 27 12 56.5t32 55t43 38.5l398 230z" />
    <glyph glyph-name="parenright" unicode=")" horiz-adv-x="433" 
d="M130 -210v100l87 50q22 13 42 38.5t32 55t12 56.5v640q0 40 -26 55t-60 -5l-87 -50v100l87 50q45 27 84.5 21.5t64 -37t24.5 -84.5v-640q0 -40 -14 -84t-38.5 -86t-55.5 -76t-65 -54zM277 785q26 -15 26 -55v-640q0 -27 -12 -56.5t-32 -55t-42 -38.5l-87 -50l-87 50
l87 50q23 13 42.5 38.5t32 55.5t12.5 56v640q0 40 -27 55zM130 -110v-100l-87 50v100zM338 890q-24 13 -55.5 11.5t-65.5 -21.5l-87 -50l-87 50l87 50q34 20 65.5 21.5t55.5 -11.5zM130 830v-100l-87 50v100z" />
    <glyph glyph-name="percent" unicode="%" horiz-adv-x="779" 
d="M650 490q34 20 60 5t26 -55v-100q0 -26 -12 -56t-32 -55.5t-42 -38.5l-87 -50q-35 -20 -61 -5t-26 55v100q0 27 12 56.5t32 55t43 38.5zM303 690q35 20 61 5t26 -55v-100q0 -26 -12 -56t-32 -55.5t-43 -38.5l-86 -50q-35 -20 -61 -5t-26 55v100q0 27 12 56.5t32 55
t43 38.5zM234 30l346 790l70 -20l-347 -790zM650 390l-87 -50v-100l87 50v100zM303 590l-86 -50v-100l86 50v100zM650 800l-70 20l-86 50l69 -20zM650 390v-100l-87 50v100zM650 290l-87 -50l-87 50l87 50zM710 495q-26 15 -60 -5l-87 -50q-23 -13 -43 -38.5t-32 -55
t-12 -56.5v-100q0 -40 26 -55l-86 50q-26 15 -26 55v100q0 27 12 56.5t31.5 55t42.5 38.5l87 50q34 20 60 5zM580 820l-346 -790l-87 50l347 790zM303 590v-100l-86 50v100zM303 490l-86 -50l-87 50l87 50zM364 695q-26 15 -61 -5l-86 -50q-23 -13 -43 -38.5t-32 -55
t-12 -56.5v-100q0 -40 26 -55l-87 50q-26 15 -26 55v100q0 27 12 56.5t32 55t43 38.5l87 50q34 20 60 5z" />
    <glyph glyph-name="period" unicode="." horiz-adv-x="312" 
d="M199 -50q-30 -17 -49.5 -6t-19.5 46t19.5 69t49.5 51t49.5 6t19.5 -46t-19.5 -69t-49.5 -51zM249 116q-20 11 -50 -6t-49.5 -51t-19.5 -69t19 -46l-86 50q-20 11 -20 46t19.5 69t50.5 51q30 17 49 6z" />
    <glyph glyph-name="perthousand" unicode="&#x2030;" horiz-adv-x="1083" 
d="M650 490q34 20 60 5t26 -55v-100q0 -26 -12 -56t-32 -55.5t-42 -38.5l-87 -50q-35 -20 -61 -5t-26 55v100q0 27 12 56.5t32 55t43 38.5zM953 665q34 20 60 5t26 -55v-100q0 -26 -12 -56t-31.5 -55.5t-42.5 -38.5l-87 -50q-34 -20 -60.5 -5t-26.5 55v100q0 27 12.5 56.5
t32 55t42.5 38.5zM303 690q35 20 61 5t26 -55v-100q0 -26 -12 -56t-32 -55.5t-43 -38.5l-86 -50q-35 -20 -61 -5t-26 55v100q0 27 12 56.5t32 55t43 38.5zM234 30l346 790l70 -20l-347 -790zM650 390l-87 -50v-100l87 50v100zM953 565l-87 -50v-100l87 50v100zM303 590
l-86 -50v-100l86 50v100zM650 390v-100l-87 50v100zM650 290l-87 -50l-87 50l87 50zM953 565v-100l-87 50v100zM953 465l-87 -50l-87 50l87 50zM1013 670q-26 15 -60 -5l-87 -50q-23 -13 -42.5 -38.5t-32 -55t-12.5 -56.5v-100q0 -40 27 -55l-87 50q-26 15 -26 55v100
q0 27 12 56.5t31.5 55t42.5 38.5l87 50q34 20 61 5zM710 495q-26 15 -60 -5l-87 -50q-23 -13 -43 -38.5t-32 -55t-12 -56.5v-100q0 -40 26 -55l-86 50q-26 15 -26 55v100q0 27 12 56.5t31.5 55t42.5 38.5l87 50q34 20 60 5zM650 800l-70 20l-86 50l69 -20zM580 820
l-346 -790l-87 50l347 790zM303 590v-100l-86 50v100zM303 490l-86 -50l-87 50l87 50zM364 695q-26 15 -61 -5l-86 -50q-23 -13 -43 -38.5t-32 -55t-12 -56.5v-100q0 -40 26 -55l-87 50q-26 15 -26 55v100q0 27 12 56.5t32 55t43 38.5l87 50q34 20 60 5z" />
    <glyph glyph-name="plus" unicode="+" 
d="M130 250l130 75v150l86 50v-150l130 75v-100l-130 -75v-150l-86 -50v150l-130 -75v100zM260 225v-150l-87 50v150zM476 450l-130 -75l-86 50l130 75zM346 525l-86 -50l-87 50l87 50zM260 475v-150l-87 50v150zM260 325l-130 -75l-87 50l130 75zM130 250v-100l-87 50v100z
" />
    <glyph glyph-name="plusminus" unicode="&#xb1;" 
d="M130 350l130 75v150l86 50v-150l130 75v-100l-130 -75v-150l-86 -50v150l-130 -75v100zM130 50l346 200v-100l-346 -200v100zM476 550l-130 -75l-86 50l130 75zM476 250l-346 -200l-87 50l347 200zM130 50v-100l-87 50v100zM346 625l-86 -50l-87 50l87 50zM260 575v-150
l-87 50v150zM260 325v-150l-87 50v150zM260 425l-130 -75l-87 50l130 75zM130 350v-100l-87 50v100z" />
    <glyph glyph-name="q" unicode="q" 
d="M217 500l259 150v-780l-86 -50v340q0 -26 -12 -56t-32 -55.5t-43 -38.5l-86 -50q-35 -20 -61 -5t-26 55v340q0 27 12 56.5t32 55t43 38.5zM217 400v-340l173 100v340zM390 160v-340l-87 50v340zM390 500v-340l-87 50v340zM390 160l-173 -100l-87 50l173 100zM476 650
l-259 -150q-23 -13 -43 -38.5t-32 -55t-12 -56.5v-340q0 -40 26 -55l-87 50q-26 15 -26 55v340q0 27 12 56.5t32 55t43 38.5l260 150z" />
    <glyph glyph-name="question" unicode="?" 
d="M303 290v-110l-86 -50v110q0 27 12 56.5t31.5 55t42.5 38.5l87 50v320l-173 -100v-100l-87 -50v100q0 27 12 56.5t32 55t43 38.5l173 100q34 20 60 5t26 -55v-320q0 -26 -12 -56t-31.5 -55.5t-42.5 -38.5zM260 -55q-27 -15 -44 -5t-17 40t17 60t44 45q26 15 43 5t17 -40
t-17 -60t-43 -45zM390 760v-320l-87 50v320zM303 90q-17 10 -43 -5q-27 -15 -44 -45t-17 -60t17 -40l-86 50q-17 10 -17 40t17 60t43 45q27 15 44 5zM390 440l-87 -50q-23 -13 -42.5 -38.5t-31.5 -55t-12 -56.5v-110l-87 50v110q0 27 12 56.5t32 55t43 38.5l86 50zM450 865
q-26 15 -60 -5l-173 -100q-23 -13 -43 -38.5t-32 -55t-12 -56.5v-100l-87 50v100q0 27 12 56.5t32 55t43 38.5l173 100q35 20 61 5z" />
    <glyph glyph-name="questiondown" unicode="&#xbf;" 
d="M303 630l87 50v-80q0 -26 -12 -56t-32 -55.5t-43 -38.5l-86 -50v-340l173 100v100l86 50v-100q0 -26 -12 -56t-31.5 -55.5t-42.5 -38.5l-173 -100q-35 -20 -61 -5t-26 55v340q0 27 12 56.5t32 55t43 38.5l86 50v80zM346 865q27 15 44 5t17 -40t-17 -60t-44 -45
q-26 -15 -43 -5t-17 40t17 60t43 45zM390 680l-87 -50l-86 50l86 50zM303 630v-80l-86 50v80zM476 310l-86 -50l-87 50l87 50zM390 260v-100l-87 50v100zM390 160l-173 -100l-87 50l173 100zM303 550l-86 -50q-23 -13 -43 -38.5t-32 -55t-12 -56.5v-340q0 -40 26 -55l-87 50
q-26 15 -26 55v340q0 27 12 56.5t32 55t43 38.5l87 50zM390 870q-17 10 -44 -5q-26 -15 -43 -45t-17 -60t17 -40l-87 50q-17 10 -17 40t17 60t44 45q26 15 43 5z" />
    <glyph glyph-name="quotedbl" unicode="&#x22;" horiz-adv-x="468" 
d="M217 460q-35 -20 -61 -5t-26 55v200l87 50v-300zM424 580q-34 -20 -60 -5t-26 55v200l86 50v-300zM130 710v-200q0 -40 26 -55l-87 50q-26 15 -26 55v200zM424 880l-86 -50l-87 50l87 50zM338 830v-200q0 -40 26 -55l-87 50q-26 15 -26 55v200zM217 760l-87 -50l-87 50
l87 50z" />
    <glyph glyph-name="quotedblbase" unicode="&#x201e;" horiz-adv-x="528" 
d="M199 -50q-30 -17 -49.5 -6t-19.5 46t19.5 69t49.5 51t49.5 6t19.5 -46v-120q0 -21 -9.5 -45t-25 -44t-34.5 -31v120zM416 75q-30 -17 -50 -6t-20 46t20 69t50 51t49.5 6t19.5 -46v-120q0 -21 -9.5 -45t-25.5 -44t-34 -31v120zM199 -50v-120l-86 50v120zM416 75v-120
l-87 50v120zM249 116q-20 11 -50 -6t-49.5 -51t-19.5 -69t19 -46l-86 50q-20 11 -20 46t19.5 69t50.5 51q30 17 49 6zM465 241q-19 11 -49 -6t-50 -51t-20 -69t20 -46l-87 50q-19 11 -19 46t19.5 69t49.5 51t50 6z" />
    <glyph glyph-name="quotedblleft" unicode="&#x201c;" horiz-adv-x="528" 
d="M199 620q30 17 49.5 6t19.5 -46t-19.5 -69t-49.5 -51t-49.5 -6t-19.5 46v120q0 21 9.5 45t25.5 44t34 31v-120zM416 745q30 17 49.5 6t19.5 -46t-19.5 -69t-49.5 -51t-50 -6t-20 46v120q0 21 10 45t25.5 44t34.5 31v-120zM249 626q-20 11 -50 -6l-86 50q30 17 49 6z
M465 751q-19 11 -49 -6l-87 50q30 17 50 6zM416 865q-19 -11 -34.5 -31t-25.5 -44t-10 -45v-120q0 -35 20 -46l-87 50q-19 11 -19 46v120q0 21 9.5 45t25.5 44t34 31zM199 740q-18 -11 -34 -31t-25.5 -44t-9.5 -45v-120q0 -35 19 -46l-86 50q-20 11 -20 46v120q0 21 10 45
t25.5 44t34.5 31z" />
    <glyph glyph-name="quotedblright" unicode="&#x201d;" horiz-adv-x="528" 
d="M199 580q-30 -17 -49.5 -6t-19.5 46t19.5 69t49.5 51t49.5 6t19.5 -46v-120q0 -21 -9.5 -45t-25 -44t-34.5 -31v120zM416 705q-30 -17 -50 -6t-20 46t20 69t50 51t49.5 6t19.5 -46v-120q0 -21 -9.5 -45t-25.5 -44t-34 -31v120zM199 580v-120l-86 50v120zM416 705v-120
l-87 50v120zM249 746q-20 11 -50 -6t-49.5 -51t-19.5 -69t19 -46l-86 50q-20 11 -20 46t19.5 69t50.5 51q30 17 49 6zM465 871q-19 11 -49 -6t-50 -51t-20 -69t20 -46l-87 50q-19 11 -19 46t19.5 69t49.5 51t50 6z" />
    <glyph glyph-name="quoteleft" unicode="&#x2018;" horiz-adv-x="312" 
d="M199 750q30 17 49.5 6t19.5 -46t-19.5 -69t-49.5 -51t-49.5 -6t-19.5 46v120q0 21 9.5 45t25.5 44t34 31v-120zM249 756q-20 11 -50 -6l-86 50q30 17 49 6zM199 870q-18 -11 -34 -31t-25.5 -44t-9.5 -45v-120q0 -35 19 -46l-86 50q-20 11 -20 46v120q0 21 10 45t25.5 44
t34.5 31z" />
    <glyph glyph-name="quoteright" unicode="&#x2019;" horiz-adv-x="312" 
d="M199 700q-30 -17 -49.5 -6t-19.5 46t19.5 69t49.5 51t49.5 6t19.5 -46v-120q0 -21 -9.5 -45t-25 -44t-34.5 -31v120zM199 700v-120l-86 50v120zM249 866q-20 11 -50 -6t-49.5 -51t-19.5 -69t19 -46l-86 50q-20 11 -20 46t19.5 69t50.5 51q30 17 49 6z" />
    <glyph glyph-name="quotesinglbase" unicode="&#x201a;" horiz-adv-x="312" 
d="M199 -50q-30 -17 -49.5 -6t-19.5 46t19.5 69t49.5 51t49.5 6t19.5 -46v-120q0 -21 -9.5 -45t-25 -44t-34.5 -31v120zM199 -50v-120l-86 50v120zM249 116q-20 11 -50 -6t-49.5 -51t-19.5 -69t19 -46l-86 50q-20 11 -20 46t19.5 69t50.5 51q30 17 49 6z" />
    <glyph glyph-name="quotesingle" unicode="'" horiz-adv-x="260" 
d="M217 580q-35 -20 -61 -5t-26 55v200l87 50v-300zM217 880l-87 -50l-87 50l87 50zM130 830v-200q0 -40 26 -55l-87 50q-26 15 -26 55v200z" />
    <glyph glyph-name="r" unicode="r" horiz-adv-x="476" 
d="M130 450l87 50v-100l86 50q0 27 12 56.5t32 55t43 38.5l86 50v-100l-86 -50q0 -26 -12 -56t-32 -55.5t-43 -38.5l-86 -50v-300l-87 -50v500zM130 450v-500l-87 50v500zM476 650l-86 -50q-23 -13 -43 -38.5t-32 -55t-12 -56.5l-86 50q0 27 12 56.5t31.5 55t42.5 38.5
l87 50zM303 450l-86 -50l-87 50l87 50zM217 500l-87 -50l-87 50l87 50z" />
    <glyph glyph-name="racute" unicode="&#x155;" horiz-adv-x="476" 
d="M130 450l87 50v-100l86 50q0 27 12 56.5t32 55t43 38.5l86 50v-100l-86 -50q0 -26 -12 -56t-32 -55.5t-43 -38.5l-86 -50v-300l-87 -50v500zM168 669l207 252l46 -60l-207 -252zM130 450v-500l-87 50v500zM476 650l-86 -50q-23 -13 -43 -38.5t-32 -55t-12 -56.5l-86 50
q0 27 12 56.5t31.5 55t42.5 38.5l87 50zM303 450l-86 -50l-87 50l87 50zM217 500l-87 -50l-87 50l87 50zM375 921l-207 -252l-87 50l207 252zM168 669l46 -60l-87 50l-46 60z" />
    <glyph glyph-name="rcaron" unicode="&#x159;" horiz-adv-x="476" 
d="M130 450l87 50v-100l86 50q0 27 12 56.5t32 55t43 38.5l86 50v-100l-86 -50q0 -26 -12 -56t-32 -55.5t-43 -38.5l-86 -50v-300l-87 -50v500zM325 683l-185 27l45 96l119 -26l119 163l51 -58zM130 450v-500l-87 50v500zM476 650l-86 -50q-23 -13 -43 -38.5t-32 -55
t-12 -56.5l-86 50q0 27 12 56.5t31.5 55t42.5 38.5l87 50zM303 450l-86 -50l-87 50l87 50zM423 943l-119 -163l-87 50l119 163zM217 500l-87 -50l-87 50l87 50zM304 780l-119 26l-86 50l118 -26zM185 806l-45 -96l-86 50l45 96z" />
    <glyph glyph-name="registered" unicode="&#xae;" horiz-adv-x="727" 
d="M511 770q46 27 85.5 21.5t63.5 -37t24 -84.5v-280q0 -40 -14 -84t-38 -86t-55.5 -76t-65.5 -54l-208 -120q-46 -26 -85.5 -21t-63.5 36.5t-24 84.5v280q0 40 14 84t38 86t55.5 76t65.5 54zM511 670l-208 -120q-23 -13 -42.5 -38.5t-31.5 -55t-12 -56.5v-280q0 -40 26 -55
t60 5l208 120q23 13 42.5 38.5t32 55.5t12.5 56v280q0 40 -26.5 55t-60.5 -5zM407 370q34 20 60.5 5t26.5 -55l-174 -100v200l174 100v-100zM571 675q27 -15 27 -55v-280q0 -26 -12.5 -56t-32 -55.5t-42.5 -38.5l-208 -120q-34 -20 -60 -5l-87 50q26 -15 61 5l207 120
q23 13 43 38.5t32 55.5t12 56v280q0 40 -26 55zM320 420v-200l-86 50v200zM468 375q-27 15 -61 -5l-87 50q35 20 61 5zM494 520l-174 -100l-86 50l173 100zM632 780q-24 13 -55.5 11.5t-65.5 -21.5l-208 -120q-34 -20 -65.5 -54t-55.5 -76t-38 -86t-14 -84v-280
q0 -40 14 -68t38 -42l-87 50q-23 14 -37.5 42t-14.5 68v280q0 40 14 84t38.5 86t55.5 76t66 54l207 120q35 20 66.5 21.5t54.5 -11.5z" />
    <glyph glyph-name="s" unicode="s" 
d="M217 200q-35 -20 -61 -5t-26 55v100q0 27 12 56.5t32 55t43 38.5l259 150v-100l-259 -150v-100l173 100q34 20 60 5t26 -55v-100q0 -26 -12 -56t-31.5 -55.5t-42.5 -38.5l-260 -150v100l260 150v100zM390 300v-100l-87 50v100zM390 200l-260 -150l-87 50l260 150zM130 50
v-100l-87 50v100zM450 405q-26 15 -60 -5l-173 -100l-87 50l173 100q35 20 61 5zM476 650l-259 -150q-23 -13 -43 -38.5t-32 -55t-12 -56.5v-100q0 -40 26 -55l-87 50q-26 15 -26 55v100q0 27 12 56.5t32 55t43 38.5l260 150z" />
    <glyph glyph-name="sacute" unicode="&#x15b;" 
d="M217 200q-35 -20 -61 -5t-26 55v100q0 27 12 56.5t32 55t43 38.5l259 150v-100l-259 -150v-100l173 100q34 20 60 5t26 -55v-100q0 -26 -12 -56t-31.5 -55.5t-42.5 -38.5l-260 -150v100l260 150v100zM168 669l207 252l46 -60l-207 -252zM390 300v-100l-87 50v100z
M390 200l-260 -150l-87 50l260 150zM130 50v-100l-87 50v100zM450 405q-26 15 -60 -5l-173 -100l-87 50l173 100q35 20 61 5zM476 650l-259 -150q-23 -13 -43 -38.5t-32 -55t-12 -56.5v-100q0 -40 26 -55l-87 50q-26 15 -26 55v100q0 27 12 56.5t32 55t43 38.5l260 150z
M375 921l-207 -252l-87 50l207 252zM168 669l46 -60l-87 50l-46 60z" />
    <glyph glyph-name="scaron" unicode="&#x161;" 
d="M217 200q-35 -20 -61 -5t-26 55v100q0 27 12 56.5t32 55t43 38.5l259 150v-100l-259 -150v-100l173 100q34 20 60 5t26 -55v-100q0 -26 -12 -56t-31.5 -55.5t-42.5 -38.5l-260 -150v100l260 150v100zM325 683l-185 27l45 96l119 -26l119 163l51 -58zM390 300v-100l-87 50
v100zM390 200l-260 -150l-87 50l260 150zM130 50v-100l-87 50v100zM423 943l-119 -163l-87 50l119 163zM450 405q-26 15 -60 -5l-173 -100l-87 50l173 100q35 20 61 5zM476 650l-259 -150q-23 -13 -43 -38.5t-32 -55t-12 -56.5v-100q0 -40 26 -55l-87 50q-26 15 -26 55v100
q0 27 12 56.5t32 55t43 38.5l260 150zM304 780l-119 26l-86 50l118 -26zM185 806l-45 -96l-86 50l45 96z" />
    <glyph glyph-name="scedilla" unicode="&#x15f;" 
d="M303 50q35 20 61 5t26 -55q0 -26 -12 -56t-32 -55.5t-43 -38.5l-86 -50v100l86 50v100l-173 -100v100l260 150v100l-173 -100q-35 -20 -61 -5t-26 55v100q0 27 12 56.5t32 55t43 38.5l259 150v-100l-259 -150v-100l173 100q34 20 60 5t26 -55v-100q0 -26 -12 -56
t-31.5 -55.5t-42.5 -38.5zM390 300v-100l-87 50v100zM303 50v-100l-86 50v100zM303 -50l-86 -50l-87 50l87 50zM217 -100v-100l-87 50v100zM364 55q-26 15 -61 -5l-86 50q34 20 60 5zM450 405q-26 15 -60 -5l-173 -100l-87 50l173 100q35 20 61 5zM390 200l-260 -150l-87 50
l260 150zM130 50v-100l-87 50v100zM476 650l-259 -150q-23 -13 -43 -38.5t-32 -55t-12 -56.5v-100q0 -40 26 -55l-87 50q-26 15 -26 55v100q0 27 12 56.5t32 55t43 38.5l260 150z" />
    <glyph glyph-name="scircumflex" unicode="&#x15d;" 
d="M217 200q-35 -20 -61 -5t-26 55v100q0 27 12 56.5t32 55t43 38.5l259 150v-100l-259 -150v-100l173 100q34 20 60 5t26 -55v-100q0 -26 -12 -56t-31.5 -55.5t-42.5 -38.5l-260 -150v100l260 150v100zM317 772l-132 -180l-47 52l166 228l166 -36l-41 -90zM390 300v-100
l-87 50v100zM390 200l-260 -150l-87 50l260 150zM130 50v-100l-87 50v100zM470 836l-166 36l-87 50l167 -36zM450 405q-26 15 -60 -5l-173 -100l-87 50l173 100q35 20 61 5zM476 650l-259 -150q-23 -13 -43 -38.5t-32 -55t-12 -56.5v-100q0 -40 26 -55l-87 50q-26 15 -26 55
v100q0 27 12 56.5t32 55t43 38.5l260 150zM304 872l-166 -228l-87 50l166 228zM138 644l47 -52l-86 50l-48 52z" />
    <glyph glyph-name="section" unicode="&#xa7;" 
d="M217 170q-35 -20 -61 -5t-26 55v30q0 27 12 56.5t32 55t43 38.5q-35 -20 -61 -5t-26 55v120q0 27 12 56.5t32 55t43 38.5l259 150v-100l-259 -150v-120l173 100q34 20 60 5t26 -55v-30q0 -26 -12 -56t-31.5 -55.5t-42.5 -38.5q34 20 60 5t26 -55v-120q0 -26 -12 -56
t-31.5 -55.5t-42.5 -38.5l-260 -150v100l260 150v120zM217 400v-130l173 100v130zM390 270v-120l-87 50v120zM390 150l-260 -150l-87 50l260 150zM130 0v-100l-87 50v100zM450 375q-26 15 -60 -5l-87 50q35 20 61 5zM390 500v-130l-87 50v130zM390 370l-173 -100l-87 50
l173 100zM450 605q-26 15 -60 -5l-173 -100l-87 50l173 100q35 20 61 5zM217 400q-23 -13 -43 -38.5t-32 -55t-12 -56.5v-30q0 -40 26 -55l-87 50q-26 15 -26 55v30q0 27 12 56.5t32 55t43 38.5zM476 870l-259 -150q-23 -13 -43 -38.5t-32 -55t-12 -56.5v-120q0 -40 26 -55
l-87 50q-26 15 -26 55v120q0 27 12 56.5t32 55t43 38.5l260 150z" />
    <glyph glyph-name="semicolon" unicode=";" horiz-adv-x="312" 
d="M199 -50q-30 -17 -49.5 -6t-19.5 46t19.5 69t49.5 51t49.5 6t19.5 -46v-120q0 -21 -9.5 -45t-25 -44t-34.5 -31v120zM199 430q-30 -17 -49.5 -6t-19.5 46t19.5 69t49.5 51t49.5 6t19.5 -46t-19.5 -69t-49.5 -51zM199 -50v-120l-86 50v120zM249 596q-20 11 -50 -6
t-49.5 -51t-19.5 -69t19 -46l-86 50q-20 11 -20 46t19.5 69t50.5 51q30 17 49 6zM249 116q-20 11 -50 -6t-49.5 -51t-19.5 -69t19 -46l-86 50q-20 11 -20 46t19.5 69t50.5 51q30 17 49 6z" />
    <glyph glyph-name="seven" unicode="7" 
d="M303 700q35 20 61 5t26 -55v100l86 50v-300q0 -26 -12 -56t-31.5 -55.5t-42.5 -38.5l-87 -50v-300l-86 -50v300q0 27 12 56.5t31.5 55t42.5 38.5l87 50v200l-260 -150v100zM390 650v-200l-87 50v200zM390 450l-87 -50q-23 -13 -42.5 -38.5t-31.5 -55t-12 -56.5v-300
l-87 50v300q0 27 12 56.5t32 55t43 38.5l86 50zM476 800l-86 -50l-87 50l87 50zM390 750v-100l-87 50v100zM364 705q-26 15 -61 -5l-173 -100l-87 50l174 100q34 20 60 5zM130 600v-100l-87 50v100z" />
    <glyph glyph-name="six" unicode="6" 
d="M303 430l87 50q34 20 60 5t26 -55v-220q0 -26 -12 -56t-31.5 -55.5t-42.5 -38.5l-173 -100q-35 -20 -61 -5t-26 55v490q0 27 12 56.5t32 55t43 38.5l259 150v-100l-259 -150v-270q0 27 12 56.5t31.5 55t42.5 38.5zM217 60l173 100v220l-173 -100v-220zM390 380v-220
l-87 50v220zM390 160l-173 -100l-87 50l173 100zM450 485q-26 15 -60 -5l-87 -50q-23 -13 -42.5 -38.5t-31.5 -55t-12 -56.5l-87 50q0 27 12 56.5t32 55t43 38.5l86 50q35 20 61 5zM476 800l-259 -150q-23 -13 -43 -38.5t-32 -55t-12 -56.5v-490q0 -40 26 -55l-87 50
q-26 15 -26 55v490q0 27 12 56.5t32 55t43 38.5l260 150z" />
    <glyph glyph-name="sterling" unicode="&#xa3;" horiz-adv-x="658" 
d="M173 75v140l-86 -50v100l86 50v160q0 27 12 56.5t32 55t43 38.5l268 155q35 20 61 5t26 -55v-100l-87 -50v100l-268 -155v-160l260 150v-100l-260 -150v-140l355 205v-100l-269 -155q-34 -20 -60 -5t-26 55q0 -26 -12 -56t-32 -55.5t-43 -38.5l-86 -50v100zM173 75
l-86 -50l-87 50l87 50zM87 25v-100l-87 50v100zM260 125q0 -40 26 -55l-87 50q-26 15 -26 55zM615 330l-355 -205l-87 50l355 205zM528 680v-100l-86 50v100zM173 215v-140l-86 50v140zM520 515l-260 -150l-87 50l260 150zM173 315l-86 -50l-87 50l87 50zM589 785
q-26 15 -61 -5l-268 -155q-23 -13 -43 -38.5t-32 -55t-12 -56.5v-160l-86 50v160q0 27 12 56.5t31.5 55t42.5 38.5l269 155q34 20 60 5zM87 265v-100l-87 50v100z" />
    <glyph glyph-name="t" unicode="t" horiz-adv-x="476" 
d="M173 375l-86 -50v100l86 50v100l87 50v-200q0 27 12 56.5t31.5 55t42.5 38.5l87 50v-100l-173 -100v-380l173 100v-100l-173 -100q-35 -20 -61 -5t-26 55v380zM433 145l-173 -100l-87 50l173 100zM433 625l-87 -50q-23 -13 -42.5 -38.5t-31.5 -55t-12 -56.5l-87 50
q0 27 12 56.5t32 55t43 38.5l86 50zM173 475l-86 -50l-87 50l87 50zM173 375v-380q0 -40 26 -55l-86 50q-26 15 -26 55v380zM260 625l-87 -50l-86 50l86 50zM173 575v-100l-86 50v100zM87 425v-100l-87 50v100z" />
    <glyph glyph-name="tcaron" unicode="&#x165;" horiz-adv-x="476" 
d="M173 375l-86 -50v100l86 50v100l87 50v-200q0 27 12 56.5t31.5 55t42.5 38.5l87 50v-100l-173 -100v-380l173 100v-100l-173 -100q-35 -20 -61 -5t-26 55v380zM433 695q-34 -20 -60.5 -5t-26.5 55v60l87 50v-160zM433 145l-173 -100l-87 50l173 100zM433 625l-87 -50
q-23 -13 -42.5 -38.5t-31.5 -55t-12 -56.5l-87 50q0 27 12 56.5t32 55t43 38.5l86 50zM173 475l-86 -50l-87 50l87 50zM433 855l-87 -50l-86 50l86 50zM346 805v-60q0 -40 26 -55l-86 50q-26 15 -26 55v60zM173 375v-380q0 -40 26 -55l-86 50q-26 15 -26 55v380zM260 625
l-87 -50l-86 50l86 50zM173 575v-100l-86 50v100zM87 425v-100l-87 50v100z" />
    <glyph glyph-name="thorn" unicode="&#xfe;" 
d="M303 590l87 50q34 20 60 5t26 -55v-340q0 -26 -12 -56t-31.5 -55.5t-42.5 -38.5l-173 -100v-130l-87 -50v930l87 50v-360q0 27 12 56.5t31.5 55t42.5 38.5zM390 540l-173 -100v-340l173 100v340zM390 540v-340l-87 50v340zM390 200l-173 -100l-87 50l173 100zM450 645
q-26 15 -60 -5l-87 -50q-23 -13 -42.5 -38.5t-31.5 -55t-12 -56.5l-87 50q0 27 12 56.5t32 55t43 38.5l86 50q35 20 61 5zM217 800l-87 -50l-87 50l87 50zM130 750v-930l-87 50v930z" />
    <glyph glyph-name="three" unicode="3" 
d="M390 380l-173 -100v100l173 100v210l-173 -100v-80l-87 -50v80q0 27 12 56.5t32 55t43 38.5l173 100q34 20 60 5t26 -55v-110q0 -26 -12 -56t-31.5 -55.5t-42.5 -38.5q34 20 60 5t26 -55v-180q0 -26 -12 -56t-31.5 -55.5t-42.5 -38.5l-260 -150v100l260 150v180zM390 380
v-180l-87 50v180zM390 200l-260 -150l-87 50l260 150zM130 50v-100l-87 50v100zM450 485q-26 15 -60 -5l-87 50q35 20 61 5zM390 690v-210l-87 50v210zM390 480l-173 -100l-87 50l173 100zM217 380v-100l-87 50v100zM450 795q-26 15 -60 -5l-173 -100q-23 -13 -43 -38.5
t-32 -55t-12 -56.5v-80l-87 50v80q0 27 12 56.5t32 55t43 38.5l173 100q35 20 61 5z" />
    <glyph glyph-name="tilde" unicode="&#x2dc;" horiz-adv-x="559" 
d="M187 660l-68 25l79 159q21 44 50.5 61t63.5 5l68 -23l64 130l69 -25l-79 -159q-21 -43 -50.5 -60t-63.5 -6l-68 24zM513 992l-69 25l-86 50l68 -25zM444 1017l-64 -130l-87 50l65 130zM380 887l-68 23q-34 12 -63.5 -5t-50.5 -61l-79 -159l-87 50l79 159q21 44 51 61
t63 5l68 -23z" />
    <glyph glyph-name="tildecomb" unicode="&#x303;" horiz-adv-x="0" 
d="M187 660l-68 25l79 159q21 44 50.5 61t63.5 5l68 -23l64 130l69 -25l-79 -159q-21 -43 -50.5 -60t-63.5 -6l-68 24zM513 992l-69 25l-86 50l68 -25zM444 1017l-64 -130l-87 50l65 130zM380 887l-68 23q-34 12 -63.5 -5t-50.5 -61l-79 -159l-87 50l79 159q21 44 51 61
t63 5l68 -23z" />
    <glyph glyph-name="trademark" unicode="&#x2122;" horiz-adv-x="736" 
d="M606 825q0 27 12 56.5t32 55t43 38.5v-300l-260 -150v300l87 50v-100q0 27 12 56.5t31.5 55t42.5 38.5v-100zM130 650l260 150v-100l-87 -50v-200l-86 -50v200l-87 -50v100zM433 825v-300l-87 50v300zM693 975q-23 -13 -43 -38.5t-32 -55t-12 -56.5l-86 50q0 27 12 56.5
t31.5 55t42.5 38.5zM217 600v-200l-87 50v200zM606 925q-23 -13 -42.5 -38.5t-31.5 -55t-12 -56.5l-87 50q0 27 12 56.5t32 55t43 38.5zM390 800l-260 -150l-87 50l260 150zM130 650v-100l-87 50v100zM520 875l-87 -50l-87 50l87 50z" />
    <glyph glyph-name="two" unicode="2" 
d="M217 280v-180l259 150v-100l-346 -200v280q0 27 12 56.5t32 55t43 38.5l173 100v210l-173 -100v-80l-87 -50v80q0 27 12 56.5t32 55t43 38.5l173 100q34 20 60 5t26 -55v-210q0 -26 -12 -56t-31.5 -55.5t-42.5 -38.5zM390 690v-210l-87 50v210zM476 250l-259 -150l-87 50
l260 150zM390 480l-173 -100q-23 -13 -43 -38.5t-32 -55t-12 -56.5v-280l-87 50v280q0 27 12 56.5t32 55t43 38.5l173 100zM450 795q-26 15 -60 -5l-173 -100q-23 -13 -43 -38.5t-32 -55t-12 -56.5v-80l-87 50v80q0 27 12 56.5t32 55t43 38.5l173 100q35 20 61 5z" />
    <glyph glyph-name="u" unicode="u" 
d="M130 450l87 50v-440l173 100v440l86 50v-540l-86 -50v100q0 -26 -12 -56t-32 -55.5t-43 -38.5l-86 -50q-35 -20 -61 -5t-26 55v440zM390 160v-100l-87 50v100zM476 650l-86 -50l-87 50l87 50zM390 600v-440l-87 50v440zM217 500l-87 -50l-87 50l87 50zM390 160l-173 -100
l-87 50l173 100zM130 450v-440q0 -40 26 -55l-87 50q-26 15 -26 55v440z" />
    <glyph glyph-name="uacute" unicode="&#xfa;" 
d="M130 450l87 50v-440l173 100v440l86 50v-540l-86 -50v100q0 -26 -12 -56t-32 -55.5t-43 -38.5l-86 -50q-35 -20 -61 -5t-26 55v440zM168 669l207 252l46 -60l-207 -252zM390 160v-100l-87 50v100zM476 650l-86 -50l-87 50l87 50zM390 600v-440l-87 50v440zM217 500
l-87 -50l-87 50l87 50zM390 160l-173 -100l-87 50l173 100zM375 921l-207 -252l-87 50l207 252zM168 669l46 -60l-87 50l-46 60zM130 450v-440q0 -40 26 -55l-87 50q-26 15 -26 55v440z" />
    <glyph glyph-name="ubreve" unicode="&#x16d;" 
d="M130 450l87 50v-440l173 100v440l86 50v-540l-86 -50v100q0 -26 -12 -56t-32 -55.5t-43 -38.5l-86 -50q-35 -20 -61 -5t-26 55v440zM303 670q-46 -26 -85.5 -21t-63.5 36.5t-24 84.5l87 50q0 -40 26 -55t60 5q23 13 43 38.5t32 55.5t12 56l86 50q0 -40 -14 -84t-38 -86
t-55 -76t-66 -54zM390 160v-100l-87 50v100zM476 650l-86 -50l-87 50l87 50zM390 600v-440l-87 50v440zM476 970l-86 -50l-87 50l87 50zM217 500l-87 -50l-87 50l87 50zM390 160l-173 -100l-87 50l173 100zM390 920q0 -26 -12 -56t-32 -55.5t-43 -38.5q-34 -20 -60 -5
l-87 50q26 -15 61 5q22 13 42 38.5t32 55.5t12 56zM130 770q0 -40 14 -68t38 -42l-87 50q-23 14 -37.5 42t-14.5 68zM130 450v-440q0 -40 26 -55l-87 50q-26 15 -26 55v440zM217 820l-87 -50l-87 50l87 50z" />
    <glyph glyph-name="ucircumflex" unicode="&#xfb;" 
d="M130 450l87 50v-440l173 100v440l86 50v-540l-86 -50v100q0 -26 -12 -56t-32 -55.5t-43 -38.5l-86 -50q-35 -20 -61 -5t-26 55v440zM317 772l-132 -180l-47 52l166 228l166 -36l-41 -90zM390 160v-100l-87 50v100zM476 650l-86 -50l-87 50l87 50zM390 600v-440l-87 50
v440zM470 836l-166 36l-87 50l167 -36zM217 500l-87 -50l-87 50l87 50zM390 160l-173 -100l-87 50l173 100zM304 872l-166 -228l-87 50l166 228zM138 644l47 -52l-86 50l-48 52zM130 450v-440q0 -40 26 -55l-87 50q-26 15 -26 55v440z" />
    <glyph glyph-name="udieresis" unicode="&#xfc;" 
d="M130 450l87 50v-440l173 100v440l86 50v-540l-86 -50v100q0 -26 -12 -56t-32 -55.5t-43 -38.5l-86 -50q-35 -20 -61 -5t-26 55v440zM191 595q-27 -15 -44 -5t-17 40t17 60t44 45q26 15 43 5t17 -40t-17 -60t-43 -45zM416 725q-27 -15 -44 -5t-17 40t17 60t44 45
q26 15 43 5t17 -40t-17 -60t-43 -45zM390 160v-100l-87 50v100zM476 650l-86 -50l-87 50l87 50zM390 600v-440l-87 50v440zM459 870q-17 10 -43 -5q-27 -15 -44 -45t-17 -60t17 -40l-86 50q-18 10 -18 40t17.5 60t43.5 45t44 5zM217 500l-87 -50l-87 50l87 50zM390 160
l-173 -100l-87 50l173 100zM234 740q-17 10 -43 -5q-27 -15 -44 -45t-17 -60t17 -40l-87 50q-17 10 -17 40t17.5 60t43.5 45t43 5zM130 450v-440q0 -40 26 -55l-87 50q-26 15 -26 55v440z" />
    <glyph glyph-name="ugrave" unicode="&#xf9;" 
d="M130 450l87 50v-440l173 100v440l86 50v-540l-86 -50v100q0 -26 -12 -56t-32 -55.5t-43 -38.5l-86 -50q-35 -20 -61 -5t-26 55v440zM189 861l241 -57l-50 -103l-241 56zM390 160v-100l-87 50v100zM476 650l-86 -50l-87 50l87 50zM390 600v-440l-87 50v440zM430 804
l-241 57l-87 50l241 -57zM217 500l-87 -50l-87 50l87 50zM390 160l-173 -100l-87 50l173 100zM189 861l-50 -104l-86 50l49 104zM130 450v-440q0 -40 26 -55l-87 50q-26 15 -26 55v440z" />
    <glyph glyph-name="uhungarumlaut" unicode="&#x171;" 
d="M130 450l87 50v-440l173 100v440l86 50v-540l-86 -50v100q0 -26 -12 -56t-32 -55.5t-43 -38.5l-86 -50q-35 -20 -61 -5t-26 55v440zM114 615l111 209l69 -24l-110 -209zM314 730l110 209l69 -24l-110 -209zM390 160v-100l-87 50v100zM476 650l-86 -50l-87 50l87 50z
M390 600v-440l-87 50v440zM493 915l-69 24l-86 50l68 -24zM217 500l-87 -50l-87 50l87 50zM390 160l-173 -100l-87 50l173 100zM424 939l-110 -209l-87 50l111 209zM130 450v-440q0 -40 26 -55l-87 50q-26 15 -26 55v440zM294 800l-69 24l-86 50l68 -24zM225 824l-111 -209
l-86 50l111 209z" />
    <glyph glyph-name="umacron" unicode="&#x16b;" 
d="M130 450l87 50v-440l173 100v440l86 50v-540l-86 -50v100q0 -26 -12 -56t-32 -55.5t-43 -38.5l-86 -50q-35 -20 -61 -5t-26 55v440zM156 695l260 150v-100l-260 -150v100zM390 160v-100l-87 50v100zM476 650l-86 -50l-87 50l87 50zM390 600v-440l-87 50v440zM217 500
l-87 -50l-87 50l87 50zM390 160l-173 -100l-87 50l173 100zM416 845l-260 -150l-87 50l260 150zM156 695v-100l-87 50v100zM130 450v-440q0 -40 26 -55l-87 50q-26 15 -26 55v440z" />
    <glyph glyph-name="underscore" unicode="_" 
d="M130 -50v100l346 200v-100zM476 250l-346 -200l-87 50l347 200zM130 50v-100l-87 50v100z" />
    <glyph glyph-name="J_acutecomb.ccmp" horiz-adv-x="563" 
d="M217 700l303 175v-640q0 -26 -12.5 -56t-32 -55.5t-42.5 -38.5l-216 -125q-35 -20 -61 -5t-26 55v240l87 50v-240l216 125v640q0 -26 -12 -56t-32 -55.5t-43 -38.5l-129 -75v100zM224 901l207 252l46 -61l-207 -252zM433 825v-640l-87 50v640zM433 185l-216 -125l-87 50
l216 125zM520 875l-303 -175l-87 50l303 175zM217 700v-100l-87 50v100zM217 300l-87 -50l-87 50l87 50zM130 250v-240q0 -40 26 -55l-87 50q-26 15 -26 55v240zM431 1153l-207 -252l-86 50l207 252zM224 901l46 -61l-86 50l-46 61z" />
    <glyph glyph-name="j_acutecomb.ccmp" horiz-adv-x="433" 
d="M303 550q0 -26 -12 -56t-32 -55.5t-42 -38.5l-87 -50v100l260 150v-540q0 -26 -12 -56t-32 -55.5t-43 -38.5l-173 -100v100l173 100v540zM125 644l207 252l46 -60l-207 -252zM303 550v-540l-86 50v540zM303 10l-173 -100l-87 50l174 100zM130 -90v-100l-87 50v100z
M390 600l-260 -150l-87 50l260 150zM130 450v-100l-87 50v100zM332 896l-207 -252l-87 50l207 252zM125 644l46 -60l-87 50l-46 60z" />
    <glyph glyph-name="uni0122" unicode="&#x122;" horiz-adv-x="563" 
d="M217 740l216 125q34 20 60.5 5t26.5 -55v-100l-87 -50v100l-216 -125v-580l216 125v240l-130 -75v100l217 125v-440l-87 -50v100q0 -26 -12 -56t-32 -55.5t-43 -38.5l-129 -75q-35 -20 -61 -5t-26 55v580q0 27 12 56.5t32 55t43 38.5zM329 -185q-30 -17 -49.5 -6
t-19.5 46t19.5 69t49.5 51t49.5 6t19.5 -46v-80q0 -47 -17.5 -73.5t-51.5 -46.5v80zM433 185v-100l-87 50v100zM433 425v-240l-87 50v240zM433 765v-100l-87 50v100zM329 -185v-80l-87 50v80zM520 575l-217 -125l-86 50l216 125zM303 450v-100l-86 50v100zM379 -19
q-20 11 -50 -6t-49.5 -51t-19.5 -69t19 -46l-86 50q-20 11 -20 46t19.5 69t49.5 51q31 17 50 6zM433 185l-216 -125l-87 50l216 125zM494 870q-27 15 -61 -5l-216 -125q-23 -13 -43 -38.5t-32 -55t-12 -56.5v-580q0 -40 26 -55l-87 50q-26 15 -26 55v580q0 27 12 56.5t32 55
t43 38.5l216 125q35 20 61 5z" />
    <glyph glyph-name="uni0123" unicode="&#x123;" 
d="M217 90q-35 -20 -61 -5t-26 55v210q0 27 12 56.5t32 55t43 38.5l86 50q35 20 61 5t26 -55v100l86 50v-540q0 -26 -12 -56t-31.5 -55.5t-42.5 -38.5l-260 -150v100l260 150v230q0 -26 -12 -56t-32 -55.5t-43 -38.5zM217 190l173 100v210l-173 -100v-210zM303 -300
q-30 -17 -49.5 -6t-19.5 46t19.5 69t49.5 51t49.5 6t19.5 -46v-80q0 -47 -17.5 -73.5t-51.5 -46.5v80zM390 290v-230l-87 50v230zM476 650l-86 -50l-87 50l87 50zM390 600v-100l-87 50v100zM390 500v-210l-87 50v210zM303 -300v-80l-86 50v80zM390 290l-173 -100l-87 50
l173 100zM353 -134q-20 11 -50 -6t-49.5 -51t-19.5 -69t19 -46l-86 50q-20 11 -20 46t19.5 69t50.5 51q30 17 49 6zM390 60l-260 -150l-87 50l260 150zM130 -90v-100l-87 50v100zM364 555q-26 15 -61 -5l-86 -50q-23 -13 -43 -38.5t-32 -55t-12 -56.5v-210q0 -40 26 -55
l-87 50q-26 15 -26 55v210q0 27 12 56.5t32 55t43 38.5l87 50q34 20 60 5z" />
    <glyph glyph-name="uni0136" unicode="&#x136;" horiz-adv-x="563" 
d="M130 650l87 50v-300l216 125v300l87 50v-200q0 -26 -12.5 -56t-32 -55.5t-42.5 -38.5q34 20 60.5 5t26.5 -55v-300l-87 -50v300l-216 -125v-300l-87 -50v700zM329 -145q-30 -17 -49.5 -6t-19.5 46t19.5 69t49.5 51t49.5 6t19.5 -46v-80q0 -47 -17.5 -73.5t-51.5 -46.5v80
zM433 425v-300l-87 50v300zM494 530q-27 15 -61 -5l-87 50q35 20 61 5zM520 875l-87 -50l-87 50l87 50zM329 -145v-80l-87 50v80zM433 825v-300l-87 50v300zM433 525l-216 -125l-87 50l216 125zM379 21q-20 11 -50 -6t-49.5 -51t-19.5 -69t19 -46l-86 50q-20 11 -20 46
t19.5 69t49.5 51q31 17 50 6zM217 700l-87 -50l-87 50l87 50zM130 650v-700l-87 50v700z" />
    <glyph glyph-name="uni0137" unicode="&#x137;" 
d="M390 100v200l-173 -100v-200l-87 -50v800l87 50v-500l173 100v200l86 50v-100q0 -26 -12 -56t-31.5 -55.5t-42.5 -38.5q34 20 60 5t26 -55v-200zM303 -160q-30 -17 -49.5 -6t-19.5 46t19.5 69t49.5 51t49.5 6t19.5 -46v-80q0 -47 -17.5 -73.5t-51.5 -46.5v80zM450 405
q-26 15 -60 -5l-87 50q35 20 61 5zM476 650l-86 -50l-87 50l87 50zM390 300v-200l-87 50v200zM303 -160v-80l-86 50v80zM390 600v-200l-87 50v200zM390 400l-173 -100l-87 50l173 100zM217 800l-87 -50l-87 50l87 50zM353 6q-20 11 -50 -6t-49.5 -51t-19.5 -69t19 -46
l-86 50q-20 11 -20 46t19.5 69t50.5 51q30 17 49 6zM130 750v-800l-87 50v800z" />
    <glyph glyph-name="uni013B" unicode="&#x13b;" horiz-adv-x="476" 
d="M217 60l216 125v-100l-216 -125q-35 -20 -61 -5t-26 55v790l87 50v-790zM260 -225q-30 -17 -49.5 -6t-19.5 46t19.5 69t49.5 51t49.5 6t19.5 -46v-80q0 -47 -17.5 -73.5t-51.5 -46.5v80zM217 850l-87 -50l-87 50l87 50zM433 185l-216 -125l-87 50l216 125zM260 -225v-80
l-87 50v80zM310 -59q-20 11 -50 -6t-49.5 -51t-19.5 -69t19 -46l-87 50q-19 11 -19 46t19.5 69t49.5 51t50 6zM130 800v-790q0 -40 26 -55l-87 50q-26 15 -26 55v790z" />
    <glyph glyph-name="uni013C" unicode="&#x13c;" horiz-adv-x="390" 
d="M217 60l129 75v-100l-129 -75q-35 -20 -61 -5t-26 55v740l87 50v-740zM234 -240q-30 -17 -49.5 -6t-19.5 46t19.5 69t49.5 51t49.5 6t19.5 -46v-80q0 -47 -17.5 -73.5t-51.5 -46.5v80zM217 800l-87 -50l-87 50l87 50zM346 135l-129 -75l-87 50l130 75zM234 -240v-80
l-87 50v80zM284 -74q-20 11 -50 -6t-49.5 -51t-19.5 -69t19 -46l-86 50q-20 11 -20 46t19.5 69t49.5 51t50 6zM130 750v-740q0 -40 26 -55l-87 50q-26 15 -26 55v740z" />
    <glyph glyph-name="uni0145" unicode="&#x145;" horiz-adv-x="693" 
d="M346 775q35 20 61 5t26 -55v-500l130 75v600l87 50v-700l-217 -125q-34 -20 -60.5 -5t-26.5 55v500l-129 -75v-600l-87 -50v700zM390 -110q-30 -17 -50 -6t-20 46t20 69t50 51t49.5 6t19.5 -46v-80q0 -47 -17.5 -73.5t-51.5 -46.5v80zM650 950l-87 -50l-87 50l87 50z
M563 900v-600l-87 50v600zM563 300l-130 -75l-87 50l130 75zM390 -110v-80l-87 50v80zM346 675v-500q0 -40 26 -55l-86 50q-26 15 -26 55v500zM439 56q-19 11 -49 -6t-50 -51t-20 -69t20 -46l-87 50q-19 11 -19 46t19.5 69t49.5 51t50 6zM407 780q-26 15 -61 -5l-216 -125
l-87 50l217 125q34 20 60 5zM130 650v-700l-87 50v700z" />
    <glyph glyph-name="uni0146" unicode="&#x146;" 
d="M130 490l87 50v-100q0 27 12 56.5t31.5 55t42.5 38.5l87 50q34 20 60 5t26 -55v-440l-86 -50v440l-173 -100v-440l-87 -50v540zM303 -160q-30 -17 -49.5 -6t-19.5 46t19.5 69t49.5 51t49.5 6t19.5 -46v-80q0 -47 -17.5 -73.5t-51.5 -46.5v80zM390 540v-440l-87 50v440z
M303 -160v-80l-86 50v80zM450 645q-26 15 -60 -5l-87 -50q-23 -13 -42.5 -38.5t-31.5 -55t-12 -56.5l-87 50q0 27 12 56.5t32 55t43 38.5l86 50q35 20 61 5zM353 6q-20 11 -50 -6t-49.5 -51t-19.5 -69t19 -46l-86 50q-20 11 -20 46t19.5 69t50.5 51q30 17 49 6zM217 540
l-87 -50l-87 50l87 50zM130 490v-540l-87 50v540z" />
    <glyph glyph-name="uni0156" unicode="&#x156;" horiz-adv-x="563" 
d="M433 325l-216 -125v-200l-87 -50v740l303 175q34 20 60.5 5t26.5 -55v-240q0 -26 -12.5 -56t-32 -55.5t-42.5 -38.5q34 20 60.5 5t26.5 -55v-200l-87 -50v200zM433 425v340l-216 -125v-340zM329 -155q-30 -17 -49.5 -6t-19.5 46t19.5 69t49.5 51t49.5 6t19.5 -46v-80
q0 -47 -17.5 -73.5t-51.5 -46.5v80zM433 325v-200l-87 50v200zM494 430q-27 15 -61 -5l-87 50q35 20 61 5zM329 -155v-80l-87 50v80zM433 765v-340l-87 50v340zM433 425l-216 -125l-87 50l216 125zM379 11q-20 11 -50 -6t-49.5 -51t-19.5 -69t19 -46l-86 50q-20 11 -20 46
t19.5 69t49.5 51q31 17 50 6zM494 870q-27 15 -61 -5l-303 -175l-87 50l303 175q35 20 61 5zM130 690v-740l-87 50v740z" />
    <glyph glyph-name="uni0157" unicode="&#x157;" horiz-adv-x="476" 
d="M130 450l87 50v-100l86 50q0 27 12 56.5t32 55t43 38.5l86 50v-100l-86 -50q0 -26 -12 -56t-32 -55.5t-43 -38.5l-86 -50v-300l-87 -50v500zM260 -185q-30 -17 -49.5 -6t-19.5 46t19.5 69t49.5 51t49.5 6t19.5 -46v-80q0 -47 -17.5 -73.5t-51.5 -46.5v80zM476 650
l-86 -50q-23 -13 -43 -38.5t-32 -55t-12 -56.5l-86 50q0 27 12 56.5t31.5 55t42.5 38.5l87 50zM303 450l-86 -50l-87 50l87 50zM260 -185v-80l-87 50v80zM217 500l-87 -50l-87 50l87 50zM310 -19q-20 11 -50 -6t-49.5 -51t-19.5 -69t19 -46l-87 50q-19 11 -19 46t19.5 69
t49.5 51t50 6zM130 450v-500l-87 50v500z" />
    <glyph glyph-name="uni0162" unicode="&#x162;" horiz-adv-x="572" 
d="M286 640l-156 -90v100l398 230v-100l-156 -90v-690l-86 -50v690zM372 0q35 20 61 5t26 -55q0 -26 -12 -56t-32 -55.5t-43 -38.5l-86 -50v100l86 50v100zM433 5q-26 15 -61 -5l-86 50q34 20 60 5zM372 0v-100l-86 50v100zM372 -100l-86 -50l-87 50l87 50zM286 -150v-100
l-87 50v100zM286 640v-690l-87 50v690zM528 880l-398 -230l-87 50l399 230zM130 650v-100l-87 50v100z" />
    <glyph glyph-name="uni0163" unicode="&#x163;" horiz-adv-x="476" 
d="M303 -30q35 20 61 5t26 -55q0 -26 -12 -56t-32 -55.5t-43 -38.5l-86 -50v100l86 50v100l-43 -25q-35 -20 -61 -5t-26 55v380l-86 -50v100l86 50v100l87 50v-200q0 27 12 56.5t31.5 55t42.5 38.5l87 50v-100l-173 -100v-380l173 100v-100zM433 145l-173 -100l-87 50
l173 100zM433 625l-87 -50q-23 -13 -42.5 -38.5t-31.5 -55t-12 -56.5l-87 50q0 27 12 56.5t32 55t43 38.5l86 50zM173 475l-86 -50l-87 50l87 50zM303 -30v-100l-86 50v100zM303 -130l-86 -50l-87 50l87 50zM217 -180v-100l-87 50v100zM364 -25q-26 15 -61 -5l-86 50
q34 20 60 5zM260 625l-87 -50l-86 50l86 50zM173 575v-100l-86 50v100zM173 375v-380q0 -40 26 -55l-86 50q-26 15 -26 55v380zM87 425v-100l-87 50v100z" />
    <glyph glyph-name="uni01CD" unicode="&#x1cd;" horiz-adv-x="563" 
d="M217 740l216 125q34 20 60.5 5t26.5 -55v-640l-87 -50v200l-216 -125v-200l-87 -50v640q0 27 12 56.5t32 55t43 38.5zM433 425v340l-216 -125v-340zM349 931l-184 27l45 96l118 -26l119 163l51 -58zM433 325v-200l-87 50v200zM433 765v-340l-87 50v340zM447 1191
l-119 -163l-86 50l118 163zM328 1028l-118 26l-87 50l119 -26zM433 425l-216 -125l-87 50l216 125zM494 870q-27 15 -61 -5l-216 -125q-23 -13 -43 -38.5t-32 -55t-12 -56.5v-640l-87 50v640q0 27 12 56.5t32 55t43 38.5l216 125q35 20 61 5zM210 1054l-45 -96l-87 50l45 96
z" />
    <glyph glyph-name="uni01CE" unicode="&#x1ce;" 
d="M130 490l260 150q34 20 60 5t26 -55v-480l-86 -50v100q0 -26 -12 -56t-32 -55.5t-43 -38.5l-86 -50q-35 -20 -61 -5t-26 55v140q0 27 12 56.5t32 55t43 38.5l173 100v140l-260 -150v100zM325 723l-185 27l45 96l119 -26l119 163l51 -58zM217 60l173 100v140l-173 -100
v-140zM390 540v-140l-87 50v140zM390 160v-100l-87 50v100zM423 983l-119 -163l-87 50l119 163zM304 820l-119 26l-86 50l118 -26zM390 300v-140l-87 50v140zM390 160l-173 -100l-87 50l173 100zM390 400l-173 -100q-23 -13 -43 -38.5t-32 -55t-12 -56.5v-140q0 -40 26 -55
l-87 50q-26 15 -26 55v140q0 27 12 56.5t32 55t43 38.5l173 100zM450 645q-26 15 -60 -5l-260 -150l-87 50l260 150q35 20 61 5zM130 490v-100l-87 50v100zM185 846l-45 -96l-86 50l45 96z" />
    <glyph glyph-name="uni0218" unicode="&#x218;" horiz-adv-x="563" 
d="M217 300q-35 -20 -61 -5t-26 55v240q0 27 12 56.5t32 55t43 38.5l216 125q34 20 60.5 5t26.5 -55v-140l-87 -50v140l-216 -125v-240l216 125q34 20 60.5 5t26.5 -55v-240q0 -26 -12.5 -56t-32 -55.5t-42.5 -38.5l-216 -125q-35 -20 -61 -5t-26 55v100l87 50v-100l216 125
v240zM329 -195q-30 -17 -49.5 -6t-19.5 46t19.5 69t49.5 51t49.5 6t19.5 -46v-80q0 -47 -17.5 -73.5t-51.5 -46.5v80zM433 425v-240l-87 50v240zM433 765v-140l-87 50v140zM329 -195v-80l-87 50v80zM494 530q-27 15 -61 -5l-216 -125l-87 50l216 125q35 20 61 5zM379 -29
q-20 11 -50 -6t-49.5 -51t-19.5 -69t19 -46l-86 50q-20 11 -20 46t19.5 69t49.5 51q31 17 50 6zM433 185l-216 -125l-87 50l216 125zM217 160l-87 -50l-87 50l87 50zM130 110v-100q0 -40 26 -55l-87 50q-26 15 -26 55v100zM494 870q-27 15 -61 -5l-216 -125
q-23 -13 -43 -38.5t-32 -55t-12 -56.5v-240q0 -40 26 -55l-87 50q-26 15 -26 55v240q0 27 12 56.5t32 55t43 38.5l216 125q35 20 61 5z" />
    <glyph glyph-name="uni0219" unicode="&#x219;" 
d="M217 200q-35 -20 -61 -5t-26 55v100q0 27 12 56.5t32 55t43 38.5l259 150v-100l-259 -150v-100l173 100q34 20 60 5t26 -55v-100q0 -26 -12 -56t-31.5 -55.5t-42.5 -38.5l-260 -150v100l260 150v100zM303 -160q-30 -17 -49.5 -6t-19.5 46t19.5 69t49.5 51t49.5 6
t19.5 -46v-80q0 -47 -17.5 -73.5t-51.5 -46.5v80zM390 300v-100l-87 50v100zM303 -160v-80l-86 50v80zM450 405q-26 15 -60 -5l-173 -100l-87 50l173 100q35 20 61 5zM353 6q-20 11 -50 -6t-49.5 -51t-19.5 -69t19 -46l-86 50q-20 11 -20 46t19.5 69t50.5 51q30 17 49 6z
M390 200l-260 -150l-87 50l260 150zM130 50v-100l-87 50v100zM476 650l-259 -150q-23 -13 -43 -38.5t-32 -55t-12 -56.5v-100q0 -40 26 -55l-87 50q-26 15 -26 55v100q0 27 12 56.5t32 55t43 38.5l260 150z" />
    <glyph glyph-name="uni021A" unicode="&#x21a;" horiz-adv-x="572" 
d="M286 640l-156 -90v100l398 230v-100l-156 -90v-690l-86 -50v690zM329 -235q-30 -17 -49.5 -6t-19.5 46t19.5 69t49.5 51t49.5 6t19.5 -46v-80q0 -47 -17.5 -73.5t-51.5 -46.5v80zM329 -235v-80l-87 50v80zM379 -69q-20 11 -50 -6t-49.5 -51t-19.5 -69t19 -46l-86 50
q-20 11 -20 46t19.5 69t49.5 51q31 17 50 6zM286 640v-690l-87 50v690zM528 880l-398 -230l-87 50l399 230zM130 650v-100l-87 50v100z" />
    <glyph glyph-name="uni021B" unicode="&#x21b;" horiz-adv-x="476" 
d="M173 375l-86 -50v100l86 50v100l87 50v-200q0 27 12 56.5t31.5 55t42.5 38.5l87 50v-100l-173 -100v-380l173 100v-100l-173 -100q-35 -20 -61 -5t-26 55v380zM281 -252q-30 -18 -49.5 -6.5t-19.5 46.5q0 34 19.5 68t49.5 52q31 17 50.5 5.5t19.5 -45.5v-80
q0 -47 -18 -74t-52 -46v80zM433 145l-173 -100l-87 50l173 100zM433 625l-87 -50q-23 -13 -42.5 -38.5t-31.5 -55t-12 -56.5l-87 50q0 27 12 56.5t32 55t43 38.5l86 50zM173 475l-86 -50l-87 50l87 50zM281 -252v-80l-86 50v80zM260 625l-87 -50l-86 50l86 50zM173 575v-100
l-86 50v100zM331 -86q-19 11 -50 -6q-30 -18 -49.5 -52t-19.5 -68q0 -35 20 -47l-87 50q-19 12 -19 47q0 34 19.5 68t49.5 52q30 17 50 6zM173 375v-380q0 -40 26 -55l-86 50q-26 15 -26 55v380zM87 425v-100l-87 50v100z" />
    <glyph glyph-name="uni0237" unicode="&#x237;" horiz-adv-x="433" 
d="M303 550q0 -26 -12 -56t-32 -55.5t-42 -38.5l-87 -50v100l260 150v-540q0 -26 -12 -56t-32 -55.5t-43 -38.5l-173 -100v100l173 100v540zM303 550v-540l-86 50v540zM303 10l-173 -100l-87 50l174 100zM130 -90v-100l-87 50v100zM390 600l-260 -150l-87 50l260 150z
M130 450v-100l-87 50v100z" />
    <glyph glyph-name="uni0302" unicode="&#x302;" horiz-adv-x="0" 
d="M312 808l-131 -179l-48 51l167 228l166 -36l-41 -90zM466 872l-166 36l-87 50l166 -36zM300 908l-167 -228l-86 50l166 228zM133 680l48 -51l-87 50l-47 51z" />
    <glyph glyph-name="uni0304" unicode="&#x304;" horiz-adv-x="0" 
d="M173 745l260 150v-100l-260 -150v100zM433 895l-260 -150l-86 50l259 150zM173 745v-100l-86 50v100z" />
    <glyph glyph-name="uni0306" unicode="&#x306;" horiz-adv-x="0" 
d="M303 620q-46 -26 -85.5 -21t-63.5 36.5t-24 84.5l87 50q0 -40 26 -55t60 5q23 13 43 38.5t32 55.5t12 56l86 50q0 -40 -14 -84t-38 -86t-55 -76t-66 -54zM476 920l-86 -50l-87 50l87 50zM390 870q0 -26 -12 -56t-32 -55.5t-43 -38.5q-34 -20 -60 -5l-87 50q26 -15 61 5
q22 13 42 38.5t32 55.5t12 56zM130 720q0 -40 14 -68t38 -42l-87 50q-23 14 -37.5 42t-14.5 68zM217 770l-87 -50l-87 50l87 50z" />
    <glyph glyph-name="uni0307" unicode="&#x307;" horiz-adv-x="0" 
d="M303 660q-26 -15 -43.5 -5t-17.5 40t17.5 60t43.5 45t43.5 5t17.5 -40t-17.5 -60t-43.5 -45zM347 805q-18 10 -44 -5t-43.5 -45t-17.5 -60t18 -40l-87 50q-17 10 -17 40t17 60t44 45q26 15 43 5z" />
    <glyph glyph-name="uni0308" unicode="&#x308;" horiz-adv-x="0" 
d="M191 635q-27 -15 -44 -5t-17 40t17 60t44 45q26 15 43 5t17 -40t-17 -60t-43 -45zM416 765q-27 -15 -44 -5t-17 40t17 60t44 45q26 15 43 5t17 -40t-17 -60t-43 -45zM234 780q-17 10 -43 -5q-27 -15 -44 -45t-17 -60t17 -40l-87 50q-17 10 -17 40t17.5 60t43.5 45t43 5z
M459 910q-17 10 -43 -5q-27 -15 -44 -45t-17 -60t17 -40l-86 50q-18 10 -18 40t17.5 60t43.5 45t44 5z" />
    <glyph glyph-name="uni030B" unicode="&#x30b;" horiz-adv-x="0" 
d="M114 640l111 209l69 -24l-110 -209zM314 755l110 209l69 -24l-110 -209zM493 940l-69 24l-86 50l68 -24zM424 964l-110 -209l-87 50l111 209zM294 825l-69 24l-86 50l68 -24zM225 849l-111 -209l-86 50l111 209z" />
    <glyph glyph-name="uni030C" unicode="&#x30c;" horiz-adv-x="0" 
d="M325 712l-185 27l45 96l119 -26l119 163l51 -58zM423 972l-119 -163l-87 50l119 163zM304 809l-119 26l-86 50l118 -26zM185 835l-45 -96l-86 50l45 96z" />
    <glyph glyph-name="uni0312" unicode="&#x312;" horiz-adv-x="0" 
d="M199 740q30 17 49.5 6t19.5 -46t-19.5 -69t-49.5 -51t-49.5 -6t-19.5 46v80q0 47 17.5 73.5t51.5 46.5v-80zM249 746q-20 11 -50 -6l-86 50q30 17 49 6zM199 820q-34 -20 -51.5 -46.5t-17.5 -73.5v-80q0 -35 19 -46l-86 50q-20 11 -20 46v80q0 47 18 73.5t52 46.5z" />
    <glyph glyph-name="uni0326" unicode="&#x326;" horiz-adv-x="0" 
d="M329 -195q-30 -17 -49.5 -6t-19.5 46t19.5 69t49.5 51t49.5 6t19.5 -46v-80q0 -47 -17.5 -73.5t-51.5 -46.5v80zM329 -195v-80l-87 50v80zM379 -29q-20 11 -50 -6t-49.5 -51t-19.5 -69t19 -46l-86 50q-20 11 -20 46t19.5 69t49.5 51q31 17 50 6z" />
    <glyph glyph-name="uni0327" unicode="&#x327;" horiz-adv-x="0" 
d="M130 -50q34 20 60.5 5t26.5 -55q0 -26 -12.5 -56t-32 -55.5t-42.5 -38.5l-87 -50v100l87 50v100zM190 -45q-26 15 -60 -5l-87 50q35 20 61 5zM130 -50v-100l-87 50v100zM130 -150l-87 -50l-86 50l86 50zM43 -200v-100l-86 50v100z" />
    <glyph glyph-name="uni0328" unicode="&#x328;" horiz-adv-x="0" 
d="M303 10v-100l87 50v-100l-87 -50q-34 -20 -60 -5t-26 55q0 27 12 56.5t31.5 55t42.5 38.5zM390 -40l-87 -50l-86 50l86 50zM303 10q-23 -13 -42.5 -38.5t-31.5 -55t-12 -56.5q0 -40 26 -55l-87 50q-26 15 -26 55q0 27 12 56.5t32 55t43 38.5z" />
    <glyph glyph-name="uni1E20" unicode="&#x1e20;" horiz-adv-x="563" 
d="M217 740l216 125q34 20 60.5 5t26.5 -55v-100l-87 -50v100l-216 -125v-580l216 125v240l-130 -75v100l217 125v-440l-87 -50v100q0 -26 -12 -56t-32 -55.5t-43 -38.5l-129 -75q-35 -20 -61 -5t-26 55v580q0 27 12 56.5t32 55t43 38.5zM156 935l303 175v-100l-303 -175
v100zM433 185v-100l-87 50v100zM433 425v-240l-87 50v240zM433 765v-100l-87 50v100zM520 575l-217 -125l-86 50l216 125zM303 450v-100l-86 50v100zM433 185l-216 -125l-87 50l216 125zM494 870q-27 15 -61 -5l-216 -125q-23 -13 -43 -38.5t-32 -55t-12 -56.5v-580
q0 -40 26 -55l-87 50q-26 15 -26 55v580q0 27 12 56.5t32 55t43 38.5l216 125q35 20 61 5zM459 1110l-303 -175l-87 50l303 175zM156 935v-100l-87 50v100z" />
    <glyph glyph-name="uni1E21" unicode="&#x1e21;" 
d="M217 90q-35 -20 -61 -5t-26 55v210q0 27 12 56.5t32 55t43 38.5l86 50q35 20 61 5t26 -55v100l86 50v-540q0 -26 -12 -56t-31.5 -55.5t-42.5 -38.5l-260 -150v100l260 150v230q0 -26 -12 -56t-32 -55.5t-43 -38.5zM217 190l173 100v210l-173 -100v-210zM156 695l260 150
v-100l-260 -150v100zM390 290v-230l-87 50v230zM390 60l-260 -150l-87 50l260 150zM130 -90v-100l-87 50v100zM476 650l-86 -50l-87 50l87 50zM390 600v-100l-87 50v100zM390 500v-210l-87 50v210zM390 290l-173 -100l-87 50l173 100zM416 845l-260 -150l-87 50l260 150z
M364 555q-26 15 -61 -5l-86 -50q-23 -13 -43 -38.5t-32 -55t-12 -56.5v-210q0 -40 26 -55l-87 50q-26 15 -26 55v210q0 27 12 56.5t32 55t43 38.5l87 50q34 20 60 5zM156 695v-100l-87 50v100z" />
    <glyph glyph-name="uni1E9E" unicode="&#x1e9e;" horiz-adv-x="563" 
d="M398 585l35 20v160l-216 -125v-640l-87 -50v640q0 27 12 56.5t32 55t43 38.5l216 125q34 20 60.5 5t26.5 -55v-160q0 -26 -12.5 -56t-32 -55.5t-42.5 -38.5l-35 -20v-60l35 20q34 20 60.5 5t26.5 -55v-120q0 -27 -12.5 -56.5t-32 -55t-42.5 -38.5l-130 -75v100l130 75
v120l-35 -20q-34 -20 -60 -5t-26 55v60q0 27 12 56.5t31.5 55t42.5 38.5zM433 765v-160l-87 50v160zM433 345v-120l-87 50v120zM433 225l-130 -75l-86 50l129 75zM303 150v-100l-86 50v100zM494 450q-27 15 -61 -5l-35 -20l-86 50l34 20q35 20 61 5zM433 605l-35 -20
q-23 -13 -42.5 -38.5t-31.5 -55t-12 -56.5v-60q0 -40 26 -55l-87 50q-26 15 -26 55v60q0 27 12 56.5t32 55t43 38.5l34 20zM494 870q-27 15 -61 -5l-216 -125q-23 -13 -43 -38.5t-32 -55t-12 -56.5v-640l-87 50v640q0 27 12 56.5t32 55t43 38.5l216 125q35 20 61 5z" />
    <glyph glyph-name="uni1EBC" unicode="&#x1ebc;" horiz-adv-x="563" 
d="M130 550q0 27 12 56.5t32 55t43 38.5l303 175v-100l-303 -175v-220l303 175v-100l-303 -175v-220l303 175v-100l-303 -175q-35 -20 -61 -5t-26 55v540zM187 794l-68 25l79 159q21 44 50.5 61t63.5 5l68 -23l64 130l69 -25l-79 -159q-21 -43 -50.5 -60t-63.5 -6l-68 24z
M520 235l-303 -175l-87 50l303 175zM513 1126l-69 25l-86 50l68 -25zM444 1151l-64 -130l-87 50l65 130zM520 555l-303 -175l-87 50l303 175zM520 875l-303 -175q-23 -13 -43 -38.5t-32 -55t-12 -56.5v-540q0 -40 26 -55l-87 50q-26 15 -26 55v540q0 27 12 56.5t32 55
t43 38.5l303 175zM380 1021l-68 23q-34 12 -63.5 -5t-50.5 -61l-79 -159l-87 50l79 159q21 44 51 61t63 5l68 -23z" />
    <glyph glyph-name="uni1EBD" unicode="&#x1ebd;" 
d="M217 540l173 100q34 20 60 5t26 -55v-150q0 -26 -12 -56t-31.5 -55.5t-42.5 -38.5l-87 -50q-34 -20 -60 -5t-26 55v-230l259 150v-100l-259 -150q-35 -20 -61 -5t-26 55v380q0 27 12 56.5t32 55t43 38.5zM167 621l-69 25l79 159q21 44 50.5 61t63.5 5l68 -23l65 130
l68 -25l-78 -159q-22 -43 -51.5 -60t-63.5 -6l-68 24zM390 540l-173 -100v-150l173 100v150zM476 210l-259 -150l-87 50l260 150zM492 953l-68 25l-87 50l68 -25zM424 978l-65 -130l-87 50l65 130zM390 540v-150l-87 50v150zM217 290q0 -40 26 -55l-87 50q-26 15 -26 55z
M390 390l-173 -100l-87 50l173 100zM450 645q-26 15 -60 -5l-173 -100q-23 -13 -43 -38.5t-32 -55t-12 -56.5v-380q0 -40 26 -55l-87 50q-26 15 -26 55v380q0 27 12 56.5t32 55t43 38.5l173 100q35 20 61 5zM359 848l-68 23q-34 12 -63.5 -5t-50.5 -61l-79 -159l-87 50
l79 159q22 44 51.5 61t62.5 5l68 -23z" />
    <glyph glyph-name="uni1EF8" unicode="&#x1ef8;" horiz-adv-x="572" 
d="M286 240l-69 -40q-35 -20 -61 -5t-26 55v400l87 50v-400l225 130v400l86 50v-400q0 -26 -12 -56t-31.5 -55.5t-42.5 -38.5l-70 -40v-300l-86 -50v300zM187 793l-68 25l79 159q21 44 50.5 61t63.5 5l68 -23l64 130l69 -25l-79 -159q-21 -43 -50.5 -60t-63.5 -6l-68 24z
M286 240v-300l-87 50v300zM528 880l-86 -50l-87 50l87 50zM442 830v-400l-87 50v400zM442 430l-225 -130l-87 50l225 130zM513 1125l-69 25l-86 50l68 -25zM444 1150l-64 -130l-87 50l65 130zM217 700l-87 -50l-87 50l87 50zM130 650v-400q0 -40 26 -55l-87 50
q-26 15 -26 55v400zM380 1020l-68 23q-34 12 -63.5 -5t-50.5 -61l-79 -159l-87 50l79 159q21 44 51 61t63 5l68 -23z" />
    <glyph glyph-name="uni1EF9" unicode="&#x1ef9;" 
d="M217 90q-35 -20 -61 -5t-26 55v310l87 50v-310l173 100v310l86 50v-540q0 -26 -12 -56t-31.5 -55.5t-42.5 -38.5l-260 -150v100l260 150v230q0 -26 -12 -56t-32 -55.5t-43 -38.5zM167 581l-69 25l79 159q21 44 50.5 61t63.5 5l68 -23l65 130l68 -25l-78 -159
q-22 -43 -51.5 -60t-63.5 -6l-68 24zM390 290v-230l-87 50v230zM390 60l-260 -150l-87 50l260 150zM130 -90v-100l-87 50v100zM476 650l-86 -50l-87 50l87 50zM390 600v-310l-87 50v310zM492 913l-68 25l-87 50l68 -25zM424 938l-65 -130l-87 50l65 130zM390 290l-173 -100
l-87 50l173 100zM217 500l-87 -50l-87 50l87 50zM359 808l-68 23q-34 12 -63.5 -5t-50.5 -61l-79 -159l-87 50l79 159q22 44 51.5 61t62.5 5l68 -23zM130 450v-310q0 -40 26 -55l-87 50q-26 15 -26 55v310z" />
    <glyph glyph-name="uni20AA" unicode="&#x20aa;" horiz-adv-x="675" 
d="M130 450q0 27 12 56.5t32 55t43 38.5l138 80q34 20 60.5 5t26.5 -55v-220q-35 -20 -61 -5t-26 55v120l-138 -80v-500l-87 -50v500zM546 190l-139 -80q-34 -20 -60.5 -5t-26.5 55v210q35 20 61 5t26 -55v-110l139 80v500l86 50v-500q0 -26 -12 -56t-31.5 -55.5
t-42.5 -38.5zM632 840l-86 -50l-87 50l87 50zM546 790v-500l-87 50v500zM546 290l-139 -80l-87 50l139 80zM355 580v-120q0 -40 26 -55l-86 50q-27 15 -27 55v120zM381 375q-26 15 -61 -5l-86 50q34 20 60 5zM320 370v-210q0 -40 27 -55l-87 50q-26 15 -26 55v210zM416 685
q-27 15 -61 -5l-138 -80q-23 -13 -43 -38.5t-32 -55t-12 -56.5v-500l-87 50v500q0 27 12 56.5t32 55t43 38.5l138 80q35 20 61 5z" />
    <glyph glyph-name="uni20B4" unicode="&#x20b4;" horiz-adv-x="658" 
d="M528 240v80l87 50v-80q0 -26 -12 -56t-32 -55.5t-43 -38.5l-311 -180q-35 -20 -61 -5t-26 55v90q0 27 12 56.5t32 55t43 38.5l-87 -50v100l398 230v170l-311 -180v-80l-87 -50v80q0 27 12 56.5t32 55t43 38.5l311 180q35 20 61 5t26 -55v-70q0 -26 -12 -56t-32 -55.5
t-43 -38.5l87 50v-100l-398 -230v-190zM615 370l-87 -50l-86 50l86 50zM528 320v-80l-86 50v80zM528 240l-311 -180l-87 50l312 180zM615 580l-87 -50l-86 50l86 50zM528 700v-170l-86 50v170zM528 530l-398 -230l-87 50l399 230zM217 250q-23 -13 -43 -38.5t-32 -55
t-12 -56.5v-90q0 -40 26 -55l-87 50q-26 15 -26 55v90q0 27 12 56.5t32 55t43 38.5zM589 805q-26 15 -61 -5l-311 -180q-23 -13 -43 -38.5t-32 -55t-12 -56.5v-80l-87 50v80q0 27 12 56.5t32 55t43 38.5l312 180q34 20 60 5zM130 300v-100l-87 50v100z" />
    <glyph glyph-name="uni20B9" unicode="&#x20b9;" horiz-adv-x="675" 
d="M459 200l-329 -190v100l329 190v120l-329 -190v100l329 190v120l-329 -190v100l329 190q34 20 60.5 5t26.5 -55q0 27 12 56.5t31.5 55t42.5 38.5v-100l-86 -50v-120l86 50v-100l-86 -50v-20q0 -26 -12.5 -56t-32 -55.5t-42.5 -38.5q34 20 60.5 5t26.5 -55v-260l-87 -50
v260zM459 200v-260l-87 50v260zM520 305q-27 15 -61 -5l-87 50q35 20 61 5zM632 620l-86 -50l-87 50l87 50zM632 840q-23 -13 -42.5 -38.5t-31.5 -55t-12 -56.5l-87 50q0 27 12 56.5t32 55t43 38.5zM130 110v-100l-87 50v100zM459 640v-120l-87 50v120zM459 420v-120l-87 50
v120zM459 300l-329 -190l-87 50l329 190zM459 520l-329 -190l-87 50l329 190zM130 330v-100l-87 50v100zM520 745q-27 15 -61 -5l-329 -190l-87 50l329 190q35 20 61 5zM130 550v-100l-87 50v100z" />
    <glyph glyph-name="uni20BD" unicode="&#x20bd;" horiz-adv-x="675" 
d="M346 295q-34 -20 -60 -5t-26 55v-180l260 150v-100l-260 -150v-80l-87 -50v80l-86 -50v100l86 50v80l-86 -50v100l86 50v280l373 215q34 20 60 5t26 -55v-180q0 -26 -12 -56t-31.5 -55.5t-42.5 -38.5zM546 690l-286 -165v-180l286 165v180zM173 195v-80l-86 50v80z
M173 115l-86 -50l-87 50l87 50zM173 15v-80l-86 50v80zM520 315l-260 -150l-87 50l260 150zM546 690v-180l-87 50v180zM173 295l-86 -50l-87 50l87 50zM87 245v-100l-87 50v100zM87 65v-100l-87 50v100zM260 345q0 -40 26 -55l-87 50q-26 15 -26 55zM546 510l-286 -165
l-87 50l286 165zM606 795q-26 15 -60 -5l-373 -215l-86 50l372 215q34 20 61 5zM173 575v-280l-86 50v280z" />
    <glyph glyph-name="uni20BF" unicode="&#x20bf;" horiz-adv-x="650" 
d="M520 775q34 20 60 5t26 -55v-50q0 -26 -12 -56t-31.5 -55.5t-42.5 -38.5q34 20 60 5t26 -55v-150q0 -26 -12 -56t-31.5 -55.5t-42.5 -38.5l-104 -60v-100l-87 -50v100l-26 -15q-34 -20 -60 -5t-26 55v-100l-87 -50v600l199 115v100l87 50v-100zM520 425l-303 -175v-150
l303 175v150zM520 525v150l-303 -175v-150zM329 65v-100l-87 50v100zM580 530q-26 15 -60 -5l-87 50q34 20 61 5zM520 425v-150l-87 50v150zM217 100q0 -40 26 -55l-87 50q-26 15 -26 55zM520 275l-303 -175l-87 50l303 175zM520 675v-150l-87 50v150zM580 780
q-26 15 -60 -5l-104 -60l-87 50l104 60q34 20 61 5zM329 765v-100l-87 50v100zM520 525l-303 -175l-87 50l303 175zM416 815l-87 -50l-87 50l87 50zM329 665l-199 -115l-87 50l199 115zM130 550v-600l-87 50v600z" />
    <glyph glyph-name="uogonek" unicode="&#x173;" 
d="M390 60v-100l86 50v-100l-86 -50q-35 -20 -61 -5t-26 55q0 27 12 56.5t32 55t43 38.5v100q0 -26 -12 -56t-32 -55.5t-43 -38.5l-86 -50q-35 -20 -61 -5t-26 55v440l87 50v-440l173 100v440l86 50v-540zM476 650l-86 -50l-87 50l87 50zM390 600v-440l-87 50v440zM476 10
l-86 -50l-87 50l87 50zM217 500l-87 -50l-87 50l87 50zM390 160v-100l-87 50v100zM390 60q-23 -13 -43 -38.5t-32 -55t-12 -56.5q0 -40 26 -55l-86 50q-26 15 -26 55q0 26 12 56t31.5 55.5t42.5 38.5zM390 160l-173 -100l-87 50l173 100zM130 450v-440q0 -40 26 -55l-87 50
q-26 15 -26 55v440z" />
    <glyph glyph-name="uring" unicode="&#x16f;" 
d="M130 450l87 50v-440l173 100v440l86 50v-540l-86 -50v100q0 -26 -12 -56t-32 -55.5t-43 -38.5l-86 -50q-35 -20 -61 -5t-26 55v440zM303 828q37 21 62 7t25 -57t-25 -86t-62 -64t-61.5 -7t-24.5 57t24.5 86t61.5 64zM303 761q-11 -7 -19.5 -21.5t-8.5 -27.5t8.5 -18
t19.5 2q11 6 19.5 20.5t8.5 27.5t-8.5 18t-19.5 -1zM390 160v-100l-87 50v100zM476 650l-86 -50l-87 50l87 50zM390 600v-440l-87 50v440zM217 500l-87 -50l-87 50l87 50zM390 160l-173 -100l-87 50l173 100zM323 762q8 -5 8 -18t-8.5 -27.5t-19.5 -20.5q-11 -7 -20 -2
l-86 50q8 -5 20 2q11 6 19.5 20.5t8.5 27.5t-9 18zM130 450v-440q0 -40 26 -55l-87 50q-26 15 -26 55v440zM365 835q-25 14 -62 -7t-61.5 -64t-24.5 -86t24 -57l-86 50q-25 14 -25 57t24.5 86t62.5 64q37 21 61 7z" />
    <glyph glyph-name="utilde" unicode="&#x169;" 
d="M130 450l87 50v-440l173 100v440l86 50v-540l-86 -50v100q0 -26 -12 -56t-32 -55.5t-43 -38.5l-86 -50q-35 -20 -61 -5t-26 55v440zM167 581l-69 25l79 159q21 44 50.5 61t63.5 5l68 -23l65 130l68 -25l-78 -159q-22 -43 -51.5 -60t-63.5 -6l-68 24zM390 160v-100l-87 50
v100zM476 650l-86 -50l-87 50l87 50zM390 600v-440l-87 50v440zM492 913l-68 25l-87 50l68 -25zM424 938l-65 -130l-87 50l65 130zM217 500l-87 -50l-87 50l87 50zM390 160l-173 -100l-87 50l173 100zM359 808l-68 23q-34 12 -63.5 -5t-50.5 -61l-79 -159l-87 50l79 159
q22 44 51.5 61t62.5 5l68 -23zM130 450v-440q0 -40 26 -55l-87 50q-26 15 -26 55v440z" />
    <glyph glyph-name="v" unicode="v" 
d="M303 -40q-34 -20 -60 -5t-26 55l173 100v490l86 50v-390q0 -26 -12 -56t-31.5 -55.5t-42.5 -38.5q0 -26 -12 -56t-32 -55.5t-43 -38.5zM130 450l87 50v-490q-35 -20 -61 -5t-26 55v390zM476 650l-86 -50l-87 50l87 50zM390 600v-490l-87 50v490zM390 110l-173 -100
l-87 50l173 100zM217 10q0 -40 26 -55l-87 50q-26 15 -26 55zM217 500l-87 -50l-87 50l87 50zM130 450v-390q0 -40 26 -55l-87 50q-26 15 -26 55v390z" />
    <glyph glyph-name="w" unicode="w" horiz-adv-x="658" 
d="M329 565l87 50v-490l112 65v490l87 50v-390q0 -26 -12 -56t-32 -55.5t-43 -38.5q0 -26 -12 -56t-31.5 -55.5t-42.5 -38.5l-139 -80q-34 -20 -60 -5t-26 55l112 65v490zM130 450l87 50v-490q-35 -20 -61 -5t-26 55v390zM329 75l-112 -65l-87 50l112 65zM217 10
q0 -40 26 -55l-87 50q-26 15 -26 55zM615 730l-87 -50l-86 50l86 50zM528 680v-490l-86 50v490zM528 190l-112 -65l-87 50l113 65zM416 615l-87 -50l-87 50l87 50zM329 565v-490l-87 50v490zM217 500l-87 -50l-87 50l87 50zM130 450v-390q0 -40 26 -55l-87 50q-26 15 -26 55
v390z" />
    </font>
</defs>
</svg>
